<svg xmlns="http://www.w3.org/2000/svg" xmlns:xlink="http://www.w3.org/1999/xlink" width="1979" height="1306" overflow="hidden" xmlns:v="https://vecta.io/nano"><style><![CDATA[.B{stroke-linejoin:round}.C{stroke-miterlimit:10}.D{stroke-width:3.438}.E{fill:none}.F{fill:#595959}.G{font-family:Nunito Sans SemiBold,Nunito Sans SemiBold_MSFontService,sans-serif}.H{font-weight:600}.I{stroke:#4ea6dc}.J{stroke:#e32d91}.K{stroke:#c830cc}.L{stroke:#4775e7}.M{font-size:41px}.N{font-size:37px}.O{stroke-width:8.021}.P{stroke-linecap:round}.Q{stroke:#d9d9d9}]]></style><defs><clipPath id="A"><path d="M2163 731h1979v1306H2163z"/></clipPath><clipPath id="B"><path d="M2162 730h1979v1306H2162z"/></clipPath><clipPath id="C"><path d="M2162 730h1979v1306H2162z"/></clipPath><clipPath id="D"><path d="M2162 730h1979v1306H2162z"/></clipPath><clipPath id="E"><path d="M2162 730h1979v1306H2162z"/></clipPath><clipPath id="F"><path d="M2490 1033h1604v801H2490z"/></clipPath><clipPath id="G"><path d="M2490 1033h1604v801H2490z"/></clipPath><clipPath id="H"><path d="M2490 1033h1604v801H2490z"/></clipPath><clipPath id="I"><path d="M2490 1033h1604v801H2490z"/></clipPath><clipPath id="J"><path d="M2490 1033h1604v801H2490z"/></clipPath><clipPath id="K"><path d="M2490 1033h1604v801H2490z"/></clipPath><clipPath id="L"><path d="M2490 1033h1604v801H2490z"/></clipPath><clipPath id="M"><path d="M2490 1033h1604v801H2490z"/></clipPath><clipPath id="N"><path d="M2490 1033h1604v801H2490z"/></clipPath><clipPath id="O"><path d="M2490 1033h1604v801H2490z"/></clipPath><clipPath id="P"><path d="M2490 1033h1604v801H2490z"/></clipPath><clipPath id="Q"><path d="M2490 1033h1604v801H2490z"/></clipPath><clipPath id="R"><path d="M2490 1033h1604v801H2490z"/></clipPath><clipPath id="S"><path d="M2490 1033h1604v801H2490z"/></clipPath><clipPath id="T"><path d="M2490 1033h1604v801H2490z"/></clipPath><clipPath id="U"><path d="M2490 1033h1604v801H2490z"/></clipPath><clipPath id="V"><path d="M2490 1033h1604v801H2490z"/></clipPath><clipPath id="W"><path d="M2490 1033h1604v801H2490z"/></clipPath><clipPath id="X"><path d="M2490 1033h1604v801H2490z"/></clipPath><clipPath id="Y"><path d="M2490 1033h1604v801H2490z"/></clipPath><clipPath id="Z"><path d="M2490 1033h1604v801H2490z"/></clipPath><clipPath id="a"><path d="M2490 1033h1604v801H2490z"/></clipPath><clipPath id="b"><path d="M2490 1033h1604v801H2490z"/></clipPath><clipPath id="c"><path d="M2490 1033h1604v801H2490z"/></clipPath><clipPath id="d"><path d="M2490 1033h1604v801H2490z"/></clipPath><clipPath id="e"><path d="M2490 1033h1604v801H2490z"/></clipPath><clipPath id="f"><path d="M2490 1033h1604v801H2490z"/></clipPath><clipPath id="g"><path d="M2490 1033h1604v801H2490z"/></clipPath><clipPath id="h"><path d="M2490 1033h1604v801H2490z"/></clipPath><clipPath id="i"><path d="M2490 1033h1604v801H2490z"/></clipPath><clipPath id="j"><path d="M2490 1033h1604v801H2490z"/></clipPath><clipPath id="k"><path d="M2490 1033h1604v801H2490z"/></clipPath><clipPath id="l"><path d="M2490 1033h1604v801H2490z"/></clipPath><clipPath id="m"><path d="M2490 1033h1604v801H2490z"/></clipPath><clipPath id="n"><path d="M2490 1033h1604v801H2490z"/></clipPath><clipPath id="o"><path d="M2490 1033h1604v801H2490z"/></clipPath><clipPath id="p"><path d="M2490 1033h1604v805H2490z"/></clipPath><clipPath id="q"><path d="M2162 730h1979v1306H2162z"/></clipPath><clipPath id="r"><path d="M2490 1033h1604v805H2490z"/></clipPath><clipPath id="s"><path d="M2162 730h1979v1306H2162z"/></clipPath><clipPath id="t"><path d="M2490 1033h1604v805H2490z"/></clipPath><clipPath id="u"><path d="M2162 730h1979v1306H2162z"/></clipPath><clipPath id="v"><path d="M2490 1033h1604v805H2490z"/></clipPath><clipPath id="w"><path d="M2162 730h1979v1306H2162z"/></clipPath><clipPath id="x"><path d="M2162 730h1979v1306H2162z"/></clipPath><clipPath id="y"><path d="M2162 730h1979v1306H2162z"/></clipPath><clipPath id="z"><path d="M2162 730h1979v1306H2162z"/></clipPath><clipPath id="AA"><path d="M2162 730h1979v1306H2162z"/></clipPath><clipPath id="AB"><path d="M2162 730h1979v1306H2162z"/></clipPath><clipPath id="AC"><path d="M2162 730h1979v1306H2162z"/></clipPath><clipPath id="AD"><path d="M2162 730h1979v1306H2162z"/></clipPath><clipPath id="AE"><path d="M2162 730h1979v1306H2162z"/></clipPath><clipPath id="AF"><path d="M2162 730h1979v1306H2162z"/></clipPath><clipPath id="AG"><path d="M2162 730h1979v1306H2162z"/></clipPath><clipPath id="AH"><path d="M2162 730h1979v1306H2162z"/></clipPath><clipPath id="AI"><path d="M2162 730h1979v1306H2162z"/></clipPath><clipPath id="AJ"><path d="M2162 730h1979v1306H2162z"/></clipPath><clipPath id="AK"><path d="M2162 730h1979v1306H2162z"/></clipPath><clipPath id="AL"><path d="M2162 730h1979v1306H2162z"/></clipPath><clipPath id="AM"><path d="M2162 730h1979v1306H2162z"/></clipPath><clipPath id="AN"><path d="M2162 730h1979v1306H2162z"/></clipPath><clipPath id="AO"><path d="M2162 730h1979v1306H2162z"/></clipPath><clipPath id="AP"><path d="M2162 730h1979v1306H2162z"/></clipPath><clipPath id="AQ"><path d="M2162 730h1979v1306H2162z"/></clipPath><clipPath id="AR"><path d="M2162 730h1979v1306H2162z"/></clipPath><clipPath id="AS"><path d="M2162 730h1979v1306H2162z"/></clipPath><clipPath id="AT"><path d="M2162 730h1979v1306H2162z"/></clipPath><clipPath id="AU"><path d="M2162 730h1979v1306H2162z"/></clipPath><clipPath id="AV"><path d="M2162 730h1979v1306H2162z"/></clipPath><clipPath id="AW"><path d="M2162 730h1979v1306H2162z"/></clipPath><clipPath id="AX"><path d="M2162 730h1979v1306H2162z"/></clipPath><clipPath id="AY"><path d="M2162 730h1979v1306H2162z"/></clipPath><clipPath id="AZ"><path d="M2162 730h1979v1306H2162z"/></clipPath><clipPath id="Aa"><path d="M2162 730h1979v1306H2162z"/></clipPath><clipPath id="Ab"><path d="M2162 730h1979v1306H2162z"/></clipPath><path id="Ac" d="M2591.18 1637.21c0 7.18-5.82 13-13 13s-13-5.82-13-13 5.82-13 13-13 13 5.82 13 13z"/></defs><g clip-path="url(#A)" transform="translate(-2163 -731)"><path fill="#fff" d="M2163 731h1979v1306H2163z"/><g clip-path="url(#B)" class="B C D E Q"><path d="M2490.5 1834.5h1601m-1601-132.94h1601m-1601-134.01h1601m-1601-133h1601m-1601-134.01h1601m-1601-133h1601m-1601-134.04h1601"/></g><g clip-path="url(#C)" class="B C D E Q"><path d="M2668.59 1033.5v801m177-801v801m178.01-801v801m178.01-801v801m178-801v801m178.01-801v801m178-801v801m178.01-801v801m177.87-801v801"/></g><g clip-path="url(#D)" class="B C D E Q"><path d="M2490.5 1834.5v-801"/></g><g clip-path="url(#E)" class="B C D E Q"><path d="M2479.58 1834.5h10.92m-10.92-39.94h10.92m-10.92-23h10.92m-10.92-17h10.92m-10.92-13h10.92m-10.92-11h10.92m-10.92-8h10.92m-10.92-8h10.92m-10.92-7h10.92m-10.92-6h10.92m-10.92-40.01h10.92m-10.92-24h10.92m-10.92-17h10.92m-10.92-12h10.92m-10.92-11h10.92m-10.92-9h10.92m-10.92-8h10.92m-10.92-7h10.92m-10.92-6h10.92m-10.92-40h10.92m-10.92-23h10.92m-10.92-17h10.92m-10.92-13h10.92m-10.92-11h10.92m-10.92-9h10.92m-10.92-7h10.92m-10.92-7h10.92m-10.92-6h10.92m-10.92-40h10.92m-10.92-24h10.92m-10.92-17.01h10.92m-10.92-13h10.92m-10.92-10h10.92m-10.92-9h10.92m-10.92-8h10.92m-10.92-7h10.92m-10.92-6h10.92m-10.92-40h10.92m-10.92-23h10.92m-10.92-17h10.92m-10.92-13h10.92m-10.92-11h10.92m-10.92-9h10.92m-10.92-7h10.92m-10.92-7h10.92m-10.92-6h10.92m-10.92-40h10.92m-10.92-24h10.92m-10.92-17h10.92m-10.92-13h10.92m-10.92-10h10.92m-10.92-9.01h10.92m-10.92-8h10.92m-10.92-7h10.92m-10.92-6.03h10.92m-14 801h14m-14-132.94h14m-14-134.01h14m-14-133h14m-14-134.01h14m-14-133h14m-14-134.04h14"/></g><g clip-path="url(#F)" class="B C D E I"><path d="M2579.58 1453.55v4.95m0-4.95v-3.05m-11.08 8h21m-21-8h21"/></g><g clip-path="url(#G)" class="B C D E I"><path d="M2757.59 1412.55v1.95m0-1.95v-1.05m-11.09 3h21m-21-3h21"/></g><g clip-path="url(#H)" class="B C D E I"><path d="M2934.6 1388.55v25.95m0-25.95v-17.05m-10.1 43h21m-21-43h21"/></g><g clip-path="url(#I)" class="B C D E I"><path d="M3112.6 1396.55v20.95m0-20.95v-15.05m-10.1 36h21m-21-36h21"/></g><g clip-path="url(#J)" class="B C D E I"><path d="M3290.61 1337.54v16.96m0-16.96v-13.04m-10.11 30h21m-21-30h21"/></g><g clip-path="url(#K)" class="B C D E I"><path d="M3468.61 1242.54v37.96m0-37.96v-22.04m-10.11 60h20m-20-60h20"/></g><g clip-path="url(#L)" class="B C D E I"><path d="M3646.62 1191.54v22.96m0-22.96v-16.04m-10.12 39h20m-20-39h20"/></g><g clip-path="url(#M)" class="B C D E I"><path d="M3824.63 1192.54v84.96m0-84.96v-33.04m-10.13 118h20m-20-118h20"/></g><g clip-path="url(#N)" class="B C D E I"><path d="M4002.63 1036.53v65.97m0-65.97v-29.03m-10.13 95h20m-20-95h20"/></g><g clip-path="url(#O)" class="B C D E J"><path d="M2579.58 1605.55v11.95m0-11.95v-9.05m-11.08 21h21m-21-21h21"/></g><g clip-path="url(#P)" class="B C D E J"><path d="M2757.59 1533.55v21.95m0-21.95v-15.05m-11.09 37h21m-21-37h21"/></g><g clip-path="url(#Q)" class="B C D E J"><path d="M2934.6 1455.55v54.95m0-54.95v-28.05m-10.1 83h21m-21-83h21"/></g><g clip-path="url(#R)" class="B C D E J"><path d="M3112.6 1454.55v30.95m0-30.95v-20.05m-10.1 51h21m-21-51h21"/></g><g clip-path="url(#S)" class="B C D E J"><path d="M3290.61 1401.55v16.95m0-16.95v-13.05m-10.11 30h21m-21-30h21"/></g><g clip-path="url(#T)" class="B C D E J"><path d="M3468.61 1316.54v37.96m0-37.96v-23.04m-10.11 61h20m-20-61h20"/></g><g clip-path="url(#U)" class="B C D E J"><path d="M3646.62 1252.54v38.96m0-38.96v-23.04m-10.12 62h20m-20-62h20"/></g><g clip-path="url(#V)" class="B C D E J"><path d="M3824.63 1303.54v32.96m0-32.96v-21.04m-10.13 54h20m-20-54h20"/></g><g clip-path="url(#W)" class="B C D E J"><path d="M4002.63 1132.54v66.96m0-66.96v-30.04m-10.13 97h20m-20-97h20"/></g><g clip-path="url(#X)" class="B C D E K"><path d="M2579.58 1734.56v7.94m0-7.94v-7.06m-11.08 15h21m-21-15h21"/></g><g clip-path="url(#Y)" class="B C D E K"><path d="M2757.59 1646.55v51.95m0-51.95v-27.05m-11.09 79h21m-21-79h21"/></g><g clip-path="url(#Z)" class="B C D E K"><path d="M2934.6 1585.55v50.95m0-50.95v-26.05m-10.1 77h21m-21-77h21"/></g><g clip-path="url(#a)" class="B C D E K"><path d="M3112.6 1584.55v20.95m0-20.95v-16.05m-10.1 37h21m-21-37h21"/></g><g clip-path="url(#b)" class="B C D E K"><path d="M3290.61 1507.55v11.95m0-11.95v-11.05m-10.11 23h21m-21-23h21"/></g><g clip-path="url(#c)" class="B C D E K"><path d="M3468.61 1402.55v44.95m0-44.95v-24.05m-10.11 69h20m-20-69h20"/></g><g clip-path="url(#d)" class="B C D E K"><path d="M3646.62 1342.54v34.96m0-34.96v-21.04m-10.12 56h20m-20-56h20"/></g><g clip-path="url(#e)" class="B C D E K"><path d="M3824.63 1325.54v61.96m0-61.96v-29.04m-10.13 91h20m-20-91h20"/></g><g clip-path="url(#f)" class="B C D E K"><path d="M4002.63 1218.54v58.96m0-58.96v-29.04m-10.13 88h20m-20-88h20"/></g><g clip-path="url(#g)" class="B C D E L"><path d="M2579.58 1638.55v6.95m0-6.95v-6.05m-11.08 13h21m-21-13h21"/></g><g clip-path="url(#h)" class="B C D E L"><path d="M2757.59 1619.55v9.95m0-9.95v-10.05m-11.09 20h21m-21-20h21"/></g><g clip-path="url(#i)" class="B C D E L"><path d="M2934.6 1602.55v14.95m0-14.95v-11.05m-10.1 26h21m-21-26h21"/></g><g clip-path="url(#j)" class="B C D E L"><path d="M3112.6 1598.55v10.95m0-10.95v-9.05m-10.1 20h21m-21-20h21"/></g><g clip-path="url(#k)" class="B C D E L"><path d="M3290.61 1576.55v10.95m0-10.95v-9.05m-10.11 20h21m-21-20h21"/></g><g clip-path="url(#l)" class="B C D E L"><path d="M3468.61 1506.55v26.95m0-26.95v-18.05m-10.11 45h20m-20-45h20"/></g><g clip-path="url(#m)" class="B C D E L"><path d="M3646.62 1467.55v21.95m0-21.95v-17.05m-10.12 39h20m-20-39h20"/></g><g clip-path="url(#n)" class="B C D E L"><path d="M3824.63 1487.55v16.95m0-16.95v-13.05m-10.13 30h20m-20-30h20"/></g><g clip-path="url(#o)" class="B C D E L"><path d="M4002.63 1321.54v30.96m0-30.96v-20.04m-10.13 51h20m-20-51h20"/></g><g clip-path="url(#p)" class="B C E I O P"><path d="M2579 1454l178.09-40.95 178.01-24 178 7 178.01-59.01 178-94 177.01-51h178.01L4002 1037"/></g><g clip-path="url(#q)" fill="#4ea6dc" class="B C D I"><path d="M2579.18 1441.21l13 26h-26zm178-42l13 26h-26zm178-24l13 26h-26zm177 8l13 26h-26zm178-59l13 26h-26zm178-95l13 26h-26zm178-51l13 26h-26zm178 1l13 26h-26zm178-156l13 26h-26z"/></g><g clip-path="url(#r)" class="B C E J O P"><path d="M2579 1606l178.09-71.95 178.01-78 178-2 178.01-52 178-86.01 177.01-63 178.01 50L4002 1133"/></g><g clip-path="url(#s)" fill="#e32d91" class="B C D J"><path d="M2579.18 1592.21l13 13-13 13-13-13zm178-71l13 13-13 13-13-13zm178-79l13 13-13 13-13-13zm177-1l13 13-13 13-13-13zm178-53l13 13-13 13-13-13zm178-85l13 13-13 13-13-13zm178-64l13 13-13 13-13-13zm178 51l13 13-13 13-13-13zm178-170l13 13-13 13-13-13z"/></g><g clip-path="url(#t)" class="B C E K O P"><path d="M2579 1734l178.09-87.95 178.01-60 178-2 178.01-77 178-104 177.01-60.01 178.01-17L4002 1218"/></g><g clip-path="url(#u)" fill="#c830cc" class="B C D K"><path d="M2565.18 1720.21h26v26h-26zm178-88h26v26h-26zm178-61h26v26h-26zm177-1h26v26h-26zm178-77h26v26h-26zm178-104h26v26h-26zm178-61h26v26h-26zm178-17h26v26h-26zm178-107h26v26h-26z"/></g><g clip-path="url(#v)" class="B C E L O P"><path d="M2579 1639l178.09-19.95 178.01-16 178-4 178.01-22 178-71 177.01-39 178.01 21L4002 1321"/></g><g clip-path="url(#w)" fill="#4775e7" class="B C D L"><use xlink:href="#Ac"/><path d="M2769.18 1618.21c0 7.18-5.82 13-13 13s-13-5.82-13-13 5.82-13 13-13 13 5.82 13 13zm178-17c0 7.18-5.82 13-13 13s-13-5.82-13-13 5.82-13 13-13 13 5.82 13 13zm177-4c0 7.18-5.82 13-13 13s-13-5.82-13-13 5.82-13 13-13 13 5.82 13 13zm178-22c0 7.18-5.82 13-13 13s-13-5.82-13-13 5.82-13 13-13 13 5.82 13 13zm178-70c0 7.18-5.82 13-13 13s-13-5.82-13-13 5.82-13 13-13 13 5.82 13 13zm178-39c0 7.18-5.82 13-13 13s-13-5.82-13-13 5.82-13 13-13 13 5.82 13 13zm178 20c0 7.18-5.82 13-13 13s-13-5.82-13-13 5.82-13 13-13 13 5.82 13 13zm178-166c0 7.18-5.82 13-13 13s-13-5.82-13-13 5.82-13 13-13 13 5.82 13 13z"/></g><g clip-path="url(#x)" class="F G H M"><text transform="translate(2314.73 1845)">0.0001</text></g><g clip-path="url(#y)" class="F G H M"><text transform="translate(2339.48 1712)">0.001</text></g><g clip-path="url(#z)" class="F G H M"><text transform="translate(2364.23 1578)">0.01</text></g><g clip-path="url(#AA)" class="F G H M"><text transform="translate(2388.98 1444)">0.1</text></g><g clip-path="url(#AB)" class="F G H M"><text transform="translate(2423.54 1311)">1</text></g><g clip-path="url(#AC)" class="F G H M"><text transform="translate(2398.79 1177)">10</text></g><g clip-path="url(#AD)" class="F G H M"><text transform="translate(2374.04 1044)">100</text></g><g clip-path="url(#AE)" class="F G H N"><text transform="translate(2565.51 1897)">4</text></g><g clip-path="url(#AF)" class="F G H N"><text transform="translate(2743.4 1897)">5</text></g><g clip-path="url(#AG)" class="F G H N"><text transform="translate(2921.31 1897)">6</text></g><g clip-path="url(#AH)" class="F G H N"><text transform="translate(3099.17 1897)">7</text></g><g clip-path="url(#AI)" class="F G H N"><text transform="translate(3277.05 1897)">8</text></g><g clip-path="url(#AJ)" class="F G H N"><text transform="translate(3454.94 1897)">9</text></g><g clip-path="url(#AK)" class="F G H N"><text transform="translate(3619.07 1897)">10</text></g><g clip-path="url(#AL)" class="F G H N"><text transform="translate(3796.95 1897)">11</text></g><g clip-path="url(#AM)" class="F G H N"><text transform="translate(3974.84 1897)">12</text></g><g clip-path="url(#AN)" class="F G H M"><text transform="matrix(0 -1 1 0 2261.98 1558)">RUNTIME (S)</text></g><g clip-path="url(#AO)" class="F G H M"><text transform="translate(3083.16 1965)">NUMBER OF BLOCKS</text></g><g clip-path="url(#AP)"><text font-family="Nunito Sans ExtraBold,Nunito Sans ExtraBold_MSFontService,sans-serif" font-weight="800" font-size="73" transform="translate(2604.02 839)">BLOCKSWORLD RUNTIMES</text></g><g clip-path="url(#AQ)" class="B C E I O P"><path d="M2300 941h88"/></g><g clip-path="url(#AR)" class="B C D I"><path d="M2343.5 930.5l11 21.999h-22z" fill="#4ea6dc"/></g><g clip-path="url(#AS)" class="F G H M"><text transform="translate(2397.03 951)">Pyperplan</text></g><g clip-path="url(#AT)" class="B C E J O P"><path d="M2623 941h88"/></g><g clip-path="url(#AU)" class="B C D J"><path d="M2667.5 930.5l11 11-11 10.999-11-10.999z" fill="#e32d91"/></g><g clip-path="url(#AV)" class="F G H M"><text transform="translate(2720.58 951)">PDDL.jl (Interpreted)</text></g><g clip-path="url(#AW)" class="B C E K O P"><path d="M3144 941h88"/></g><g clip-path="url(#AX)" class="B C D K"><path d="M3177.6 930.531h22v22h-22z" fill="#c830cc"/></g><g clip-path="url(#AY)" class="F G H M"><text transform="translate(3241.69 951)">PDDL.jl (Compiled)</text></g><g clip-path="url(#AZ)" class="B C E L O P"><path d="M3635 941h88"/></g><g clip-path="url(#Aa)" class="B C D L"><path d="M3689 941c0 6.075-4.93 10.999-11 10.999s-11-4.924-11-10.999 4.93-11 11-11 11 4.925 11 11z" fill="#4775e7"/></g><g clip-path="url(#Ab)" class="F G H M"><text transform="translate(3731.82 951)">FastDownward</text></g></g></svg>