<svg xmlns="http://www.w3.org/2000/svg" viewBox="0 0 135.467 135.467" height="512" width="512" xmlns:v="https://vecta.io/nano"><defs><marker id="A" refX="0.0" refY="0.0" orient="auto" overflow="visible"><path transform="matrix(.4 0 0 .4 2.96 .4)" d="M-2.5-1c0 2.76-2.24 5-5 5s-5-2.24-5-5 2.24-5 5-5 5 2.24 5 5z" fill-rule="evenodd" stroke="#000" stroke-width="1pt" stroke-opacity="1" fill="#000" fill-opacity="1"/></marker><marker id="B" refX="0.0" refY="0.0" orient="auto" overflow="visible"><path transform="matrix(-.4 0 0 -.4 -4 0)" d="M0 0l5-5-17.5 5L5 5 0 0z" fill-rule="evenodd" stroke="#000" stroke-width="1pt" stroke-opacity="1" fill="#000" fill-opacity="1"/></marker></defs><path d="M122.514 39.048c-1.35-7.058-8.167-11.685-15.225-10.334S95.605 36.88 96.955 43.938s8.167 11.685 15.225 10.334 11.685-8.167 10.334-15.225M41.02 106.2c1.35 7.058-3.276 13.874-10.334 15.225s-13.874-3.276-15.225-10.334 3.276-13.874 10.334-15.225S39.67 99.142 41.02 106.2" fill="#ca3a33"/><path d="M104.875 97.663c1.35 7.058-3.276 13.874-10.334 15.225s-13.874-3.276-15.225-10.334 3.276-13.874 10.334-15.225 13.874 3.276 15.225 10.334" fill="#389723"/><path d="M71.15 24.378c-1.35-7.058-8.167-11.685-15.225-10.334S44.24 22.21 45.591 29.268s8.167 11.685 15.225 10.334S72.5 31.436 71.15 24.378" fill="#4063d8"/><path d="M38.512 58.777c-1.35-7.058-8.167-11.685-15.225-10.334s-11.685 8.167-10.334 15.225 8.167 11.685 15.225 10.334 11.685-8.167 10.334-15.225" fill="#9457b0"/><path d="M28.241 108.645l-2.508-47.423 66.362 38.886L58.37 26.823l51.364 14.67" fill="none" stroke="#000" stroke-width="2.117" marker-end="url(#B)" marker-start="url(#A)"/></svg>