<svg xmlns="http://www.w3.org/2000/svg" xmlns:xlink="http://www.w3.org/1999/xlink" viewBox="0 0 100.117 214.193" height="1011.935" width="472.995" xmlns:v="https://vecta.io/nano"><style><![CDATA[.B{stroke:#000}.C{stroke-width:.353}.D{overflow:visible}.E{fill:#000}.F{fill-opacity:1}.G{fill-rule:evenodd}.H{stroke-width:1pt}.I{stroke-opacity:1}.J{fill:#afefff}]]></style><defs><marker orient="auto" refY="0" refX="0" id="A" class="D"><path d="M0 0l5-5-17.5 5L5 5z" transform="matrix(-.4 0 0 -.4 -4 0)" class="B E F G H I"/></marker><marker orient="auto" refY="0" refX="0" id="B" class="D"><path d="M0 0l5-5-17.5 5L5 5z" transform="matrix(-.4 0 0 -.4 -4 0)" class="B E F G H I"/></marker><marker orient="auto" refY="0" refX="0" id="C" class="D"><path d="M0 0l5-5-17.5 5L5 5z" transform="matrix(-.4 0 0 -.4 -4 0)" class="B E F G H I"/></marker><marker orient="auto" refY="0" refX="0" id="D" class="D"><path d="M0 0l5-5-17.5 5L5 5z" transform="matrix(-.4 0 0 -.4 -4 0)" class="B E F G H I"/></marker><marker orient="auto" refY="0" refX="0" id="E" class="D"><path d="M0 0l5-5-17.5 5L5 5z" transform="matrix(-.4 0 0 -.4 -4 0)" class="B E F G H I"/></marker><marker id="F" refX="0" refY="0" orient="auto" class="D"><path transform="matrix(-.4 0 0 -.4 -4 0)" d="M0 0l5-5-17.5 5L5 5z" class="B E F G H I"/></marker><marker orient="auto" refY="0" refX="0" id="G" class="D"><path d="M0 0l5-5-17.5 5L5 5z" transform="matrix(-.4 0 0 -.4 -4 0)" class="B E F G H I"/></marker><path id="H" d="M43.241 27.146q.521.017.664.017.194 0 .436-.01.256-.008.316-.008.289 0 .477.06.19.06.314.219.124.159.124.384 0 .186-.087.36-.087.174-.242.296-.155.122-.314.176-.159.052-.331.052-.128 0-.285-.029l-.035-.126.019-.021q.155.035.252.035.271 0 .434-.178.165-.18.165-.459 0-.281-.172-.449-.169-.167-.515-.167-.188 0-.413.07-.019.159-.019.769v.957l.002.403q.002.234.012.302.01.068.029.091.021.023.076.039.056.014.275.023l.017.012v.103l-.017.017q-.527-.017-.593-.017-.07 0-.591.017l-.017-.017v-.103l.017-.012q.192-.008.256-.021.064-.012.085-.031.023-.021.035-.085.014-.064.017-.285l.002-.436v-.957l-.004-.403q-.002-.236-.012-.304-.008-.068-.029-.091-.019-.023-.074-.037-.056-.014-.275-.023l-.017-.014v-.103z"/><path id="I" d="M46.315 27.006l.039.025q-.023.238-.023.953v1.296q0 .045.008.294.008.246.017.287.01.041.029.06.019.019.045.025.027.004.223.017l.019.017v.087l-.017.019q-.258-.017-.498-.017-.238 0-.496.017l-.019-.019v-.087l.019-.017q.201-.012.225-.019.027-.006.045-.025.021-.021.027-.06.008-.041.017-.267.01-.227.01-.343v-1.071l-.008-.438q-.006-.229-.014-.318-.006-.089-.019-.105-.012-.017-.043-.025-.031-.008-.25-.008l-.019-.019v-.087l.017-.019q.395-.045.666-.153z"/><path id="J" d="M47.212 28.666l-.081-.021-.017-.021v-.256q.368-.273.715-.273.238 0 .395.089.157.089.227.223.07.132.07.31l-.01.415v.616q0 .126.017.153.019.027.041.037.023.008.085.014l.118.01.017.019v.083l-.017.017q-.151-.012-.281-.012-.124 0-.298.012l-.031-.029.008-.333-.451.351q-.114.048-.248.048-.165 0-.285-.06-.118-.06-.182-.167-.062-.107-.062-.26 0-.304.19-.473.19-.172 1.038-.291 0-.306-.136-.43-.136-.126-.366-.126-.12 0-.219.035-.097.035-.112.058-.014.021-.112.252zm.959.327q-.579.097-.721.209-.143.112-.143.345 0 .322.32.322.275 0 .544-.318zm-.351-1.025zm-.043 2.224z"/><path id="K" d="M49.597 28.097l.039.027q-.012.138-.017.364.165-.136.314-.277.043-.039.081-.058.039-.019.128-.039.089-.021.182-.021.157 0 .304.064.149.064.223.153.076.087.105.207.029.12.029.296v.364q0 .035.01.515.004.196.043.234.039.037.256.037l.017.017v.089l-.017.017q-.263-.017-.356-.017-.054 0-.302.017l-.025-.023q.027-.269.027-.701v-.271q0-.244-.012-.351-.01-.107-.068-.194-.058-.089-.155-.136-.097-.05-.232-.05-.107 0-.184.023-.076.021-.172.089-.095.066-.141.126-.045.058-.056.11-.008.05-.008.215v.36q0 .045.008.294.008.246.017.287.01.041.029.06.019.019.045.025.027.004.223.017l.019.017v.087l-.017.019q-.258-.017-.498-.017-.238 0-.496.017l-.019-.019v-.087l.019-.017q.201-.012.225-.019.027-.006.045-.025.021-.021.027-.06.008-.041.017-.267.01-.227.01-.343v-.407q0-.083-.008-.225-.008-.143-.014-.176-.004-.033-.031-.048-.027-.017-.107-.017l-.174-.002-.019-.017v-.089l.017-.017q.395-.048.666-.155z"/><path id="L" d="M55.645 29.763l-.066.149q-.215.138-.384.18-.167.041-.3.041-.248 0-.471-.097-.221-.097-.362-.329-.138-.232-.138-.558 0-.217.054-.391.054-.176.112-.26.06-.085.201-.188.141-.103.298-.165.157-.062.339-.062.248 0 .436.118.19.116.267.298.076.182.076.387 0 .064-.006.124l-.023.023q-.141.031-.378.041-.238.01-.314.01h-.664q.004.428.215.63.211.203.517.203.145 0 .277-.05.134-.05.283-.138zm-1.325-.845q.037.006.285.014.25.008.37.008.287 0 .349-.01.002-.05.002-.076 0-.32-.13-.475-.13-.157-.356-.157-.246 0-.384.176-.136.176-.136.521zm.577-.951zm-.025 2.224z"/><path id="M" d="M56.637 28.097l.039.027q-.012.12-.019.426l.155-.196q.076-.097.134-.149.06-.054.138-.083.079-.029.161-.029.091 0 .172.037l.014.029q-.033.275-.037.484h-.093q-.083-.19-.267-.19-.128 0-.223.083-.095.081-.128.205-.031.122-.031.31v.229q0 .062.008.304.008.242.017.279.01.037.029.056.021.017.052.023.033.006.296.021l.019.017v.087l-.019.019q-.275-.017-.575-.017-.238 0-.496.017l-.019-.019v-.087l.019-.017q.201-.012.225-.019.027-.006.045-.025.021-.021.027-.06.008-.041.017-.267.01-.227.01-.343v-.407q0-.083-.008-.225-.008-.143-.014-.176-.004-.033-.031-.048-.027-.017-.107-.017l-.174-.002-.019-.017v-.089l.017-.017q.395-.048.666-.155z"/><path id="N" d="M46.591 33.389l.039.027q-.023.271-.023.688v.482q0 .265.039.368.041.103.141.159.099.054.236.054.151 0 .275-.058.124-.06.207-.167.085-.107.097-.145.012-.037.017-.209l.006-.232v-.223q0-.083-.008-.225-.008-.143-.014-.176-.004-.033-.031-.048-.027-.017-.107-.017l-.174-.002-.019-.017v-.089l.017-.017q.395-.048.666-.155l.039.027q-.023.271-.023.688v.364q0 .031.01.506.004.176.021.215.019.037.05.054.031.014.184.014h.058l.019.017v.083l-.017.019q-.291-.017-.391-.017-.126 0-.291.014l-.019-.017q.012-.211.019-.358-.13.101-.298.271-.064.064-.184.107-.12.043-.273.043-.232 0-.362-.072-.128-.074-.182-.203-.054-.13-.054-.446l.002-.163v-.403q0-.083-.008-.225-.008-.143-.014-.176-.004-.033-.031-.048-.027-.017-.107-.017l-.174-.002-.019-.017v-.089l.017-.017q.395-.048.666-.155zm.494-.13zm.021 2.224z"/><path id="O" d="M48.526 33.736v-.054l.014-.021q.194-.072.314-.134 0-.54-.012-.628.213-.074.349-.159l.05.041q-.021.13-.05.757.103.002.223.002.244 0 .349-.012l.014.014-.039.174-.017.019q-.105-.002-.234-.002-.116 0-.298.002l-.012.841q0 .291.012.382.014.089.074.141.062.05.182.05.138 0 .256-.072l.05.074q-.05.035-.238.207-.107.05-.219.05-.465 0-.465-.451 0-.165.008-.281.002-.035.002-.072v-.858h-.085q-.093 0-.213.008z"/><path id="P" d="M50.577 33.364l.039.025q-.021.236-.023.418.281-.256.391-.339.112-.083.382-.083.169 0 .308.048.138.045.256.153.118.105.186.267.068.159.068.37 0 .149-.048.302-.048.153-.126.283-.076.13-.124.174-.045.041-.19.126-.13.079-.258.169-.089.064-.124.083-.035.019-.118.037-.083.019-.176.019-.215 0-.428-.11v.44q0 .045.008.291.008.248.017.289.01.041.029.06.019.019.045.023.027.006.223.019l.019.017v.087l-.017.019q-.258-.017-.496-.017-.238 0-.496.017l-.019-.019v-.087l.019-.017q.198-.012.225-.019.027-.006.045-.027.021-.019.027-.062.008-.043.017-.277.01-.234.01-.351v-1.583q0-.107-.01-.248-.008-.143-.014-.165-.006-.023-.031-.037-.023-.014-.105-.014l-.174-.002-.019-.017v-.089l.017-.017q.395-.048.664-.155zm.017 1.585q.095.097.236.169.141.07.31.07.201 0 .353-.101.155-.101.24-.296.085-.196.085-.434 0-.192-.076-.358-.074-.165-.234-.26-.157-.095-.335-.095-.11 0-.213.039-.103.037-.194.112-.089.074-.128.143-.039.066-.041.112-.002.043-.002.097z"/><path id="Q" d="M56.503 34.751h.089l.019.019q.004.174.021.298.064.097.221.159.157.06.31.06.219 0 .349-.118.132-.118.132-.281 0-.089-.048-.153-.048-.066-.145-.107-.095-.043-.343-.101-.213-.05-.298-.076-.085-.029-.163-.095-.079-.066-.12-.161-.041-.097-.041-.213 0-.277.219-.442.221-.167.55-.167.138 0 .302.039.163.037.248.072l.019.029q-.017.083-.021.434l-.019.019h-.083l-.019-.019q-.008-.126-.023-.176-.014-.052-.074-.11-.06-.06-.169-.099-.11-.041-.232-.041-.126 0-.213.037-.085.037-.138.114-.052.074-.052.182 0 .079.031.141.033.062.099.101.066.037.138.054l.225.058q.289.07.413.122.126.052.194.157.068.103.068.252 0 .285-.236.49-.236.205-.606.205-.13 0-.325-.029-.192-.029-.329-.064l-.01-.027.021-.138q.01-.064.012-.128.002-.066.004-.275z"/><path id="R" d="M252.024 466.348h1.641v1.986h-1.641z"/><path id="S" d="M26.324 179.841l.017-.014q.358.017.488.017l.967-.021q.413 0 .678.079.265.076.469.269.207.19.312.444.107.252.107.54 0 .279-.097.552-.097.273-.277.49-.178.215-.407.347-.227.132-.457.178-.229.043-.469.043-.161 0-.608-.012-.147-.004-.194-.004-.143 0-.345.017l-.017-.017v-.068l.017-.021q.122-.062.138-.076.019-.017.029-.362.012-.347.012-.529v-.759l-.002-.469q0-.153-.004-.248-.004-.097-.014-.138-.01-.041-.025-.058-.012-.017-.043-.027-.029-.012-.101-.021l-.157-.012-.017-.014zm.765 2.698q.211.041.486.041.482 0 .769-.161.289-.161.432-.477.143-.316.143-.713 0-.585-.312-.907-.312-.322-.984-.322-.277 0-.533.041-.017.339-.017.765v.649l.004.608q0 .178.012.477z"/><path id="T" d="M39.872 181.801q0-.246.101-.473.101-.229.351-.395.252-.167.597-.167.434 0 .707.275.273.273.273.703 0 .473-.314.779-.312.306-.754.306-.289 0-.517-.155-.227-.157-.337-.382-.107-.225-.107-.49zm.391-.143q0 .289.074.519.074.227.236.366.161.138.368.138.244 0 .403-.192.159-.194.159-.583 0-.44-.174-.721-.172-.281-.496-.281-.269 0-.42.194-.151.194-.151.56zm.626-1.011zm-.031 2.224z"/><path id="U" d="M42.807 180.777l.039.027q-.012.136-.017.327l.196-.18q.083-.076.11-.097.027-.023.126-.052.099-.029.209-.029.207 0 .362.103.155.101.229.281.279-.265.325-.294.048-.029.149-.058.101-.031.203-.031.163 0 .3.07.136.07.217.184.081.114.093.246.014.132.014.364v.217q0 .035.012.515.004.196.043.234.039.037.254.037l.017.017v.089l-.017.017q-.263-.017-.356-.017-.052 0-.3.017l-.027-.023q.027-.269.027-.701v-.248q0-.329-.031-.459-.031-.132-.145-.215-.114-.085-.271-.085-.112 0-.209.045-.097.043-.176.132-.076.087-.085.163-.008.074-.008.277v.258q0 .091.008.341.008.25.017.291.01.041.029.06.021.017.045.023.027.004.223.017l.019.017v.087l-.017.019q-.258-.017-.498-.017-.221 0-.496.017l-.019-.019v-.087l.019-.017q.201-.012.225-.019.027-.006.045-.025.021-.021.027-.06.008-.041.017-.267.01-.227.01-.343v-.236q0-.234-.033-.36-.031-.126-.136-.213-.105-.087-.265-.087-.124 0-.227.05-.101.048-.167.12-.064.07-.081.132-.014.062-.014.269v.306q0 .091.008.341.008.25.017.291.01.041.029.06.021.017.045.023.027.004.223.017l.019.017v.087l-.017.019q-.258-.017-.498-.017-.238 0-.496.017l-.019-.019v-.087l.019-.017q.201-.012.225-.019.027-.006.045-.025.021-.021.027-.06.008-.041.017-.267.01-.227.01-.343v-.407q0-.083-.008-.225-.008-.143-.014-.176-.004-.033-.031-.048-.027-.017-.107-.017l-.174-.002-.019-.017v-.089l.017-.017q.395-.048.666-.155z"/><path id="V" d="M48.495 179.853q.097 0 .165.068.068.068.068.165 0 .095-.068.163-.068.068-.165.068-.095 0-.165-.066-.068-.068-.068-.165 0-.097.068-.165.07-.068.165-.068zm.176.924l.039.027q-.023.271-.023.688v.467q0 .045.008.294.008.246.017.287.01.041.029.06.019.019.045.025.027.004.223.017l.019.017v.087l-.017.019q-.258-.017-.498-.017-.238 0-.496.017l-.019-.019v-.087l.019-.017q.201-.012.225-.019.027-.006.045-.025.021-.021.027-.06.008-.041.017-.267.01-.227.01-.343v-.407q0-.083-.008-.225-.008-.143-.014-.176-.004-.033-.031-.048-.027-.017-.107-.017l-.174-.002-.019-.017v-.089l.017-.017q.395-.048.666-.155zm-.161 2.094z"/><path id="W" d="M25.842 189.249l.045.033q-.067.281-.281 1.313-.153.737-.174.88-.003.031-.003.055 0 .036.017.057.017.021.038.021.057 0 .246-.143l.05-.036.017.005.019.045-.005.021q-.417.336-.562.336-.052 0-.079-.04-.026-.038-.026-.105 0-.072.022-.183.022-.112.152-.696.122-.556.171-.83l.06-.345q.012-.069.012-.107 0-.04-.028-.055-.026-.016-.093-.016l-.145-.002-.014-.014.005-.043.014-.016q.324-.052.541-.136z"/><path id="X" d="M26.059 191.303q0-.329.112-.599.112-.27.341-.429.231-.16.45-.16.2 0 .336.122.136.121.136.415 0 .289-.129.586-.127.296-.351.448-.224.152-.439.152-.143 0-.25-.065-.107-.067-.157-.181-.048-.115-.048-.288zm.276-.024q0 .148.029.236.029.086.103.14.074.052.183.052.114 0 .2-.06.086-.06.164-.224.078-.164.112-.365.036-.203.036-.374 0-.157-.036-.251-.036-.095-.107-.143-.071-.048-.171-.048-.265 0-.389.319-.124.317-.124.72zm.548-1.268zm-.319 1.96z"/><path id="Y" d="M28.806 191.411l.019.048-.005.021q-.208.174-.384.269-.174.093-.334.093-.212 0-.32-.131-.109-.133-.109-.391 0-.158.038-.336.038-.179.102-.312.064-.133.133-.21.071-.078.21-.165.188-.117.291-.153.103-.036.198-.036.169 0 .291.084l.005.022q-.05.205-.076.415l-.014.014h-.053l-.014-.014v-.115q.002-.034.002-.059 0-.057-.021-.088-.021-.031-.096-.057-.076-.026-.171-.026-.181 0-.289.095-.107.093-.193.376-.084.281-.084.496 0 .215.084.314.084.096.217.096.109 0 .227-.05.119-.05.329-.205z"/><path id="Z" d="M30.594 191.743q.06-.272.071-.438l.014-.014h.059l.014.014v.277q.155.133.339.133.083 0 .16-.028.078-.028.129-.074.052-.048.083-.126.031-.079.031-.16 0-.055-.022-.107-.021-.052-.072-.083-.05-.033-.203-.06-.155-.028-.219-.045-.064-.019-.124-.064-.06-.045-.096-.117-.034-.072-.034-.157 0-.115.053-.208.055-.095.162-.177.107-.083.22-.138.115-.055.253-.055.203 0 .343.083l.007.019q-.029.1-.038.181l-.021.193-.014.014h-.053l-.016-.014q0-.102-.005-.198-.121-.133-.326-.133-.162 0-.26.095-.098.093-.098.224 0 .107.065.169.065.062.248.09.164.024.233.041.069.017.127.059.059.04.091.105.034.064.034.145 0 .096-.038.189-.036.091-.105.169-.067.078-.193.162-.126.083-.222.114-.096.031-.205.031-.174 0-.365-.091z"/><path id="a" d="M36.242 191.835l-.031-.024q.121-.394.202-.823.081-.431.081-.553 0-.078-.041-.078-.052 0-.286.155l-.021-.005-.017-.038.005-.026q.153-.122.322-.224.171-.102.25-.102.069 0 .069.086 0 .1-.126.667.16-.281.314-.474.153-.195.22-.238.069-.045.136-.045.031 0 .062.014l.007.019q-.026.095-.059.367l-.048.01q-.05-.069-.115-.069-.048 0-.117.04-.067.04-.167.16-.1.121-.174.274-.072.152-.117.332-.045.181-.114.513-.174.04-.234.06z"/><path id="b" d="M40.054 189.249l.043.033q-.081.341-.184.835l-.203.972q-.048.248-.06.351-.003.033-.003.067 0 .083.048.083.065 0 .274-.165l.019.005.017.04-.005.022q-.16.14-.315.239-.155.098-.22.098-.036 0-.06-.04-.022-.038-.022-.115 0-.064.024-.191.026-.129.093-.41l-.009-.002q-.186.314-.444.536-.257.222-.401.222-.052 0-.088-.036-.036-.036-.059-.133-.022-.096-.022-.203 0-.146.048-.374.048-.227.122-.393.074-.167.146-.251.074-.084.196-.167.122-.083.21-.119.09-.036.183-.036.1 0 .289.043l.09-.522q.014-.065.014-.11 0-.038-.028-.053-.026-.016-.095-.016l-.145-.002-.014-.014.005-.043.014-.016q.322-.052.543-.136zm-.417 1.109q-.162-.084-.334-.084-.107 0-.174.024-.065.022-.1.057-.033.034-.088.15-.053.114-.105.281-.052.165-.081.327-.028.16-.028.31 0 .093.019.129.019.036.059.036.065 0 .186-.076.183-.117.327-.314.145-.196.217-.419.033-.102.102-.422z"/><path id="c" d="M54.747 191.733q-.078-.081-.078-.121 0-.041.052-.109.053-.069.184-.183-.05.003-.081.003-.205 0-.326-.107-.121-.109-.121-.322 0-.15.059-.298.059-.15.158-.243.102-.095.243-.164.143-.069.31-.069.296 0 .412.193.2-.003.298-.022l.007.009-.028.172q-.047-.003-.09-.003-.06 0-.138.007.007.055.007.1 0 .245-.16.443-.158.196-.429.27-.096.091-.096.155 0 .065.05.124.052.057.308.269.148.121.193.212.047.091.047.174 0 .222-.245.381-.245.158-.613.158-.3 0-.458-.114-.157-.114-.157-.305 0-.112.062-.222.062-.11.231-.217.169-.107.398-.172zm-.119-.903q0 .177.083.279.084.1.243.1.207 0 .307-.188.1-.188.1-.425 0-.117-.034-.196-.034-.079-.107-.124-.071-.045-.174-.045-.2 0-.308.177-.109.177-.109.422zm.174.965q-.146.036-.277.119-.131.083-.188.181-.055.098-.055.205 0 .172.134.269.136.098.351.098.148 0 .269-.041.122-.041.191-.122.069-.079.069-.174 0-.06-.029-.122-.029-.062-.074-.105-.045-.041-.15-.121z"/><path id="d" d="M56.492 189.539q0-.091.057-.16.059-.071.141-.071.059 0 .095.036.036.036.036.103 0 .093-.053.167-.053.072-.134.072-.06 0-.102-.041-.04-.041-.04-.107zm-.45.961l-.017-.04.005-.022q.234-.169.36-.236.127-.069.2-.069.071 0 .071.102 0 .047-.019.133-.017.084-.086.343-.188.696-.188.823 0 .069.048.069.074 0 .269-.146l.017.005.019.045-.003.021q-.121.093-.248.179-.127.086-.183.109-.053.024-.09.024-.052 0-.081-.045-.029-.045-.029-.105 0-.078.021-.165.022-.09.053-.198.112-.4.158-.624.048-.224.048-.274 0-.059-.04-.059-.026 0-.05.014-.024.012-.217.124zm.183 1.471z"/><path id="e" d="M59.188 191.401l.019.04-.005.021q-.067.059-.234.179-.165.119-.239.158-.072.041-.126.041-.05 0-.081-.047-.029-.047-.029-.133 0-.102.059-.363.067-.303.172-.863l-.281.007-.012-.014.005-.029.014-.014q.184-.065.296-.126.033-.152.09-.594.184-.078.27-.124l.041.031-.067.264q-.012.05-.091.444.078.005.126.005.171 0 .241-.024l.017.014-.04.169q-.064 0-.376-.009-.191.918-.191 1.082 0 .079.065.079.033 0 .086-.028.055-.029.189-.127l.06-.047z"/><path id="f" d="M39.594 129.649l.017-.017h.101l.017.017q.01.265.027.325.019.058.112.124.095.064.25.105.157.041.316.041.219 0 .393-.081.176-.081.273-.236.097-.157.097-.351 0-.136-.048-.238-.045-.101-.13-.161-.083-.062-.19-.091-.107-.031-.32-.066-.207-.033-.325-.06-.116-.027-.232-.083-.116-.056-.194-.141-.076-.087-.124-.211-.045-.126-.045-.269 0-.387.269-.633.269-.248.721-.248.18 0 .391.045.213.043.387.13l.014.025q-.045.19-.056.542l-.019.017h-.107l-.017-.014q-.004-.248-.012-.312-.008-.064-.188-.159-.18-.095-.391-.095-.176 0-.329.07-.153.07-.232.221-.079.151-.079.308 0 .122.048.217.048.093.122.149.076.054.176.081.101.027.368.066.366.052.531.126.167.072.267.232.101.159.101.384 0 .44-.36.734-.358.294-.868.294-.428 0-.75-.153l-.012-.027q.021-.13.031-.608z"/><path id="g" d="M48.022 130.138l-.083.138q-.267.147-.595.147-.455 0-.703-.271-.248-.271-.248-.699 0-.194.041-.345.043-.153.107-.252.066-.099.145-.157.079-.058.265-.161.188-.103.283-.134.095-.033.263-.033.32 0 .525.122-.039.234-.06.521l-.019.017h-.085l-.019-.019q-.008-.174-.023-.234-.014-.06-.165-.128-.149-.068-.318-.068-.169 0-.302.072-.132.07-.201.234-.066.161-.066.387 0 .19.054.372.054.18.141.3.089.118.234.19.145.072.322.072.112 0 .217-.029.107-.029.246-.095z"/><path id="h" d="M59.45 127.557v-.087l.017-.019q.395-.045.666-.153l.039.025q-.023.238-.023.953v1.354q0 .209.006.366.008.155.027.184.019.029.06.048.043.019.242.035l.019.017v.079l-.019.019q-.223-.014-.347-.014-.112 0-.318.014l-.023-.023q.006-.203.006-.283 0-.01.002-.079-.114.083-.227.184-.167.149-.219.186-.095.048-.271.048-.285 0-.486-.141-.198-.141-.283-.358-.085-.219-.085-.449 0-.234.087-.449.089-.217.25-.316.163-.099.353-.205.192-.107.38-.107.263 0 .5.13l-.008-.461q-.004-.24-.012-.333-.008-.095-.021-.112-.012-.019-.043-.027-.029-.008-.25-.008zm.353 1.313q-.128-.145-.285-.221-.155-.076-.312-.076-.174 0-.325.095-.149.093-.215.279-.066.184-.066.401 0 .362.182.581.184.219.461.219.151 0 .267-.068.118-.07.192-.188.076-.118.089-.236.012-.118.012-.432z"/><path id="i" d="M36.665 138.797H63.48a2.4 2.4 0 0 1 2.405 2.405v1.691a2.4 2.4 0 0 1-2.405 2.405H36.665a2.4 2.4 0 0 1-2.405-2.405v-1.691a2.4 2.4 0 0 1 2.405-2.405z"/><path id="j" d="M42.254 143.188l-.012-.014.007-.076.014-.012q.207-.016.243-.029.038-.016.05-.033.014-.017.029-.071.016-.055.088-.417.072-.362.148-.822.076-.462.114-.81-.568 0-.643.028-.072.028-.145.372l-.016.014h-.069l-.014-.014q.053-.438.057-.548l.017-.017.126.009q.028.002.117.003l.72.014.866-.016q.016 0 .117-.01l.016.017q-.045.169-.09.546l-.017.016h-.069l-.014-.016q.002-.029.005-.21-.002-.114-.029-.15-.028-.038-.643-.038-.017.074-.074.396l-.114.639q-.021.115-.088.537-.065.422-.065.506 0 .047.034.069.034.022.288.031l.014.016-.007.074-.016.014q-.289-.014-.467-.014-.258 0-.481.014z"/><path id="k" d="M46.754 142.836l.012.047-.007.021q-.362.312-.493.312-.086 0-.086-.11 0-.053.01-.134.012-.083.034-.181l.043-.184.026-.102-.01-.005q-.257.365-.481.548-.222.183-.312.183-.121 0-.121-.295 0-.184.055-.419.057-.234.138-.434.081-.2.129-.262.05-.064.164-.145.115-.081.215-.124.1-.043.222-.043.15 0 .319.062l.11-.065.038.031q-.005.026-.072.258l-.079.293-.043.171q-.047.183-.086.382-.04.198-.04.27 0 .069.047.069.029 0 .078-.026.048-.026.174-.122zm-.291-1.097q-.131-.06-.282-.06-.126 0-.224.047-.036.028-.074.098-.038.069-.107.26-.069.189-.112.407-.043.215-.043.343 0 .095.016.122.017.028.05.028.062 0 .243-.167.181-.167.305-.388.126-.22.207-.589zm-.162-.338zm-.319 1.96z"/><path id="l" d="M47.074 143.217l-.022-.029q.112-.343.198-.791.088-.448.088-.568 0-.067-.047-.067-.064 0-.265.136l-.021-.005-.016-.038.005-.026q.069-.052.164-.117.096-.065.189-.115.093-.052.127-.062.036-.012.064-.012.048 0 .065.034.019.033.019.069 0 .078-.057.307-.017.064-.093.377l.012.003q.127-.208.314-.4.186-.191.384-.291.198-.1.291-.1.052 0 .078.033.026.031.026.081 0 .119-.119.579-.16.613-.16.722 0 .064.047.064.057 0 .289-.165l.019.005.019.045-.005.021q-.107.086-.245.177-.138.09-.2.117-.062.028-.103.028-.053 0-.079-.038-.024-.036-.024-.091 0-.06.028-.188.028-.129.115-.472.126-.484.126-.594 0-.091-.065-.091-.047 0-.109.029-.11.052-.238.169-.127.115-.234.272-.105.155-.165.31-.059.153-.103.348-.007.024-.053.281-.119.019-.243.055z"/><path id="m" d="M37.406 151.196q.06-.227.084-.503l.017-.016h.072l.012.014.007.331q.127.102.243.131.117.028.22.028.308 0 .462-.176.153-.177.153-.403 0-.115-.047-.196-.047-.081-.124-.121-.076-.04-.282-.086-.238-.053-.351-.112-.114-.059-.176-.174-.062-.117-.062-.284 0-.245.136-.432.136-.189.345-.289.208-.102.465-.102.251 0 .431.107l.007.021q-.041.169-.078.45l-.014.014h-.076l-.014-.014v-.253q-.134-.158-.4-.158-.157 0-.284.067-.126.065-.196.193-.071.126-.071.276 0 .133.052.222.053.088.145.129.093.041.315.093.183.041.258.069.078.028.148.091.072.062.11.152.038.088.038.207 0 .248-.152.446-.15.198-.362.317-.21.117-.503.117-.281 0-.524-.133z"/><path id="n" d="M44.266 150.907l.019.043-.003.022q-.424.358-.718.358-.096 0-.196-.053-.1-.052-.15-.15-.048-.098-.048-.251 0-.215.071-.458.072-.245.143-.36.072-.117.215-.219.143-.103.27-.165.129-.064.25-.064.131 0 .214.069.083.069.083.191 0 .14-.079.258-.079.117-.289.222-.21.105-.503.172l-.081.019q-.034.165-.034.276 0 .155.069.246.069.091.193.091.233 0 .558-.255zm-.792-.45q.181-.033.343-.102.164-.071.25-.186.088-.117.088-.238 0-.093-.047-.138-.047-.045-.112-.045-.072 0-.171.041-.096.041-.172.152-.074.11-.179.515zm.47-.954zm-.319 1.96z"/><path id="o" d="M47.477 150.917l.017.05-.052.126q-.357.255-.827.255-.345 0-.584-.129-.238-.131-.353-.367-.114-.238-.114-.562 0-.27.072-.503.074-.233.207-.405.134-.172.319-.305.186-.133.374-.203.189-.071.438-.071.389 0 .711.134l.007.019q-.052.15-.086.484l-.014.014h-.072l-.014-.014q0-.227-.005-.269-.215-.186-.62-.186-.162 0-.315.04-.152.04-.27.131-.117.09-.21.245-.091.155-.15.362-.059.205-.059.458 0 .469.229.705.231.236.622.236.382 0 .749-.245z"/><path id="p" d="M49.463 151.31l-.026-.029.1-.358q.052-.189.098-.413.048-.226.067-.37.021-.146.021-.198 0-.09-.05-.09-.024 0-.072.024-.047.024-.177.109l-.021-.007-.017-.038.005-.026q.408-.298.541-.298.076 0 .076.086 0 .033-.01.096-.009.062-.107.522.238-.338.489-.518.251-.183.41-.183.084 0 .084.078 0 .072-.017.171-.017.098-.102.458.246-.343.525-.525.281-.183.436-.183.084 0 .084.086 0 .117-.171.749-.131.481-.131.582 0 .071.05.071.028 0 .074-.022.048-.022.2-.131l.017.007.019.043-.005.022q-.078.062-.214.155-.134.091-.203.121-.069.031-.114.031-.05 0-.079-.038-.029-.036-.029-.095 0-.05.007-.09.009-.041.05-.191.062-.22.143-.568.083-.348.083-.446 0-.031-.017-.045-.017-.016-.038-.016-.045 0-.148.055-.102.055-.236.188-.134.133-.22.267-.084.134-.143.336-.059.202-.124.579-.079.012-.239.048l-.026-.021q.136-.489.21-.863.074-.376.074-.51 0-.074-.05-.074-.05 0-.148.055-.098.053-.241.207-.141.153-.229.334-.086.181-.141.436-.055.255-.079.384-.134.021-.238.047z"/><path id="q" d="M52.025 152.255l-.021-.021.052-.236q.05-.226.152-.775l.131-.722q.028-.172.045-.317l.022-.203q.007-.059.007-.079 0-.059-.047-.059-.022 0-.072.026-.048.024-.219.134l-.022-.007-.016-.038.005-.026q.167-.136.329-.229.164-.093.245-.093.079 0 .079.081 0 .095-.095.568.195-.322.434-.484.239-.164.41-.164.078 0 .115.043.04.041.065.14.026.096.026.212 0 .158-.057.363-.055.203-.129.35-.074.145-.172.248-.098.102-.236.186-.136.083-.236.127-.1.045-.164.045-.047 0-.088-.01-.041-.009-.141-.04l-.145.922q-.188.026-.258.057zm.438-1.173q.146.083.295.083.127 0 .222-.059.095-.059.196-.264.103-.205.157-.417.053-.214.053-.374 0-.141-.028-.191-.028-.05-.093-.05-.086 0-.193.053-.107.053-.231.191-.122.136-.212.329-.059.127-.103.331z"/><path id="r" d="M34.614 55.047l.017.037q-.085.13-.105.169h-.384q.058.114.058.238 0 .147-.068.285-.066.138-.186.236-.12.097-.273.155-.151.058-.345.058h-.095q-.122.097-.157.145-.035.048-.035.097 0 .091.083.128.085.037.347.037l.463-.006q.219 0 .335.052.118.052.19.186.072.132.072.281 0 .227-.149.453-.147.227-.426.345-.279.118-.595.118-.18 0-.339-.039-.157-.039-.277-.12-.118-.079-.19-.207-.072-.128-.072-.267 0-.076.023-.161.023-.083.087-.18l.374-.209q-.18-.056-.227-.11-.045-.056-.045-.132 0-.079.052-.186l.333-.24q-.294-.076-.397-.229-.101-.153-.101-.335 0-.167.072-.318.072-.153.217-.244.147-.091.327-.143.182-.054.331-.054.258 0 .492.167.374 0 .597-.008zm-1.681.48q0 .126.05.271.05.145.159.219.112.074.25.074.184 0 .316-.12.134-.12.134-.374 0-.215-.122-.387-.122-.172-.345-.172-.188 0-.316.124-.126.122-.126.364zm.606 1.387q-.333 0-.384.008-.05.008-.143.07-.093.062-.153.167-.058.107-.058.24 0 .234.174.38.174.147.463.147.217 0 .401-.091.184-.091.271-.244.089-.153.089-.294 0-.141-.074-.242-.072-.099-.19-.122-.116-.021-.395-.021z"/><path id="s" d="M15.67 62.182l-.019-.017v-.107l.019-.017q.151-.002.194-.014.043-.014.076-.054.035-.041.138-.265l.217-.471.562-1.273q.159-.374.316-.748h.134l.883 2.075.118.277q.052.118.118.256.068.138.093.163.027.025.064.039.039.012.172.014l.017.017v.107l-.017.017q-.219-.019-.395-.019-.343.01-.686.019l-.017-.017v-.107l.017-.017q.232-.004.289-.019.058-.017.058-.072 0-.045-.029-.12l-.254-.63h-1.197l-.225.529q-.06.143-.06.209 0 .052.056.076.056.025.281.027l.019.017v.107l-.017.017q-.267-.017-.467-.017-.227 0-.459.017zm.943-1.16h1.046l-.519-1.246zm.626-1.931zm-.048 3.198z"/><path id="t" d="M13.356 69.476h26.815a2.4 2.4 0 0 1 2.405 2.405v1.691a2.4 2.4 0 0 1-2.405 2.405H13.356a2.4 2.4 0 0 1-2.405-2.405v-1.691a2.4 2.4 0 0 1 2.405-2.405z"/><path id="u" d="M32.842 71.319l.043.033q-.072.307-.334 1.555l.012.007q.319-.419.568-.565.251-.148.384-.148.043 0 .069.031.026.029.026.072 0 .062-.053.276-.069.269-.15.617-.079.348-.079.417 0 .029.014.043.016.012.029.012.038 0 .109-.047.072-.047.183-.127l.017.005.021.045-.003.019q-.143.117-.322.231-.177.112-.234.112-.038 0-.062-.04-.022-.04-.022-.105 0-.045.005-.071.005-.028.059-.258l.098-.427q.102-.417.102-.508 0-.062-.069-.062-.047 0-.095.022-.105.052-.26.186-.121.107-.226.257-.105.15-.164.301-.045.121-.083.3l-.064.341q-.21.043-.239.057l-.022-.024q.26-.987.393-1.816l.057-.351q.014-.064.014-.109 0-.036-.024-.053-.022-.017-.098-.017l-.145-.002-.014-.014.007-.043.012-.016q.324-.052.543-.136z"/><path id="v" d="M31.176 79.421l.045.033-.121.549-.176.827q.227-.301.432-.424.207-.124.36-.124.074 0 .117.038.043.038.064.126.021.086.021.21 0 .248-.083.484-.083.236-.179.377-.095.141-.212.243-.115.102-.265.176-.15.074-.288.074-.146 0-.25-.081-.102-.083-.102-.212 0-.081.06-.393l.121-.62q.034-.188.072-.401l.067-.374q.029-.162.031-.184.003-.024.003-.043 0-.04-.028-.055-.026-.016-.095-.016l-.145-.002-.012-.014.005-.043.014-.016q.32-.052.541-.136zm-.384 2.177q0 .109.06.188.06.078.202.078.193 0 .319-.174.127-.174.21-.448.084-.274.084-.46 0-.188-.034-.238-.033-.05-.107-.05-.114 0-.241.078-.126.078-.251.25-.124.172-.183.425-.059.251-.059.351z"/><path id="w" d="M13.579 67.288q-.169-.231-.3-.556-.131-.326-.131-.71 0-.501.257-.922.258-.42.629-.732h.021l.055.059v.019q-.379.405-.546.815-.165.408-.165.937 0 .219.031.398.031.179.083.327.052.146.14.315l-.005.019-.048.034z"/><path id="x" d="M15.135 64.658l-.207 1.123-.124.734q-.024.148-.024.198 0 .093.122.115.005.002.195.012l.012.014-.01.074-.016.014q-.184-.014-.456-.014-.215 0-.425.014l-.012-.014.005-.074.017-.014q.207-.003.234-.053.029-.05.121-.543l.112-.612.102-.596q.047-.272.047-.357 0-.029-.031-.055-.031-.026-.246-.029l-.012-.014.009-.074.016-.014q.134.014.412.014l.572-.012q.338 0 .489.131.153.129.153.338 0 .253-.188.45-.188.196-.543.274.028.04.093.146.112.184.357.546.245.36.31.41.067.05.155.05l.01.014-.005.074-.014.014q-.145-.01-.212-.01-.009 0-.234.01-.005-.005-.14-.231l-.109-.183q-.052-.088-.148-.233l-.343-.517-.1-.136.017-.041.143.007q.298 0 .47-.179.174-.181.174-.408 0-.394-.481-.394-.117 0-.267.031z"/><path id="y" d="M37.593 67.579l.171-.115.036.012q-.003.028-.003.048 0 .124.072.186.072.064.155.064.065 0 .133-.034.069-.033.133-.11.065-.078.146-.26.081-.183.146-.394.067-.21.129-.439l.059-.215q-.117.179-.215.288-.098.109-.193.207-.095.098-.157.136-.062.038-.11.038-.072 0-.114-.088-.041-.09-.041-.22 0-.067.024-.276.041-.377.041-.655 0-.143-.016-.186-.014-.045-.05-.045-.04 0-.1.04-.06.04-.152.11l-.022-.007-.019-.041.005-.026q.384-.324.506-.324.052 0 .081.045.031.045.031.169 0 .117-.017.307-.053.586-.053.782 0 .069.014.105.016.036.053.036.026 0 .067-.021.043-.021.136-.112.093-.091.186-.229.093-.14.165-.307.074-.167.115-.319.041-.152.1-.394.117-.017.26-.065l.038.034q-.086.172-.317.959-.117.405-.196.639-.078.233-.184.424-.107.193-.248.334-.141.141-.267.198-.124.059-.238.059-.122 0-.212-.078-.088-.076-.088-.2 0-.026.009-.059zm1.015-2.424zm.439 1.96z"/><path id="z" d="M39.948 64.372q.184.258.307.575.124.317.124.689 0 .498-.255.92-.255.42-.632.736h-.019l-.055-.059v-.019q.367-.389.539-.801.172-.412.172-.951 0-.281-.055-.52-.055-.241-.198-.52l.003-.019.048-.034z"/><path id="AA" d="M47.662 67.081l-.017-.04.005-.024q.052-.04.224-.145.172-.107.239-.136.067-.029.103-.029.036 0 .057.028.021.028.021.064 0 .04-.05.241-.22.904-.22 1.066 0 .076.052.076.065 0 .208-.114.145-.114.31-.326.167-.212.243-.425.076-.214.134-.546.021-.003.236-.055l.026.026q-.002.01-.041.143-.069.222-.138.512-.069.289-.1.463-.031.172-.031.245 0 .081.055.081.029 0 .072-.026.043-.028.195-.141l.019.007.019.04-.003.022q-.303.239-.398.291-.093.053-.143.053-.041 0-.065-.038-.022-.036-.022-.084 0-.107.145-.708l-.01-.005-.127.183q-.065.093-.153.195-.088.1-.207.205-.117.105-.214.165-.096.06-.14.074-.043.016-.067.016-.05 0-.088-.05-.036-.048-.036-.145 0-.133.067-.405.171-.684.171-.83 0-.055-.045-.055-.052 0-.264.138zm.906-.479zm-.319 1.96z"/><path id="AB" d="M59.973 69.476h26.815a2.4 2.4 0 0 1 2.405 2.405v1.691a2.4 2.4 0 0 1-2.405 2.405H59.973a2.4 2.4 0 0 1-2.405-2.405v-1.691a2.4 2.4 0 0 1 2.405-2.405z"/><path id="AC" d="M74.626 72.912l.028.021q-.053.222-.12.543l-.132.631q-.031.161-.039.228-.002.021-.002.044 0 .054.031.054.043 0 .178-.107l.012.003.011.026-.003.015q-.104.091-.205.156-.101.064-.143.064-.024 0-.039-.026-.015-.025-.015-.075 0-.041.016-.124.017-.084.06-.266l-.006-.001q-.121.204-.289.348-.167.144-.261.144-.034 0-.057-.024-.024-.024-.038-.086-.015-.063-.015-.132 0-.095.031-.243.031-.148.079-.255.048-.109.095-.163.048-.055.128-.109.079-.054.137-.077.058-.024.119-.024.065 0 .188.028l.058-.339q.009-.043.009-.072 0-.025-.018-.035-.017-.01-.062-.01l-.094-.001-.009-.009.003-.028.009-.01q.209-.034.353-.088zm-.271.721q-.105-.055-.217-.055-.069 0-.113.016-.043.015-.065.037-.021.022-.057.097-.035.074-.068.183-.034.107-.053.213-.018.104-.018.202 0 .06.012.084.012.024.038.024.043 0 .121-.049.119-.076.213-.204.094-.128.141-.272.021-.066.066-.274z"/><path id="AD" d="M73.047 82.669l-.008-.009.003-.048.011-.009q.134-.002.152-.035.019-.032.078-.353l.073-.397.066-.387q.03-.177.03-.232 0-.019-.02-.036-.02-.017-.16-.019l-.008-.009.006-.048.01-.009q.029 0 .083.002l.218.007.682-.009.011.01q-.028.156-.037.335l-.009.009h-.043l-.009-.009q0-.166-.026-.206-.025-.04-.343-.04-.083 0-.165.007-.026.103-.059.303l-.066.393.253.003q.112 0 .328-.021l.011.012-.047.114q-.302-.012-.368-.012-.097 0-.194.006-.082.471-.082.536-.007.048.021.062.029.012.193.026l.009.009-.006.046-.01.009q-.231-.009-.333-.009-.111 0-.249.009z"/><path id="AE" d="M42.371 9.193l.039.025q-.021.236-.023.418.281-.256.391-.339.112-.083.382-.083.169 0 .308.048.138.045.256.153.118.105.186.267.068.159.068.37 0 .149-.048.302-.048.153-.126.283-.076.13-.124.174-.045.041-.19.126-.13.079-.258.169-.089.064-.124.083-.035.019-.118.037-.083.019-.176.019-.215 0-.428-.11v.44q0 .045.008.291.008.248.017.289.01.041.029.06.019.019.045.023.027.006.223.019l.019.017v.087l-.017.019q-.258-.017-.496-.017-.238 0-.496.017l-.019-.019v-.087l.019-.017q.198-.012.225-.019.027-.006.045-.027.021-.019.027-.062.008-.043.017-.277.01-.234.01-.351V9.937q0-.107-.01-.248-.008-.143-.014-.165-.006-.023-.031-.037-.023-.014-.105-.014l-.174-.002-.019-.017v-.089l.017-.017q.395-.048.664-.155zm.017 1.585q.095.097.236.169.141.07.31.07.201 0 .353-.101.155-.101.24-.296.085-.196.085-.434 0-.192-.076-.358-.074-.165-.234-.26-.157-.095-.335-.095-.11 0-.213.039-.103.037-.194.112-.089.074-.128.143-.039.066-.041.112-.002.043-.002.097z"/><path id="AF" d="M6.322 206.876v-.086l.023-.033q.311-.116.503-.215 0-.863-.02-1.005.341-.119.559-.255l.079.066q-.033.208-.079 1.21.165.003.357.003.39 0 .559-.02l.023.023-.063.278-.026.03q-.169-.003-.374-.003-.185 0-.476.003l-.02 1.346q0 .466.02.612.023.142.119.225.099.079.291.079.222 0 .41-.116l.079.119q-.079.056-.38.331-.172.079-.351.079-.744 0-.744-.721 0-.265.013-.45.003-.056.003-.116v-1.373h-.136q-.149 0-.341.013z"/><path id="AG" d="M9.08 207.23l-.129-.033-.026-.033v-.41q.589-.437 1.144-.437.38 0 .632.142.251.142.364.357.112.212.112.496l-.017.665v.986q0 .202.026.245.03.043.066.06.036.013.136.023l.189.017.026.03v.132l-.026.026q-.241-.02-.45-.02-.198 0-.476.02l-.05-.046.013-.532-.721.562q-.182.076-.397.076-.265 0-.456-.096-.189-.096-.291-.268-.099-.172-.099-.417 0-.486.304-.757.304-.275 1.66-.466 0-.489-.218-.688-.218-.202-.585-.202-.192 0-.351.056-.155.056-.179.093-.023.033-.179.403zm1.535.523q-.926.155-1.154.334-.228.179-.228.552 0 .516.513.516.44 0 .87-.509zm-.562-1.64zm-.069 3.559z"/><path id="AH" d="M12.897 206.321l.063.043q-.02.222-.026.582.265-.218.503-.443.069-.063.129-.093.063-.03.205-.063.142-.033.291-.033.251 0 .486.103.238.103.357.245.122.139.169.331.046.192.046.473v.582q0 .056.017.824.007.314.069.374.063.06.41.06l.026.026v.142l-.026.026q-.42-.026-.569-.026-.086 0-.483.026l-.04-.036q.043-.43.043-1.121v-.433q0-.39-.02-.562-.017-.172-.109-.311-.093-.142-.248-.218-.155-.079-.37-.079-.172 0-.294.036-.122.033-.275.142-.152.106-.225.202-.073.093-.089.175-.013.079-.013.344v.575q0 .073.013.47.013.394.026.46.017.066.046.096.03.03.073.04.043.007.357.026l.03.026v.139l-.026.03q-.413-.026-.797-.026-.38 0-.794.026l-.03-.03v-.139l.03-.026q.321-.02.36-.03.043-.01.073-.04.033-.033.043-.096.013-.066.026-.427.017-.364.017-.549v-.652q0-.132-.013-.361-.013-.228-.023-.281-.007-.053-.05-.076-.043-.026-.172-.026l-.278-.003-.03-.026v-.142l.026-.026q.632-.076 1.065-.248z"/><path id="AI" d="M17.934 204.988v-.139l.026-.03q.632-.073 1.065-.245l.063.04q-.036.38-.036 1.525v2.166q0 .334.01.585.013.248.043.294.03.046.096.076.069.03.387.056l.03.026v.126l-.03.03q-.357-.023-.556-.023-.179 0-.509.023l-.036-.036q.01-.324.01-.453 0-.017.003-.126-.182.132-.364.294-.268.238-.351.298-.152.076-.433.076-.456 0-.777-.225-.318-.225-.453-.572-.136-.351-.136-.718 0-.374.139-.718.142-.347.4-.506.261-.159.566-.327.308-.172.609-.172.42 0 .8.208l-.013-.738q-.007-.384-.02-.532-.013-.152-.033-.179-.02-.03-.069-.043-.046-.013-.4-.013zm.566 2.1q-.205-.232-.456-.354-.248-.122-.499-.122-.278 0-.519.152-.238.149-.344.446-.106.294-.106.642 0 .579.291.929.294.351.738.351.241 0 .427-.109.189-.112.308-.301.122-.189.142-.377.02-.189.02-.691z"/><path id="AJ" d="M24.505 206.321l.063.043q-.02.192-.03.681l.248-.314q.122-.155.215-.238.096-.086.222-.132.126-.046.258-.046.146 0 .275.06l.023.046q-.053.44-.06.774h-.149q-.132-.304-.427-.304-.205 0-.357.132-.152.129-.205.327-.05.195-.05.496v.367q0 .099.013.486.013.387.026.446.017.06.046.089.033.026.083.036.053.01.473.033l.03.026v.139l-.03.03q-.44-.026-.919-.026-.38 0-.794.026l-.03-.03v-.139l.03-.026q.321-.02.36-.03.043-.01.073-.04.033-.033.043-.096.013-.066.026-.427.017-.364.017-.549v-.652q0-.132-.013-.361-.013-.228-.023-.281-.007-.053-.05-.076-.043-.026-.172-.026l-.278-.003-.03-.026v-.142l.026-.026q.632-.076 1.065-.248z"/><path id="AK" d="M49.813 204.842q.155 0 .265.109.109.109.109.265 0 .152-.109.261-.109.109-.265.109-.152 0-.265-.106-.109-.109-.109-.265 0-.155.109-.265.112-.109.265-.109zm.281 1.478l.063.043q-.036.433-.036 1.101v.747q0 .073.013.47.013.394.026.46.017.066.046.096.03.03.073.04.043.007.357.026l.03.026v.139l-.026.03q-.413-.026-.797-.026-.38 0-.794.026l-.03-.03v-.139l.03-.026q.321-.02.36-.03.043-.01.073-.04.033-.033.043-.096.013-.066.026-.427.017-.364.017-.549v-.652q0-.132-.013-.361-.013-.228-.023-.281-.007-.053-.05-.076-.043-.026-.172-.026l-.278-.003-.03-.026v-.142l.026-.026q.632-.076 1.065-.248zm-.258 3.35z"/><path id="AL" d="M70.807 209.119l-.132.222q-.427.235-.953.235-.728 0-1.124-.433-.397-.433-.397-1.118 0-.311.066-.552.069-.245.172-.404.106-.159.232-.251.126-.093.423-.258.301-.165.453-.215.152-.053.42-.053.513 0 .84.195-.063.374-.096.833l-.03.026h-.136l-.03-.03q-.013-.278-.036-.374-.023-.096-.265-.205-.238-.109-.509-.109-.271 0-.483.116-.212.112-.321.374-.106.258-.106.618 0 .304.086.595.086.288.225.48.142.189.374.304.232.116.516.116.179 0 .347-.046.172-.046.394-.152z"/></defs><path d="M38.853 23.688h22.89a2.4 2.4 0 0 1 2.405 2.405v10.332a2.4 2.4 0 0 1-2.405 2.405h-22.89a2.4 2.4 0 0 1-2.405-2.405V26.093a2.4 2.4 0 0 1 2.405-2.405z" fill="#e5ffd5" class="B C"/><use xlink:href="#H"/><use xlink:href="#I"/><use xlink:href="#J"/><use xlink:href="#K"/><use xlink:href="#K" x="2.464"/><use xlink:href="#L"/><use xlink:href="#M"/><path d="M42.643 33.934q0-.31.089-.579.089-.269.302-.496.215-.229.517-.353.302-.126.682-.126.705 0 1.122.384.418.382.418 1.046 0 .467-.205.839-.205.372-.587.579-.38.207-.856.207-.337 0-.62-.112-.283-.114-.484-.337-.198-.223-.289-.517-.089-.294-.089-.535zm.43-.136q0 .252.081.544.083.289.244.498.163.207.374.308.213.101.484.101.32 0 .571-.147.25-.147.38-.455.13-.31.13-.695 0-.418-.149-.754-.149-.337-.424-.49-.275-.153-.61-.153-.502 0-.792.314-.289.314-.289.928zm1.104-1.513zm.01 3.198z"/><use xlink:href="#N"/><use xlink:href="#O"/><use xlink:href="#P"/><use xlink:href="#N" x="6.483"/><use xlink:href="#O" x="6.483"/><use xlink:href="#Q"/><g class="B C"><path d="M10.984 50.426h31.559a2.4 2.4 0 0 1 2.405 2.405v34.831a2.4 2.4 0 0 1-2.405 2.405H10.984a2.4 2.4 0 0 1-2.405-2.405v-34.83a2.4 2.4 0 0 1 2.405-2.405zm46.617 0H89.16a2.4 2.4 0 0 1 2.405 2.405v34.831a2.4 2.4 0 0 1-2.405 2.405H57.601a2.4 2.4 0 0 1-2.405-2.405v-34.83a2.4 2.4 0 0 1 2.405-2.405z" fill="#c3f0ff"/><path d="M34.481 99.639h31.182a2.4 2.4 0 0 1 2.405 2.405v10.332a2.4 2.4 0 0 1-2.405 2.405H34.481a2.4 2.4 0 0 1-2.405-2.405v-10.332a2.4 2.4 0 0 1 2.405-2.405z" fill="#fff6d5"/><path d="M19.733 176.996H80.41a2.4 2.4 0 0 1 2.405 2.405v16.833a2.4 2.4 0 0 1-2.405 2.405H19.733a2.4 2.4 0 0 1-2.405-2.405v-16.833a2.4 2.4 0 0 1 2.405-2.405z" fill="#ffd5f6"/></g><g transform="matrix(-.264583 0 0 -.264583 144.4186 314.20229)"><use xlink:href="#R"/><use xlink:href="#R" x="8.021"/><use xlink:href="#R" x="16.042"/></g><use xlink:href="#H" x="-19.412" y="152.681"/><use xlink:href="#S"/><use xlink:href="#S" x="3.274"/><path d="M32.887 179.841l.017-.014q.513.017.591.017.07 0 .593-.017l.017.014v.103l-.017.014q-.143.004-.221.012-.076.008-.112.031-.035.023-.048.107-.01.083-.01.232l-.004.475v.914q0 .343.004.48l.01.358h.422q.504 0 .628-.012.126-.012.242-.06.023-.052.064-.238.043-.186.045-.215l.019-.017h.101l.014.017q-.017.083-.035.32-.017.238-.017.384l-.017.017q-.393-.012-1.031-.012l-.604-.004q-.207 0-.422.017l-.017-.017v-.068l.017-.021q.128-.066.141-.081.012-.014.025-.267.014-.252.014-.608v-.887l-.004-.403q-.002-.236-.012-.304-.008-.068-.029-.091-.019-.023-.074-.037-.056-.014-.275-.023l-.017-.014z"/><use xlink:href="#S" x="10.195"/><use xlink:href="#T"/><use xlink:href="#U"/><use xlink:href="#J" x="-0.99" y="152.68"/><use xlink:href="#V"/><use xlink:href="#K" x="0.242" y="152.68"/><use xlink:href="#Q" x="-4.698" y="147.389"/><path d="M57.615 182.541q-.167.118-.347.267-.066.014-.145.014-.184 0-.37-.076-.186-.076-.395-.248-.273.203-.459.265-.186.062-.397.062-.42 0-.643-.25-.221-.252-.221-.577 0-.554.649-.903-.124-.298-.124-.54 0-.099.027-.188.029-.091.064-.141.035-.05.122-.124.087-.076.167-.143.081-.068.153-.095.074-.029.159-.029.19 0 .285.11.097.107.097.279 0 .432-.602.841.13.263.393.591.263.329.463.486.211-.232.211-.506 0-.11-.027-.186-.025-.076-.066-.101-.041-.027-.147-.027-.112-.002-.221-.004l-.019-.027.134-.196q.122.019.353.019.122 0 .37-.01.252-.008.475-.008l.019.019q-.031.122-.041.25l-.021.017q-.238-.039-.513-.039-.01 0-.062.002.025.087.025.184 0 .364-.345.713.378.271.744.271.054 0 .093-.012.039-.014.126-.062l.025.012.014.064zm-2.046-1.616q.169-.12.279-.281.11-.161.11-.308 0-.101-.064-.186-.062-.087-.163-.087-.105 0-.188.089-.081.087-.081.263 0 .201.107.511zm.655 1.468q-.384-.407-.552-.637-.165-.232-.316-.5-.205.145-.279.294-.074.149-.074.306 0 .283.205.506.207.223.498.223.267 0 .519-.192z"/><use xlink:href="#H" x="15.679" y="152.681"/><use xlink:href="#M" x="5.509" y="152.68"/><use xlink:href="#T" x="23.291"/><path d="M65.311 179.963l-.019-.019v-.087l.017-.019q.395-.045.666-.153l.039.025q-.023.238-.023.953v.527q.039-.052.147-.157.107-.107.174-.151.068-.043.184-.076.118-.033.246-.033.234 0 .409.116.178.116.263.31.087.192.087.411 0 .209-.072.397-.07.188-.167.31-.058.07-.205.178-.287.209-.405.26-.116.054-.302.054-.145 0-.263-.041-.118-.039-.244-.126l-.167.157-.068-.027q.039-.376.039-.856v-1.096l-.008-.397q-.006-.227-.014-.318-.006-.093-.019-.11-.012-.017-.043-.025-.029-.008-.25-.008zm.68 1.476v.775q0 .097.008.128.01.029.083.091.074.06.19.105.116.043.24.043.294 0 .459-.227.167-.227.167-.577 0-.219-.07-.387-.068-.169-.207-.258-.138-.089-.312-.089-.205 0-.362.122-.155.12-.196.273z"/><use xlink:href="#I" x="22.136" y="152.68"/><use xlink:href="#L" x="15.092" y="152.68"/><use xlink:href="#U" x="28.889"/><use xlink:href="#Q" x="18.378" y="147.389"/><path d="M22.409 185.364H40.67a2.4 2.4 0 0 1 2.405 2.405v5.565a2.4 2.4 0 0 1-2.405 2.405H22.409a2.4 2.4 0 0 1-2.405-2.405v-5.565a2.4 2.4 0 0 1 2.405-2.405z" fill="#ffc7f6" class="B C"/><path d="M22.996 191.795l-.014-.012.009-.074.014-.014q.096-.017.112-.026.016-.009.033-.033.019-.024.041-.11.022-.086.114-.577l.105-.589.062-.377q.057-.384.057-.438 0-.045-.019-.06-.017-.017-.071-.022-.053-.007-.188-.012l-.012-.016.009-.072.017-.014q.157.014.463.014l.434-.007q.36 0 .513.121.155.119.155.339 0 .122-.048.231-.047.109-.145.205-.096.095-.196.148-.1.053-.245.107.233.034.338.078.107.043.176.152.069.107.069.255 0 .133-.057.264-.057.131-.16.233-.103.1-.257.184-.152.083-.248.103-.096.021-.272.021-.117 0-.343-.007-.15-.005-.222-.005-.114 0-.224.012zm.658-1.333q.117.007.186.007.169 0 .279-.033.112-.034.208-.114.096-.079.153-.2.057-.121.057-.258 0-.196-.124-.289-.122-.093-.334-.093-.117 0-.25.022-.103.481-.176.958zm-.184 1.159q.164.043.388.043.202 0 .331-.071.129-.072.203-.226.074-.153.074-.331 0-.143-.055-.243-.055-.102-.174-.152-.119-.05-.372-.05-.117 0-.234.012l-.048.282-.071.431q-.033.198-.041.303z"/><use xlink:href="#W"/><use xlink:href="#X"/><use xlink:href="#Y"/><path d="M29.774 189.249l.043.033q-.06.248-.16.725l-.1.475q-.062.295-.114.498.134-.193.341-.427.208-.234.376-.341.167-.109.288-.109.048 0 .119.028l-.059.241q-.076-.024-.145-.024-.093 0-.184.038-.091.038-.189.117-.096.078-.212.195.059.184.157.432.1.248.152.348.052.1.081.119.029.019.05.019.048 0 .177-.079l.053-.033.019.005.017.041-.005.021q-.243.179-.32.222-.076.043-.112.043-.017 0-.038-.012-.019-.01-.055-.062-.036-.053-.102-.207-.065-.153-.102-.25-.036-.098-.146-.41-.105.129-.134.174-.029.043-.05.091-.019.047-.043.141-.024.095-.045.219l-.041.245-.234.062-.029-.022.084-.327q.053-.208.157-.713.105-.506.15-.77l.064-.36q.012-.067.012-.105 0-.036-.024-.053-.022-.017-.098-.017l-.145-.002-.014-.014.005-.043.014-.016q.32-.05.543-.136z"/><use xlink:href="#Z"/><path d="M31.993 190.579l-.01-.014.14-.396q.074-.026.146-.026.06 0 .219.016.14.014.205.014.103 0 .188-.029l.031.048q-.47.577-.47 1.104 0 .362.198.362.145 0 .343-.315.2-.317.334-1.139.129-.019.26-.069l.024.021q-.255.823-.255 1.189 0 .136.059.224.059.086.164.086.231 0 .41-.35.181-.35.181-.687 0-.253-.172-.253-.043 0-.09.022l-.019-.003-.028-.031v-.019q.103-.096.181-.184.05-.017.098-.017.25 0 .25.346 0 .279-.162.612-.16.332-.389.544-.227.21-.417.21-.138 0-.215-.098-.078-.098-.078-.246 0-.153.034-.324l-.115.208q-.117.212-.264.336-.145.124-.272.124-.143 0-.229-.126-.086-.127-.086-.331 0-.234.107-.472.109-.239.419-.58-.038.014-.25.014l-.074-.003q-.114 0-.215.019-.029.043-.115.205l-.017.01z"/><use xlink:href="#X" x="8.481"/><use xlink:href="#a"/><use xlink:href="#W" x="12.395"/><use xlink:href="#b"/><path d="M47.809 185.364h18.261a2.4 2.4 0 0 1 2.405 2.405v5.565a2.4 2.4 0 0 1-2.405 2.405H47.809a2.4 2.4 0 0 1-2.405-2.405v-5.565a2.4 2.4 0 0 1 2.405-2.405z" fill="#ffc7f6" class="B C"/><path d="M50.699 191.795l-.014-.012.009-.074.014-.014q.096-.017.112-.026.016-.009.033-.033.019-.024.041-.11.022-.086.114-.577l.105-.589.062-.377q.057-.384.057-.438 0-.045-.019-.06-.017-.017-.071-.022-.053-.007-.188-.012l-.012-.016.009-.072.017-.014q.21.014.513.014.227 0 .357-.014l.014.014-.009.074-.014.016q-.21.017-.233.024-.021.007-.034.021-.012.012-.021.04-.026.071-.102.486l-.207 1.214q-.041.262-.047.393.193.021.358.021.219 0 .348-.005.129-.007.205-.021.076-.014.093-.026.019-.014.033-.036.014-.022.043-.121l.064-.222.016-.014h.074l.014.016q-.065.405-.081.56l-.016.014-.608-.007-.794-.005q-.119 0-.236.012z"/><use xlink:href="#X" x="26.574"/><use xlink:href="#c"/><use xlink:href="#d"/><use xlink:href="#Z" x="26.32"/><use xlink:href="#e"/><use xlink:href="#d" x="3.528"/><use xlink:href="#Y" x="32.845"/><use xlink:href="#Z" x="31.281"/><path d="M34.293 123.98h31.559a2.4 2.4 0 0 1 2.405 2.405v34.831a2.4 2.4 0 0 1-2.405 2.405H34.293a2.4 2.4 0 0 1-2.405-2.405v-34.831a2.4 2.4 0 0 1 2.405-2.405z" fill="#ffe6d5" class="B C"/><use xlink:href="#f"/><use xlink:href="#P" x="-8.157" y="95.001"/><use xlink:href="#L" x="-9.616" y="100.293"/><use xlink:href="#g"/><use xlink:href="#V" x="0.205" y="-52.387"/><use xlink:href="#J" x="2.563" y="100.292"/><use xlink:href="#I" x="5.911" y="100.292"/><use xlink:href="#V" x="4.785" y="-52.387"/><path d="M54.029 130.376l-.019-.017-.019-.079q.267-.283.511-.589l.457-.566q.215-.26.401-.537h-.488q-.058 0-.267.01-.209.008-.232.033-.023.023-.062.269l-.012.066-.017.017H54.2l-.019-.019q.021-.327.021-.378 0-.05-.004-.141l.017-.014q.769.017 1.226.017.244 0 .384-.017l.017.017v.099q-.143.157-.444.542l-.542.688q-.24.304-.337.44h.145l.413-.006q.227-.002.382-.019.155-.017.18-.027.027-.012.033-.021.006-.01.035-.13.031-.12.048-.223l.019-.017h.093l.019.019q-.05.368-.056.566l-.017.017q-.62-.019-.941-.019-.283 0-.843.019z"/><use xlink:href="#L" x="2.216" y="100.293"/><use xlink:href="#h"/><path d="M44.043 135.302l-.079.192q-.459.234-.98.234-.746 0-1.213-.424-.465-.424-.465-1.108 0-.471.232-.823.234-.353.614-.527.382-.176.858-.176.275 0 .544.058.269.058.449.138l.014.021q-.048.116-.089.573l-.014.017h-.097l-.017-.017-.021-.351q-.151-.12-.366-.186-.213-.068-.444-.068-.349 0-.626.151-.277.149-.43.434-.153.283-.153.695 0 .413.18.726.18.312.49.48.312.167.728.167.184 0 .353-.035.169-.035.281-.087.114-.052.217-.126z"/><use xlink:href="#T" x="4.429" y="-47.096"/><use xlink:href="#U" x="4.429" y="-47.096"/><use xlink:href="#P" x="0.401" y="100.293"/><use xlink:href="#V" x="4.86" y="-47.096"/><use xlink:href="#I" x="8.449" y="105.584"/><use xlink:href="#L" x="1.406" y="105.584"/><use xlink:href="#M" x="1.406" y="105.584"/><use xlink:href="#i" fill="#ffd5d5" class="B C"/><use xlink:href="#j"/><use xlink:href="#a" x="7.899" y="-48.609"/><use xlink:href="#k"/><use xlink:href="#l"/><use xlink:href="#Z" x="18.282" y="-48.609"/><use xlink:href="#W" x="25.192" y="-48.609"/><use xlink:href="#k" x="5.877"/><use xlink:href="#e" x="-5.496" y="-48.609"/><use xlink:href="#d" x="-1.968" y="-48.609"/><use xlink:href="#X" x="28.913" y="-48.61"/><use xlink:href="#l" x="9.598"/><use xlink:href="#i" y="8.101" fill="#ffd5d5" class="B C"/><use xlink:href="#m"/><use xlink:href="#e" x="-19.059" y="-40.508"/><use xlink:href="#k" x="-4.944" y="8.102"/><use xlink:href="#e" x="-16.317" y="-40.508"/><use xlink:href="#n"/><use xlink:href="#o"/><use xlink:href="#X" x="21.723" y="-40.508"/><use xlink:href="#p"/><use xlink:href="#q"/><use xlink:href="#d" x="-2.109" y="-40.508"/><use xlink:href="#W" x="29.75" y="-40.508"/><use xlink:href="#k" x="10.435" y="8.102"/><use xlink:href="#e" x="-0.938" y="-40.508"/><use xlink:href="#d" x="2.59" y="-40.508"/><use xlink:href="#X" x="33.471" y="-40.508"/><use xlink:href="#l" x="14.156" y="8.101"/><g transform="matrix(0 -.264583 .264583 0 -73.57831 227.03124)"><use xlink:href="#R"/><use xlink:href="#R" x="8.021"/><use xlink:href="#R" x="16.042"/></g><use xlink:href="#H" x="-25.18" y="26.807"/><use xlink:href="#I" x="-25.18" y="26.807"/><use xlink:href="#J" x="-25.18" y="26.806"/><use xlink:href="#K" x="-25.18" y="26.807"/><use xlink:href="#K" x="-22.716" y="26.807"/><use xlink:href="#V" x="-19.261" y="-125.873"/><use xlink:href="#K" x="-19.02" y="26.807"/><use xlink:href="#r"/><use xlink:href="#s"/><use xlink:href="#I" x="-26.673" y="32.098"/><use xlink:href="#r" x="-12.233" y="5.291"/><use xlink:href="#T" x="-17.274" y="-120.582"/><use xlink:href="#M" x="-31.07" y="32.099"/><use xlink:href="#V" x="-21.457" y="-120.581"/><use xlink:href="#O" x="-20.756" y="26.807"/><path d="M29.759 59.104l.039.025q-.023.238-.023.953v.511q.174-.143.322-.283.043-.039.083-.058.039-.019.126-.039.089-.021.182-.021.157 0 .304.064.149.064.223.153.076.087.105.207.029.12.029.296v.364q0 .035.01.515.006.196.043.234.039.037.256.037l.017.017v.089l-.017.017q-.263-.017-.356-.017-.048 0-.302.017l-.025-.023q.027-.269.027-.701v-.271q0-.244-.012-.351-.01-.107-.068-.194-.058-.089-.155-.136-.095-.05-.232-.05-.141 0-.236.039-.093.037-.19.128-.097.091-.118.153-.019.06-.019.234v.368q0 .045.008.294.008.246.017.287.01.041.029.06.019.019.045.025.027.004.223.017l.019.017v.087l-.017.019q-.258-.017-.498-.017-.238 0-.496.017l-.019-.019v-.087l.019-.017q.201-.012.225-.019.027-.006.045-.025.021-.021.027-.06.008-.041.017-.267.01-.227.01-.343v-1.071l-.008-.438q-.006-.229-.014-.318-.006-.089-.019-.105-.012-.017-.043-.025-.031-.008-.25-.008l-.019-.019v-.087l.017-.019q.395-.045.666-.153z"/><use xlink:href="#U" x="-10.527" y="-120.581"/><use xlink:href="#Q" x="-21.037" y="26.807"/><use xlink:href="#t" class="B C J"/><path d="M19.523 73.867l-.012-.014.012-.076.016-.012.1-.016q.043-.007.059-.016.016-.009.033-.029.017-.021.078-.11.06-.09.158-.246l.038-.055 1.192-1.886h.162l.289 2.081q.024.174.043.21.019.036.057.045.038.009.196.022l.01.014-.014.074-.016.014q-.241-.014-.415-.014-.117 0-.412.014l-.012-.014.012-.074.016-.014q.214-.009.243-.026.031-.017.031-.074 0-.014-.024-.265l-.067-.51h-.86l-.243.403q-.034.057-.11.193-.074.136-.086.165-.01.028-.01.045 0 .029.033.045.034.014.253.022l.01.014-.012.076-.016.014q-.2-.014-.376-.014-.145 0-.357.014zm.999-1.111h.758l-.131-1.001zm.761-1.447zm-.558 2.732zm1.74-1.65q-.024-.071-.09-.198l.014-.024q.045-.021.188-.079.145-.06.258-.115-.076-.04-.234-.115-.158-.078-.217-.102l-.014-.034q.002-.002.055-.096l.059-.1.036.002q.172.191.363.367.029-.162.045-.272.016-.112.033-.222l.031-.019q.112.036.217.06l.005.031q-.207.369-.248.456.048-.005.489-.083l.021.012q.003.064.028.205l-.026.019q-.334-.05-.506-.062.059.124.117.222.107.183.11.196l-.007.021q-.176.084-.207.107l-.026-.019q-.038-.279-.078-.494-.129.112-.272.246l-.105.096z"/><use xlink:href="#m" x="-12.872" y="-77.422"/><use xlink:href="#n" x="-16.792" y="-77.422"/><use xlink:href="#k" x="-17.623" y="-69.32"/><use xlink:href="#a" x="-6.789" y="-117.93"/><use xlink:href="#Y" x="3.064" y="-117.93"/><use xlink:href="#u"/><use xlink:href="#t" y="8.101" class="B C J"/><path d="M17.616 80.604l.82.007q.272 0 .481-.007.138-.761.138-.897 0-.029-.031-.055-.031-.026-.246-.029l-.01-.014.007-.074.017-.014.481.014q.164 0 .353-.014l.014.014-.007.074-.016.014q-.14.007-.184.014-.045.007-.06.05-.016.043-.081.36-.065.315-.114.608l-.115.689q-.064.381-.064.448 0 .031.034.05.036.017.246.026l.01.014-.009.074-.016.014-.451-.014q-.181 0-.384.014l-.012-.014.007-.074.016-.014q.088-.002.214-.031.031-.026.055-.126.026-.102.091-.463l.09-.493-.682-.007q-.064 0-.46.009l-.158.003q-.16.922-.16 1.03 0 .031.034.05.036.019.246.028l.01.014-.009.074-.016.014-.453-.014q-.179 0-.382.014l-.012-.014.005-.074.017-.014q.148-.009.188-.017.041-.01.067-.088.026-.079.1-.489l.112-.615.102-.598q.047-.274.047-.351 0-.034-.031-.057-.031-.022-.246-.029l-.012-.014.009-.074.016-.014.482.014q.162 0 .353-.014l.012.014-.005.074-.016.014q-.169.005-.208.024-.038.017-.059.117l-.062.3q-.016.078-.102.541z"/><use xlink:href="#d" x="-36.337" y="-109.829"/><use xlink:href="#W" x="-4.478" y="-109.828"/><use xlink:href="#W" x="-3.499" y="-109.828"/><use xlink:href="#o" x="-21.984" y="-69.321"/><use xlink:href="#W" x="0.717" y="-109.828"/><use xlink:href="#d" x="-29.185" y="-109.829"/><use xlink:href="#p" x="-21.591" y="-69.321"/><use xlink:href="#v"/><use xlink:href="#d" x="-23.831" y="-109.829"/><use xlink:href="#l" x="-13.829" y="-61.219"/><use xlink:href="#c" x="-19.125" y="-109.828"/><g transform="matrix(-.264583 0 0 -.264583 95.78438 210.57358)"><use xlink:href="#R"/><use xlink:href="#R" x="8.021"/><use xlink:href="#R" x="16.042"/></g><use xlink:href="#w"/><use xlink:href="#x"/><use xlink:href="#n" x="-26.616" y="-84.348"/><use xlink:href="#Z" x="-12.693" y="-124.855"/><use xlink:href="#e" x="-39.013" y="-124.855"/><use xlink:href="#a" x="-15.628" y="-124.855"/><use xlink:href="#d" x="-34.114" y="-124.855"/><use xlink:href="#Y" x="-4.797" y="-124.855"/><use xlink:href="#e" x="-34.052" y="-124.855"/><use xlink:href="#n" x="-17.735" y="-84.348"/><use xlink:href="#b" x="-11.645" y="-124.855"/><path d="M29.437 66.942l-.012-.014.005-.074.017-.014q.207-.003.234-.053.029-.05.121-.543l.112-.612.102-.596q.047-.272.047-.357 0-.029-.031-.055-.031-.026-.246-.029l-.012-.014.009-.074.016-.014q.045 0 .127.003l.336.01 1.049-.014.017.016q-.043.239-.057.515l-.014.014h-.065l-.014-.014q0-.255-.04-.317-.038-.062-.527-.062-.127 0-.253.01-.04.158-.091.467l-.102.605.389.005q.172 0 .505-.033l.017.019-.072.176q-.465-.019-.567-.019-.15 0-.298.009-.126.725-.126.825-.01.074.033.095.045.019.296.04l.014.014-.009.071-.016.014q-.355-.014-.512-.014-.171 0-.382.014z"/><use xlink:href="#k" x="-13.956" y="-76.246"/><use xlink:href="#p" x="-16.364" y="-84.348"/><use xlink:href="#d" x="-20.237" y="-124.855"/><use xlink:href="#W" x="11.622" y="-124.855"/><use xlink:href="#y"/><use xlink:href="#z"/><path d="M55.196 70.247H44.948" fill="none" marker-end="url(#F)" class="B C"/><use xlink:href="#AA"/><use xlink:href="#Z" x="18.916" y="-123.408"/><use xlink:href="#n" x="7.735" y="-82.901"/><use xlink:href="#b" x="13.824" y="-123.408"/><use xlink:href="#v" x="18.611" y="-8.289"/><use xlink:href="#y" x="13.061" y="6.738"/><use xlink:href="#H" x="21.437" y="26.807"/><use xlink:href="#I" x="21.437" y="26.807"/><use xlink:href="#J" x="21.437" y="26.806"/><use xlink:href="#K" x="21.437" y="26.807"/><use xlink:href="#K" x="23.901" y="26.807"/><use xlink:href="#V" x="27.356" y="-125.873"/><use xlink:href="#K" x="27.597" y="26.807"/><use xlink:href="#r" x="46.617"/><path d="M63.512 59.245q.527.017.591.017.068 0 .593-.017l.017.014v.103l-.017.014q-.143.004-.221.012-.076.008-.112.031-.035.023-.048.107-.01.083-.01.232l-.004.475v.289q.453.012.858.012.554 0 .843-.012v-.289l-.004-.403q-.002-.236-.012-.304-.01-.068-.029-.091-.019-.023-.074-.037-.056-.014-.277-.023l-.014-.014v-.103l.014-.014q.529.017.593.017.07 0 .593-.017l.017.014v.103l-.017.014q-.145.004-.223.012-.076.008-.112.031-.035.023-.045.107-.01.083-.012.232l-.004.475v.957l.004.403q.002.234.012.302.01.068.029.091.021.023.074.039.056.014.277.023l.017.012v.103l-.017.017q-.529-.017-.593-.017-.066 0-.593.017l-.014-.017v-.103l.014-.012q.194-.008.258-.021.064-.012.085-.031.021-.021.035-.085.014-.064.014-.285l.004-.436v-.471q-.612-.012-.858-.012-.252 0-.843.012v.471l.002.403q.002.234.012.302.01.068.029.091.021.023.076.039.056.014.275.023l.017.012v.103l-.017.017q-.527-.017-.593-.017-.064 0-.591.017l-.017-.017v-.103l.017-.012q.192-.008.256-.021.064-.012.085-.031.023-.021.035-.085.014-.064.017-.285l.002-.436v-.957l-.004-.403q-.002-.236-.012-.304-.008-.068-.029-.091-.019-.023-.074-.037-.056-.014-.275-.023l-.017-.014v-.103z"/><use xlink:href="#L" x="13.095" y="32.099"/><use xlink:href="#N" x="23.063" y="26.807"/><use xlink:href="#M" x="15.65" y="32.099"/><use xlink:href="#V" x="25.264" y="-120.581"/><use xlink:href="#Q" x="18.101" y="26.807"/><use xlink:href="#O" x="27.759" y="26.807"/><use xlink:href="#V" x="29.671" y="-120.581"/><use xlink:href="#g" x="32.575" y="-68.194"/><use xlink:href="#Q" x="24.385" y="26.807"/><use xlink:href="#AB" class="B C J"/><use xlink:href="#u" x="38.709"/><path d="M73.466 74.339l.008.03-.004.013q-.235.203-.32.203-.056 0-.056-.072 0-.035.007-.087.008-.054.022-.118l.028-.12.017-.066-.007-.003q-.167.237-.312.356-.144.119-.203.119-.078 0-.078-.191 0-.12.036-.272.037-.152.09-.282.053-.13.084-.17.032-.041.106-.094.075-.053.14-.081.065-.028.144-.028.097 0 .207.04l.072-.043.025.02q-.003.017-.047.168l-.052.19-.028.111q-.03.119-.056.249-.026.129-.026.176 0 .045.03.045.019 0 .05-.017.031-.017.113-.079zm-.189-.713q-.085-.039-.184-.039-.082 0-.146.03-.024.018-.048.064-.025.045-.069.169-.045.123-.073.264-.028.14-.028.223 0 .062.01.079.011.018.032.018.04 0 .158-.109.118-.109.198-.252.082-.143.134-.383zm-.105-.219zm-.207 1.274z"/><use xlink:href="#AC"/><use xlink:href="#AC" x="1.147"/><use xlink:href="#AB" y="8.101" class="B C J"/><use xlink:href="#u" x="39.198" y="8.102"/><use xlink:href="#AD"/><use xlink:href="#AD" x="1.277"/><g transform="matrix(-.264583 0 0 -.264583 142.40144 210.57356)"><use xlink:href="#R"/><use xlink:href="#R" x="8.021"/><use xlink:href="#R" x="16.042"/></g><use xlink:href="#w" x="48.085"/><use xlink:href="#j" x="20.438" y="-76.246"/><use xlink:href="#y" x="26.76"/><use xlink:href="#q" x="14.116" y="-84.347"/><use xlink:href="#n" x="24.796" y="-84.348"/><use xlink:href="#x" x="56.022"/><use xlink:href="#n" x="29.406" y="-84.348"/><use xlink:href="#Z" x="43.329" y="-124.855"/><use xlink:href="#e" x="17.009" y="-124.855"/><use xlink:href="#a" x="40.394" y="-124.855"/><use xlink:href="#d" x="21.908" y="-124.855"/><use xlink:href="#Y" x="51.225" y="-124.855"/><use xlink:href="#e" x="21.97" y="-124.855"/><use xlink:href="#n" x="38.287" y="-84.348"/><use xlink:href="#b" x="44.377" y="-124.855"/><use xlink:href="#z" x="45.149"/><use xlink:href="#f" x="0.071" y="-24.342"/><use xlink:href="#P" x="-8.087" y="70.659"/><use xlink:href="#L" x="-9.546" y="75.951"/><use xlink:href="#g" x="0.07" y="-24.341"/><use xlink:href="#V" x="0.275" y="-76.729"/><use xlink:href="#J" x="2.633" y="75.951"/><use xlink:href="#I" x="5.981" y="75.951"/><use xlink:href="#V" x="4.855" y="-76.729"/><path d="M54.099 106.035l-.019-.017-.019-.079q.267-.283.511-.589l.457-.566q.215-.26.401-.537h-.488q-.058 0-.267.01-.209.008-.232.033-.023.023-.062.269l-.012.066-.017.017h-.083l-.019-.019q.021-.327.021-.378 0-.05-.004-.141l.017-.014q.769.017 1.226.017.244 0 .384-.017l.017.017v.099q-.143.157-.444.542l-.542.688q-.24.304-.337.44h.145l.413-.006q.227-.002.382-.019.155-.017.18-.027.027-.012.033-.021.006-.01.035-.13.031-.12.048-.223l.019-.017h.093l.019.019q-.05.368-.056.566l-.017.017q-.62-.019-.941-.019-.283 0-.843.019z"/><use xlink:href="#L" x="2.286" y="75.951"/><use xlink:href="#h" x="0.071" y="-24.342"/><use xlink:href="#S" x="9.308" y="-71.437"/><use xlink:href="#J" x="-7.93" y="81.242"/><use xlink:href="#O" x="-7.47" y="75.951"/><use xlink:href="#J" x="-4.432" y="81.242"/><use xlink:href="#f" x="6.086" y="-19.05"/><use xlink:href="#O" x="-0.69" y="75.951"/><use xlink:href="#M" x="-6.722" y="81.243"/><use xlink:href="#N" x="4.916" y="75.951"/><use xlink:href="#g" x="7.119" y="-19.049"/><use xlink:href="#O" x="6.792" y="75.951"/><use xlink:href="#N" x="10.728" y="75.951"/><use xlink:href="#M" x="3.316" y="81.243"/><use xlink:href="#L" x="7.011" y="81.243"/><use xlink:href="#Q" x="6.561" y="75.951"/><g fill="none" class="B C"><path d="M68.069 107.21h5.312V90.068" marker-end="url(#D)"/><path d="M32.076 107.21h-5.312V90.068" marker-end="url(#C)"/><path d="M26.764 50.426v-3.698h23.534V38.83" marker-end="url(#B)"/><path d="M50.072 176.996v-13.374" marker-end="url(#A)"/><path d="M50.072 123.98v-9.199" marker-end="url(#E)"/></g><use xlink:href="#q" x="-18.993" y="-107.06"/><use xlink:href="#a" x="-1.244" y="-147.569"/><use xlink:href="#X" x="10.172" y="-147.569"/><use xlink:href="#b" x="-0.658" y="-147.568"/><use xlink:href="#AA" x="-8.013" y="-24.16"/><use xlink:href="#Y" x="13.9" y="-147.569"/><use xlink:href="#n" x="-0.216" y="-107.061"/><use xlink:href="#Z" x="13.707" y="-147.568"/><use xlink:href="#AA" x="-34.585" y="31.931"/><use xlink:href="#Z" x="-15.668" y="-91.476"/><use xlink:href="#n" x="-26.849" y="-50.97"/><use xlink:href="#b" x="-20.76" y="-91.477"/><use xlink:href="#v" x="-10.158" y="18.351"/><use xlink:href="#y" x="-15.708" y="33.378"/><use xlink:href="#AA" x="28.564" y="31.931"/><use xlink:href="#Z" x="47.48" y="-91.476"/><use xlink:href="#n" x="36.299" y="-50.97"/><use xlink:href="#b" x="42.389" y="-91.477"/><use xlink:href="#v" x="52.991" y="18.351"/><use xlink:href="#y" x="47.44" y="33.378"/><use xlink:href="#q" x="1.201" y="-30.86"/><use xlink:href="#a" x="18.949" y="-71.369"/><use xlink:href="#X" x="30.366" y="-71.369"/><use xlink:href="#b" x="19.535" y="-71.368"/><use xlink:href="#AA" x="12.18" y="52.04"/><use xlink:href="#Y" x="34.094" y="-71.369"/><use xlink:href="#n" x="19.977" y="-30.861"/><use xlink:href="#Z" x="33.901" y="-71.368"/><use xlink:href="#Y" x="25.667" y="-20.569"/><use xlink:href="#X" x="28.664" y="-20.569"/><use xlink:href="#p" x="6.941" y="19.939"/><use xlink:href="#q" x="6.94" y="19.94"/><use xlink:href="#d" x="4.831" y="-20.569"/><use xlink:href="#W" x="36.691" y="-20.568"/><use xlink:href="#n" x="19.578" y="19.939"/><use xlink:href="#b" x="25.667" y="-20.568"/><use xlink:href="#v" x="36.269" y="89.26"/><use xlink:href="#y" x="30.719" y="104.287"/><path d="M50.298 23.687v-9.15" fill="none" marker-end="url(#G)" class="B C"/><use xlink:href="#AA" x="5.717" y="-48.714"/><use xlink:href="#Z" x="24.633" y="-172.121"/><use xlink:href="#n" x="13.452" y="-131.615"/><use xlink:href="#b" x="19.542" y="-172.122"/><use xlink:href="#v" x="30.144" y="-62.294"/><use xlink:href="#y" x="24.593" y="-47.267"/><path d="M42.65 2.989l.017-.014q.709.012.907.012.678 0 1.207-.012l.01.014q-.052.198-.076.622l-.012.017h-.101l-.019-.017q.002-.019.002-.033 0-.176-.027-.335-.13-.058-.362-.074-.229-.019-.345-.019-.163 0-.418.023l-.008.331-.006.378-.006.42q.223.012.411.012.19 0 .318-.012.128-.012.149-.025.023-.014.033-.052.012-.039.021-.136l.008-.128.017-.017h.095l.017.017q-.004.225-.01.453l.01.465-.017.017h-.095l-.017-.017-.014-.124q-.019-.145-.027-.172-.008-.029-.039-.05-.029-.021-.153-.033-.124-.012-.341-.012-.12 0-.366.01-.01.174-.01.579 0 .434.01.639h.38q.502 0 .628-.012.126-.012.24-.06.019-.048.06-.219.043-.174.05-.217l.021-.014h.099l.017.014q-.019.089-.037.31-.017.221-.017.378l-.014.017q-.395-.012-1.034-.012l-.562-.004q-.196 0-.409.017l-.017-.017v-.068l.017-.021q.122-.062.138-.076.019-.017.029-.362.012-.347.012-.529v-.759l-.002-.469q0-.153-.004-.248-.004-.097-.014-.138-.01-.041-.025-.058-.012-.017-.043-.027-.029-.012-.101-.021l-.157-.012-.017-.014zm1.18-.167zm-.008 3.198z"/><path d="M45.178 5.91l-.017-.019v-.083l.019-.017q.076-.002.124-.023.05-.023.118-.091.07-.07.246-.285l.333-.411-.176-.263q-.039-.058-.163-.227-.122-.169-.205-.254-.083-.087-.124-.107-.039-.021-.081-.021-.019 0-.05.002l-.021-.014-.017-.083.017-.021q.211-.025.465-.079.143.118.422.552l.153.242.13-.165q.151-.196.424-.589.097.014.155.014.054 0 .145-.014l.017.017v.083l-.017.017q-.068.006-.099.021-.031.014-.114.095-.083.081-.221.248l-.124.149q-.037.043-.072.089l-.128.165.076.118q.052.074.248.349.198.273.277.366.081.091.114.107.035.014.114.014l.017.017v.085l-.017.017q-.153-.014-.236-.014-.025 0-.265.014-.169-.213-.341-.477l-.211-.318q-.213.242-.571.796-.141-.014-.167-.014-.041 0-.178.014z"/><use xlink:href="#O" x="-1.161" y="-29.463"/><use xlink:href="#L" x="-5.167" y="-24.171"/><path d="M51.471 3.926l.039.027q-.012.12-.019.426l.155-.196q.076-.097.134-.149.06-.054.138-.083.079-.029.161-.029.091 0 .172.037l.014.029q-.033.275-.037.484h-.093q-.083-.19-.267-.19-.128 0-.223.083-.095.081-.128.205-.031.122-.031.31v.229q0 .062.008.304.008.242.017.279.01.037.029.056.021.017.052.023.033.006.296.021l.019.017v.087l-.019.019q-.275-.017-.575-.017-.238 0-.496.017l-.019-.019v-.087l.019-.017q.201-.012.225-.019.027-.006.045-.025.021-.021.027-.06.008-.041.017-.267.01-.227.01-.343V4.67q0-.083-.008-.225-.008-.143-.014-.176-.004-.033-.031-.048-.027-.017-.107-.017l-.174-.002-.019-.017v-.089l.017-.017q.395-.048.666-.155z"/><path d="M53.054 3.926l.039.027q-.012.138-.017.364.165-.136.314-.277.043-.039.081-.058.039-.019.128-.039.089-.021.182-.021.157 0 .304.064.149.064.223.153.076.087.105.207.029.12.029.296v.364q0 .035.01.515.004.196.043.234.039.037.256.037l.017.017v.089l-.017.017q-.263-.017-.356-.017-.054 0-.302.017l-.025-.023q.027-.269.027-.701v-.271q0-.244-.012-.351-.01-.107-.068-.194-.058-.089-.155-.136-.097-.05-.232-.05-.107 0-.184.023-.076.021-.172.089-.095.066-.141.126-.045.058-.056.11-.008.05-.008.215v.36q0 .045.008.294.008.246.017.287.01.041.029.06.019.019.045.025.027.004.223.017l.019.017v.087l-.017.019q-.258-.017-.498-.017-.238 0-.496.017l-.019-.019v-.087l.019-.017q.201-.012.225-.019.027-.006.045-.025.021-.021.027-.06.008-.041.017-.267.01-.227.01-.343V4.67q0-.083-.008-.225-.008-.143-.014-.176-.004-.033-.031-.048-.027-.017-.107-.017l-.174-.002-.019-.017v-.089l.017-.017q.395-.048.666-.155z"/><use xlink:href="#J" x="8.037" y="-24.172"/><path d="M57.701 2.834l.039.025q-.023.238-.023.953v1.296q0 .045.008.294.008.246.017.287.01.041.029.06.019.019.045.025.027.004.223.017l.019.017v.087l-.017.019q-.258-.017-.498-.017-.238 0-.496.017l-.019-.019v-.087l.019-.017q.201-.012.225-.019.027-.006.045-.025.021-.021.027-.06.008-.041.017-.267.01-.227.01-.343V4.006l-.008-.438q-.006-.229-.014-.318-.006-.089-.019-.105-.012-.017-.043-.025-.031-.008-.25-.008l-.019-.019v-.087l.017-.019q.395-.045.666-.153z"/><use xlink:href="#s" x="22.737" y="-50.978"/><use xlink:href="#AE"/><use xlink:href="#AE" x="2.547"/><path d="M47.473 8.126l.039.025q-.023.238-.023.953V10.4q0 .045.008.294.008.246.017.287.01.041.029.06.019.019.045.025.027.004.223.017l.019.017v.087l-.017.019q-.258-.017-.498-.017-.238 0-.496.017l-.019-.019v-.087l.019-.017q.201-.012.225-.019.027-.006.045-.025.021-.021.027-.06.008-.041.017-.267.01-.227.01-.343V9.298l-.008-.438q-.006-.229-.014-.318-.006-.089-.019-.105-.012-.017-.043-.025-.031-.008-.25-.008l-.019-.019v-.087l.017-.019q.395-.045.666-.153z"/><use xlink:href="#V" x="0.032" y="-171.559"/><use xlink:href="#g" x="2.936" y="-119.172"/><use xlink:href="#J" x="4.267" y="-18.88"/><use xlink:href="#O" x="4.726" y="-24.171"/><use xlink:href="#V" x="6.638" y="-171.559"/><use xlink:href="#T" x="16.039" y="-171.56"/><use xlink:href="#K" x="9.195" y="-18.879"/><use xlink:href="#Q" x="4.255" y="-24.171"/><path d="M2.872 208.335l.026-.026h.162l.026.026q.017.423.043.519.03.093.179.198.152.103.4.169.251.066.506.066.351 0 .628-.129.281-.129.437-.377.155-.251.155-.562 0-.218-.076-.38-.073-.162-.208-.258-.132-.099-.304-.146-.172-.05-.513-.106-.331-.053-.519-.096-.185-.043-.37-.132-.185-.089-.311-.225-.122-.139-.198-.337-.073-.202-.073-.43 0-.618.43-1.012.43-.397 1.154-.397.288 0 .625.073.341.069.618.208l.023.04q-.073.304-.089.867l-.03.026h-.172l-.026-.023q-.007-.397-.02-.499-.013-.103-.301-.255-.288-.152-.625-.152-.281 0-.526.112-.245.112-.37.354-.126.241-.126.493 0 .195.076.347.076.149.195.238.122.086.281.129.162.043.589.106.585.083.85.202.268.116.427.37.162.255.162.615 0 .704-.575 1.174-.572.47-1.389.47-.685 0-1.201-.245l-.02-.043q.033-.208.05-.972z"/><use xlink:href="#AF"/><use xlink:href="#AG"/><use xlink:href="#AH"/><use xlink:href="#AI"/><use xlink:href="#AG" x="11.47"/><use xlink:href="#AJ"/><use xlink:href="#AI" x="10.199"/><path d="M31.937 204.799q.833.026 1.062.026.311 0 .698-.017.41-.013.506-.013.463 0 .764.096.304.096.503.351.198.255.198.615 0 .298-.139.575-.139.278-.387.473-.248.195-.503.281-.255.083-.529.083-.205 0-.456-.046l-.056-.202.03-.033q.248.056.403.056.433 0 .695-.284.265-.288.265-.734 0-.45-.275-.718-.271-.268-.824-.268-.301 0-.661.112-.03.255-.03 1.23v1.531l.003.645q.003.374.02.483.017.109.046.146.033.036.122.063.089.023.44.036l.026.02v.165l-.026.026q-.843-.026-.949-.026-.112 0-.946.026l-.026-.026v-.165l.026-.02q.308-.013.41-.033.103-.02.136-.05.036-.033.056-.136.023-.103.026-.456l.003-.698v-1.531l-.007-.645q-.003-.377-.02-.486-.013-.109-.046-.146-.03-.036-.119-.06-.089-.023-.44-.036l-.026-.023v-.165z"/><path d="M36.855 204.574l.063.04q-.036.38-.036 1.525v2.074q0 .073.013.47.013.394.026.46.017.066.046.096.03.03.073.04.043.007.357.026l.03.026v.139l-.026.03q-.413-.026-.797-.026-.38 0-.794.026l-.03-.03v-.139l.03-.026q.321-.02.36-.03.043-.01.073-.04.033-.033.043-.096.013-.066.026-.427.017-.364.017-.549v-1.713l-.013-.701q-.01-.367-.023-.509-.01-.142-.03-.169-.02-.026-.069-.04-.05-.013-.4-.013l-.03-.03v-.139l.026-.03q.632-.073 1.065-.245z"/><use xlink:href="#AG" x="29.21"/><use xlink:href="#AH" x="29.21"/><use xlink:href="#AH" x="33.152"/><use xlink:href="#AK"/><use xlink:href="#AH" x="39.066"/><path d="M58.422 206.549l.026.06q-.136.208-.169.271h-.615q.093.182.093.38 0 .235-.109.456-.106.222-.298.377-.192.155-.437.248-.241.093-.552.093h-.152q-.195.155-.251.232-.056.076-.056.155 0 .146.132.205.136.06.556.06l.741-.01q.351 0 .536.083.189.083.304.298.116.212.116.45 0 .364-.238.724-.235.364-.681.552-.446.189-.953.189-.288 0-.542-.063-.251-.063-.443-.192-.189-.126-.304-.331-.116-.205-.116-.427 0-.122.036-.258.036-.132.139-.288l.599-.334q-.288-.089-.364-.175-.073-.089-.073-.212 0-.126.083-.298l.532-.384q-.47-.122-.635-.367-.162-.245-.162-.536 0-.268.116-.509.116-.245.347-.39.235-.146.523-.228.291-.086.529-.086.413 0 .787.268.599 0 .956-.013zm-2.689.767q0 .202.079.433.079.232.255.351.179.119.4.119.294 0 .506-.192.215-.192.215-.599 0-.344-.195-.618-.195-.275-.552-.275-.301 0-.506.198-.202.195-.202.582zm.969 2.219q-.532 0-.615.013-.079.013-.228.112-.149.099-.245.268-.093.172-.093.384 0 .374.278.609.278.235.741.235.347 0 .642-.146.294-.146.433-.39.142-.245.142-.47 0-.225-.119-.387-.116-.159-.304-.195-.185-.033-.632-.033zm3.443-.036l-.03-.026v-.172l.03-.026q.241-.003.311-.023.069-.023.122-.086.056-.066.222-.423l.347-.754.9-2.037q.255-.599.506-1.197h.215l1.412 3.321.189.443q.083.189.189.41.109.222.149.261.043.04.103.063.063.02.275.023l.026.026v.172l-.026.026q-.351-.03-.632-.03-.549.017-1.098.03l-.026-.026v-.172l.026-.026q.37-.007.463-.03.093-.026.093-.116 0-.073-.046-.192l-.407-1.009H61.54l-.36.847q-.096.228-.096.334 0 .083.089.122.089.04.45.043l.03.026v.172l-.026.026q-.427-.026-.747-.026-.364 0-.734.026zm1.508-1.855h1.673l-.83-1.994zm1.002-3.089zm-.076 5.116z"/><use xlink:href="#AJ" x="42.029"/><use xlink:href="#AL"/><path d="M72.064 204.574l.063.04q-.036.38-.036 1.525v.817q.278-.228.516-.453.069-.063.132-.093.063-.03.202-.063.142-.033.291-.033.251 0 .486.103.238.103.357.245.122.139.169.331.046.192.046.473v.582q0 .056.017.824.01.314.069.374.063.06.41.06l.026.026v.142l-.026.026q-.42-.026-.569-.026-.076 0-.483.026l-.04-.036q.043-.43.043-1.121v-.433q0-.39-.02-.562-.017-.172-.109-.311-.093-.142-.248-.218-.152-.079-.37-.079-.225 0-.377.063-.149.06-.304.205-.155.146-.189.245-.03.096-.03.374v.589q0 .073.013.47.013.394.026.46.017.066.046.096.03.03.073.04.043.007.357.026l.03.026v.139l-.026.03q-.413-.026-.797-.026-.38 0-.794.026l-.03-.03v-.139l.03-.026q.321-.02.36-.03.043-.01.073-.04.033-.033.043-.096.013-.066.026-.427.017-.364.017-.549v-1.713l-.013-.701q-.01-.367-.023-.509-.01-.142-.03-.169-.02-.026-.069-.04-.05-.013-.4-.013l-.03-.03v-.139l.026-.03q.632-.073 1.065-.245z"/><use xlink:href="#AK" x="26.022"/><use xlink:href="#AF" x="70.683"/><path d="M81.986 208.986l-.106.238q-.344.222-.615.288-.268.066-.48.066-.397 0-.754-.155-.354-.155-.579-.526-.222-.37-.222-.893 0-.347.086-.625.086-.281.179-.417.096-.136.321-.301.225-.165.476-.265.251-.099.542-.099.397 0 .698.189.304.185.427.476.122.291.122.618 0 .103-.01.198l-.036.036q-.225.05-.605.066-.38.017-.503.017h-1.062q.007.685.344 1.009.337.324.827.324.232 0 .443-.079.215-.079.453-.222zm-2.12-1.353q.06.01.456.023.4.013.592.013.46 0 .559-.017.003-.079.003-.122 0-.513-.208-.761-.208-.251-.569-.251-.394 0-.615.281-.218.281-.218.833zm.923-1.521zm-.04 3.559z"/><use xlink:href="#AL" x="14.367"/><use xlink:href="#AF" x="79.137"/><path d="M88.66 206.321l.063.043q-.036.433-.036 1.101v.771q0 .423.063.589.066.165.225.255.159.086.377.086.241 0 .44-.093.198-.096.331-.268.136-.172.155-.232.02-.06.026-.334l.01-.37v-.357q0-.132-.013-.361-.013-.228-.023-.281-.007-.053-.05-.076-.043-.026-.172-.026l-.278-.003-.03-.026v-.142l.026-.026q.632-.076 1.065-.248l.063.043q-.036.433-.036 1.101v.582q0 .05.017.81.007.281.033.344.03.06.079.086.05.023.294.023h.093l.03.026v.132l-.026.03q-.466-.026-.625-.026-.202 0-.466.023l-.03-.026q.02-.337.03-.572-.208.162-.476.433-.103.103-.294.172-.192.069-.437.069-.37 0-.579-.116-.205-.119-.291-.324-.086-.208-.086-.714l.003-.261v-.645q0-.132-.013-.361-.013-.228-.023-.281-.007-.053-.05-.076-.043-.026-.172-.026l-.278-.003-.03-.026v-.142l.026-.026q.632-.076 1.065-.248zm.79-.208zm.033 3.559z"/><use xlink:href="#AJ" x="68.369"/><path d="M97.2 208.986l-.106.238q-.344.222-.615.288-.268.066-.48.066-.397 0-.754-.155-.354-.155-.579-.526-.222-.37-.222-.893 0-.347.086-.625.086-.281.179-.417.096-.136.321-.301.225-.165.476-.265.251-.099.542-.099.397 0 .698.189.304.185.427.476.122.291.122.618 0 .103-.01.198l-.036.036q-.225.05-.605.066-.38.017-.503.017H95.08q.007.685.344 1.009.337.324.827.324.232 0 .443-.079.215-.079.453-.222zm-2.12-1.353q.06.01.456.023.4.013.592.013.46 0 .559-.017.003-.079.003-.122 0-.513-.208-.761-.208-.251-.569-.251-.394 0-.615.281-.218.281-.218.833zm.923-1.521zm-.04 3.559z"/></svg>