<svg xmlns="http://www.w3.org/2000/svg" xmlns:xlink="http://www.w3.org/1999/xlink" viewBox="0 0 148.14 97.127" height="367.094" width="559.899" xmlns:v="https://vecta.io/nano"><style><![CDATA[.B{stroke:#000}.C{stroke-width:.353}.D{fill:#e5ffd5}.E{stroke-dasharray:1.4115555, 1.4115555}]]></style><g class="B C"><path d="M3.578.177h140.983c1.885 0 3.402 1.517 3.402 3.402v89.971c0 1.885-1.517 3.402-3.402 3.402H3.578c-1.885 0-3.402-1.517-3.402-3.402V3.578C.176 1.694 1.693.177 3.578.177z" fill="#fff6d5" paint-order="normal"/><path d="M6.785 3.352h134.302c1.885 0 3.402 1.517 3.402 3.402v40.706c0 1.885-1.517 3.402-3.402 3.402H6.785c-1.885 0-3.402-1.517-3.402-3.402V6.753c0-1.885 1.517-3.402 3.402-3.402z" fill="#ffe6d5" paint-order="normal"/><path d="M43.714 54.027h55.763c1.885 0 3.402 1.517 3.402 3.402v32.893c0 1.885-1.517 3.402-3.402 3.402H43.714c-1.885 0-3.402-1.517-3.402-3.402V57.429c0-1.885 1.517-3.402 3.402-3.402z" paint-order="normal" class="D"/></g><path d="M43.131 85.307l.215.007q.212.007.277.007.059 0 .494-.014l.014.012v.086l-.014.012q-.119.003-.184.01-.064.007-.093.026-.029.019-.04.09-.009.069-.009.193l-.003.396v.798l.002.336q.002.195.01.251.009.057.024.076.017.019.064.033.047.012.229.019l.014.01v.086l-.014.014q-.009 0-.303-.01-.122-.003-.191-.003-.053 0-.493.014l-.014-.014v-.086l.014-.01q.16-.007.214-.017.053-.01.071-.026.019-.017.029-.071.012-.053.014-.238l.002-.363v-.798l-.003-.336q-.002-.196-.01-.253-.007-.057-.024-.076-.016-.019-.062-.031-.047-.012-.229-.019l-.014-.012v-.086zm.517-.127zm-.024 2.665z"/><use xlink:href="#B"/><use xlink:href="#C"/><use xlink:href="#D"/><use xlink:href="#C" x="2.177"/><use xlink:href="#E"/><use xlink:href="#F"/><path d="M53.287 87.149l.014-.014h.084l.014.014q.009.22.022.27.016.048.093.103.079.053.208.088.131.034.264.034.183 0 .327-.067.146-.067.227-.196.081-.131.081-.293 0-.114-.04-.198-.038-.084-.109-.134-.069-.052-.158-.076-.09-.026-.267-.055-.172-.028-.27-.05-.096-.022-.193-.069-.096-.046-.162-.117-.064-.072-.103-.176-.038-.105-.038-.224 0-.322.224-.527.224-.207.601-.207.15 0 .326.038.177.036.322.109l.012.021q-.038.158-.047.451l-.016.014h-.09l-.014-.012q-.003-.207-.01-.26-.007-.053-.157-.133-.15-.079-.326-.079-.146 0-.274.059-.127.059-.193.184-.065.126-.065.257 0 .102.04.181.04.078.102.124.064.045.146.067.084.022.307.055.305.043.443.105.14.06.222.193.084.133.084.32 0 .367-.3.612-.298.245-.723.245-.357 0-.625-.127l-.01-.022q.017-.109.026-.506z"/><use xlink:href="#D" x="7.704"/><use xlink:href="#E" x="6.676"/><use xlink:href="#D" x="10.618"/><use xlink:href="#G"/><path d="M44.32 89.186v.282q-.127-.081-.255-.123-.127-.041-.256-.041-.197 0-.311.092-.114.091-.114.247 0 .136.074.208.076.072.281.12l.146.033q.289.067.422.212.132.145.132.394 0 .294-.182.448-.182.154-.529.154-.145 0-.291-.032-.146-.03-.294-.092v-.296q.158.101.299.147.142.047.285.047.211 0 .328-.094.117-.095.117-.265 0-.154-.081-.236-.08-.081-.28-.125l-.149-.034q-.287-.065-.416-.196-.13-.131-.13-.351 0-.276.185-.441.186-.167.493-.167.119 0 .249.028.131.026.276.08z"/><use xlink:href="#H"/><path d="M47.288 90.397h-.084q-.222 0-.335.079-.112.077-.112.232 0 .139.084.216.084.077.233.077.209 0 .329-.145.12-.146.121-.402v-.056zm.492-.105v.881h-.255v-.229q-.081.138-.205.204-.123.065-.299.065-.236 0-.376-.132-.141-.134-.141-.357 0-.258.172-.391.174-.134.508-.134h.34v-.04q-.001-.185-.094-.267-.092-.084-.295-.084-.13 0-.262.037-.132.037-.258.109V89.7q.141-.054.269-.08.13-.028.251-.028.192 0 .327.056.136.056.22.169.052.069.074.171.022.101.022.303z"/><use xlink:href="#H" x="3.396"/><use xlink:href="#I"/><use xlink:href="#J"/><use xlink:href="#F" x="-43.235"/><use xlink:href="#E" x="-40.446"/><use xlink:href="#B" x="-33.424"/><use xlink:href="#B" x="-31.371"/><use xlink:href="#C" x="-31.372"/><use xlink:href="#B" x="-28.291"/><path d="M19.883 86.219l.014.031q-.071.109-.088.141h-.32q.048.095.048.198 0 .122-.057.238-.055.115-.155.196-.1.081-.227.129-.126.048-.288.048h-.079q-.102.081-.131.121-.029.04-.029.081 0 .076.069.107.071.031.289.031l.386-.005q.183 0 .279.043.098.043.158.155.06.11.06.234 0 .189-.124.377-.122.189-.355.288-.233.098-.496.098-.15 0-.282-.033-.131-.033-.231-.1-.098-.066-.158-.172-.06-.107-.06-.222 0-.064.019-.134.019-.069.072-.15l.312-.174q-.15-.046-.189-.091-.038-.046-.038-.11 0-.066.043-.155l.277-.2q-.245-.064-.331-.191-.084-.127-.084-.279 0-.14.06-.265.06-.127.181-.203.122-.076.272-.119.152-.045.276-.045.215 0 .41.14.312 0 .498-.007zm-1.4.4q0 .105.041.226.041.121.133.183.093.062.208.062.153 0 .264-.1.112-.1.112-.312 0-.179-.102-.322-.102-.143-.288-.143-.157 0-.264.103-.105.102-.105.303zm.505 1.156q-.277 0-.32.007-.041.007-.119.059-.078.052-.127.14-.048.09-.048.2 0 .195.145.317.145.122.386.122.181 0 .334-.076.153-.076.226-.203.074-.127.074-.245 0-.117-.062-.202-.06-.083-.158-.102-.096-.017-.329-.017z"/><use xlink:href="#J" x="14.842"/><path d="M23.619 86.1l.033.022q-.01.1-.016.355l.129-.164q.064-.081.112-.124.05-.045.115-.069.065-.024.134-.024.076 0 .143.031l.012.024q-.028.229-.031.403h-.078q-.069-.158-.222-.158-.107 0-.186.069-.079.067-.107.171-.026.102-.026.258v.191q0 .052.007.253.007.202.014.233.009.031.024.046.017.014.043.019.028.005.246.017l.016.014v.072l-.016.016q-.229-.014-.479-.014-.198 0-.413.014l-.016-.016v-.072l.016-.014q.167-.01.188-.016.022-.005.038-.021.017-.017.022-.05.007-.034.014-.222.009-.189.009-.286v-.339q0-.069-.007-.188-.007-.119-.012-.146-.003-.028-.026-.04-.022-.014-.09-.014l-.145-.002-.016-.014v-.074l.014-.014q.329-.04.555-.129z"/><use xlink:href="#K"/><use xlink:href="#L"/><use xlink:href="#F" x="-23.013"/><use xlink:href="#G" x="-29.814"/><path d="M31.578 86.1l.033.022q-.01.114-.014.272l.164-.15q.069-.064.091-.081.022-.019.105-.043.083-.024.174-.024.172 0 .301.086.129.084.191.234.233-.22.27-.245.04-.024.124-.048.084-.026.169-.026.136 0 .25.059.114.059.181.153.067.095.078.205.012.11.012.303v.181q0 .029.01.429.003.164.036.195.033.031.212.031l.014.014v.074l-.014.014q-.219-.014-.296-.014-.043 0-.25.014l-.022-.019q.022-.224.022-.584v-.207q0-.274-.026-.382-.026-.11-.121-.179-.095-.071-.226-.071-.093 0-.174.038-.081.036-.146.11-.064.072-.071.136-.007.062-.007.231v.215q0 .076.007.284.007.208.014.243.009.034.024.05.017.014.038.019.022.003.186.014l.016.014v.072l-.014.016q-.215-.014-.415-.014-.184 0-.413.014l-.016-.016v-.072l.016-.014q.167-.01.188-.016.022-.005.038-.021.017-.017.022-.05.007-.034.014-.222.009-.189.009-.286v-.196q0-.195-.028-.3-.026-.105-.114-.177-.088-.072-.22-.072-.103 0-.189.041-.084.04-.14.1-.053.059-.067.11-.012.052-.012.224v.255q0 .076.007.284.007.208.014.243.009.034.024.05.017.014.038.019.022.003.186.014l.016.014v.072l-.014.016q-.215-.014-.415-.014-.198 0-.413.014l-.016-.016v-.072l.016-.014q.167-.01.188-.016.022-.005.038-.021.017-.017.022-.05.007-.034.014-.222.009-.189.009-.286v-.339q0-.069-.007-.188-.007-.119-.012-.146-.003-.028-.026-.04-.022-.014-.09-.014l-.145-.002-.016-.014v-.074l.014-.014q.329-.04.555-.129zM6.434 89.344v.773h.322q.193 0 .3-.102.109-.102.109-.285 0-.183-.107-.284-.107-.102-.302-.102zm-.278-.229h.601q.345 0 .522.157.178.156.178.457 0 .305-.178.46-.176.156-.522.156h-.322v.827h-.278zm3.017.833q-.081-.063-.165-.092-.084-.029-.185-.029-.237 0-.362.149-.125.149-.125.43v.768H8.08v-1.543h.255v.302q.063-.164.194-.251.132-.088.313-.088.094 0 .175.023.081.023.156.073z"/><use xlink:href="#M"/><use xlink:href="#N"/><use xlink:href="#O"/><use xlink:href="#I" x="-35.344"/><use xlink:href="#P"/><use xlink:href="#J" y="-42.862"/><use xlink:href="#F" x="-43.235" y="-42.862"/><use xlink:href="#E" x="-40.446" y="-42.862"/><use xlink:href="#B" x="-33.424" y="-42.863"/><use xlink:href="#B" x="-31.371" y="-42.863"/><use xlink:href="#C" x="-31.372" y="-42.863"/><use xlink:href="#B" x="-28.291" y="-42.863"/><path d="M19.883 43.356l.014.031q-.071.109-.088.141h-.32q.048.095.048.198 0 .122-.057.238-.055.115-.155.196-.1.081-.227.129-.126.048-.288.048h-.079q-.102.081-.131.121-.029.04-.029.081 0 .076.069.107.071.031.289.031l.386-.005q.183 0 .279.043.098.043.158.155.06.11.06.234 0 .189-.124.377-.122.189-.355.288-.233.098-.496.098-.15 0-.282-.033-.131-.033-.231-.1-.098-.065-.158-.172-.06-.107-.06-.222 0-.064.019-.134.019-.069.072-.15l.312-.174q-.15-.047-.189-.091-.038-.047-.038-.11 0-.065.043-.155l.277-.2q-.245-.064-.331-.191-.084-.127-.084-.279 0-.14.06-.265.06-.127.181-.203.122-.076.272-.119.152-.045.276-.045.215 0 .41.14.312 0 .498-.007zm-1.4.4q0 .105.041.226.041.121.133.183.093.062.208.062.153 0 .264-.1.112-.1.112-.312 0-.179-.102-.322-.102-.143-.288-.143-.157 0-.264.103-.105.102-.105.303zm.505 1.156q-.277 0-.32.007-.041.007-.119.059-.078.052-.127.14-.048.09-.048.2 0 .195.145.317.145.122.386.122.181 0 .334-.076.153-.076.226-.203.074-.127.074-.245 0-.117-.062-.202-.06-.083-.158-.102-.096-.017-.329-.017zm1.893-2.455l.014-.012q.298.014.407.014l.806-.017q.345 0 .565.065.22.064.391.224.172.158.26.37.09.21.09.45 0 .233-.081.46-.081.227-.231.408-.148.179-.339.289-.189.11-.381.148-.191.036-.391.036-.134 0-.506-.01-.122-.003-.162-.003-.119 0-.288.014l-.014-.014v-.057l.014-.017q.102-.052.115-.064.016-.014.024-.301.01-.289.01-.441v-.632l-.002-.391q0-.127-.003-.207-.003-.081-.012-.115-.009-.034-.021-.048-.01-.014-.036-.022-.024-.01-.084-.017l-.131-.01-.014-.012zm.637 2.248q.176.034.405.034.401 0 .641-.134.241-.134.36-.398.119-.264.119-.594 0-.487-.26-.756-.26-.269-.82-.269-.231 0-.444.034-.014.282-.014.637v.541l.003.506q0 .148.01.398z"/><use xlink:href="#K" x="-0.792" y="-42.862"/><path d="M26.121 43.237l.033.022q-.01.114-.014.272l.164-.15q.069-.064.091-.081.022-.019.105-.043.083-.024.174-.024.172 0 .301.086.129.084.191.234.233-.22.27-.245.04-.024.124-.048.084-.026.169-.026.136 0 .25.059.114.059.181.153.067.095.078.205.012.11.012.303v.181q0 .029.01.429.003.164.036.195.033.031.212.031l.014.014v.074l-.014.014q-.219-.014-.296-.014-.043 0-.25.014l-.022-.019q.022-.224.022-.584v-.207q0-.274-.026-.382-.026-.11-.121-.179-.095-.071-.226-.071-.093 0-.174.038-.081.036-.146.11-.064.072-.071.136-.007.062-.007.231v.215q0 .076.007.284.007.208.014.243.009.034.024.05.017.014.038.019.022.003.186.014l.016.014v.072l-.014.016q-.215-.014-.415-.014-.184 0-.413.014l-.016-.016v-.072l.016-.014q.167-.01.188-.016.022-.005.038-.021.017-.017.022-.05.007-.034.014-.222.009-.189.009-.286V44q0-.195-.028-.3-.026-.105-.114-.177-.088-.072-.22-.072-.103 0-.189.041-.084.04-.14.1-.053.059-.067.11-.012.052-.012.224v.255q0 .076.007.284.007.208.014.243.009.034.024.05.017.014.038.019.022.003.186.014l.016.014v.072l-.014.016q-.215-.014-.415-.014-.198 0-.413.014l-.016-.016v-.072l.016-.014q.167-.01.188-.016.022-.005.038-.021.017-.017.022-.05.007-.034.014-.222.009-.189.009-.286v-.339q0-.069-.007-.188-.007-.119-.012-.146-.003-.028-.026-.04-.022-.014-.09-.014l-.145-.002-.016-.014v-.074l.014-.014q.329-.04.555-.129z"/><use xlink:href="#E" x="-20.878" y="-42.862"/><use xlink:href="#C" x="-15.91" y="-42.863"/><use xlink:href="#B" x="-12.829" y="-42.863"/><path d="M6.485 48.082q.351 0 .491-.172.139-.174.139-.626 0-.456-.139-.628-.138-.174-.491-.174h-.132v1.6zm.005-1.829q.471 0 .695.251.223.251.223.78 0 .526-.223.777-.223.249-.695.249h-.418v-2.057z"/><use xlink:href="#M" x="-1.698" y="-42.862"/><use xlink:href="#P" x="-6.791" y="-42.862"/><use xlink:href="#Q"/><use xlink:href="#R"/><use xlink:href="#S"/><path d="M109.122 78.245h31.856c1.885 0 3.402 1.517 3.402 3.402v8.675c0 1.885-1.517 3.402-3.402 3.402h-31.856c-1.885 0-3.402-1.517-3.402-3.402v-8.675c0-1.885 1.517-3.402 3.402-3.402z" paint-order="normal" class="B C D"/><path d="M111.226 86.803v.052l-.007.021-.084.05q-.031.019-.036.029-.005.01-.014.103-.007.091-.007.224 0 .15.019.326l-.01.017q-.472.181-.97.181-.382 0-.691-.145-.308-.145-.489-.429-.181-.284-.181-.675 0-.596.407-.947.408-.351 1.065-.351.482 0 .866.164l.012.019q-.031.115-.072.484l-.014.012h-.079l-.014-.014-.009-.183q-.005-.09-.012-.105-.005-.016-.036-.04-.031-.026-.16-.079-.127-.055-.257-.079-.129-.026-.277-.026-.315 0-.558.131-.243.131-.367.382-.122.25-.122.556 0 .317.133.591.133.272.381.425.248.153.577.153.143 0 .291-.028.15-.029.246-.081.016-.055.016-.222v-.191q0-.136-.017-.169-.017-.034-.086-.048-.067-.014-.293-.017l-.016-.016v-.076l.016-.016.105.003q.27.009.441.009.098 0 .288-.01z"/><use xlink:href="#K" x="86.99"/><use xlink:href="#E" x="63.79"/><use xlink:href="#F" x="63.791"/><path d="M117.693 86.58v.35l.002.336q.002.188.01.25.009.06.024.079.017.017.064.031.047.012.229.019l.014.01v.086l-.014.014q-.438-.014-.494-.014-.055 0-.493.014l-.014-.014v-.086l.014-.01q.162-.007.214-.017.053-.01.071-.028.019-.017.029-.069.012-.052.014-.234l.002-.367v-.798l-.003-.336q-.002-.196-.01-.253-.007-.057-.024-.076-.016-.019-.062-.031-.047-.012-.229-.019l-.014-.012v-.086l.014-.012q.73.01.853.01.41 0 .841-.01l.014.012q-.028.086-.036.196-.009.109-.019.308l-.014.014h-.081l-.012-.014q-.003-.012-.016-.133-.009-.095-.028-.174-.179-.06-.494-.06-.141 0-.331.021-.019.134-.019.655v.298q.219.003.298.003.146 0 .251-.01.105-.012.126-.022.021-.01.031-.038.012-.029.022-.126l.01-.093.012-.014h.088l.014.016-.012.377q0 .066.005.189.007.141.007.219l-.016.014h-.086l-.012-.014-.007-.146q-.005-.086-.017-.126-.012-.04-.04-.052-.028-.012-.122-.022-.095-.01-.291-.01-.174 0-.262.005z"/><use xlink:href="#K" x="94.555"/><use xlink:href="#T"/><path d="M122.86 86.1l.033.022q-.01.114-.014.272l.164-.15q.069-.064.091-.081.022-.019.105-.043.083-.024.174-.024.172 0 .301.086.129.084.191.234.233-.22.27-.245.04-.024.124-.048.084-.026.169-.026.136 0 .25.059.114.059.181.153.067.095.077.205.012.11.012.303v.181q0 .029.01.429.003.164.036.195.033.031.212.031l.014.014v.074l-.014.014q-.219-.014-.296-.014-.043 0-.25.014l-.022-.019q.022-.224.022-.584v-.207q0-.274-.026-.382-.026-.11-.121-.179-.095-.071-.226-.071-.093 0-.174.038-.081.036-.146.11-.064.072-.071.136-.007.062-.007.231v.215q0 .076.007.284.007.208.014.243.009.034.024.05.017.014.038.019.022.003.186.014l.016.014v.072l-.014.016q-.215-.014-.415-.014-.184 0-.413.014l-.016-.016v-.072l.016-.014q.167-.01.188-.016.022-.005.038-.021.017-.017.022-.05.007-.034.014-.222.009-.189.009-.286v-.196q0-.195-.028-.3-.026-.105-.114-.177-.088-.072-.22-.072-.103 0-.189.041-.084.04-.14.1-.053.059-.067.11-.012.052-.012.224v.255q0 .076.007.284.007.208.014.243.009.034.024.05.017.014.038.019.022.003.186.014l.016.014v.072l-.014.016q-.215-.014-.415-.014-.198 0-.413.014l-.016-.016v-.072l.016-.014q.167-.01.188-.016.022-.005.038-.021.017-.017.022-.05.007-.034.014-.222.009-.189.009-.286v-.339q0-.069-.007-.188-.007-.119-.012-.146-.003-.028-.026-.04-.022-.014-.09-.014l-.145-.002-.016-.014v-.074l.014-.014q.329-.04.555-.129z"/><path d="M125.937 86.1l.033.022q-.019.226-.019.574v.401q0 .22.033.307.035.086.117.133.083.045.196.045.126 0 .229-.048.103-.05.172-.14.071-.09.081-.121.01-.031.014-.174l.005-.193v-.186q0-.069-.007-.188-.007-.119-.012-.146-.003-.028-.026-.04-.022-.014-.09-.014l-.145-.002-.016-.014v-.074l.014-.014q.329-.04.555-.129l.033.022q-.019.226-.019.574v.303q0 .026.009.422.003.146.017.179.016.031.041.045.026.012.153.012h.048l.016.014v.069l-.014.016q-.243-.014-.326-.014-.105 0-.243.012l-.016-.014q.01-.176.016-.298-.109.084-.248.226-.053.053-.153.09-.1.036-.227.036-.193 0-.301-.06-.107-.062-.152-.169-.045-.109-.045-.372l.002-.136v-.336q0-.069-.007-.188-.007-.119-.012-.146-.003-.028-.026-.04-.022-.014-.09-.014l-.145-.002-.016-.014v-.074l.014-.014q.329-.04.555-.129zm.412-.109zm.017 1.853z"/><use xlink:href="#F" x="76.228"/><path d="M128.862 86.573l-.067-.017-.014-.017v-.214q.307-.227.596-.227.198 0 .329.074.131.074.189.186.059.11.059.258l-.009.346v.513q0 .105.014.127.016.022.035.031.019.007.071.012l.098.009.014.016v.069l-.014.014q-.126-.01-.234-.01-.103 0-.248.01l-.026-.024.007-.277-.376.293q-.095.04-.207.04-.138 0-.238-.05-.098-.05-.152-.14-.052-.09-.052-.217 0-.253.158-.394.158-.143.865-.243 0-.255-.114-.358-.114-.105-.305-.105-.1 0-.183.029-.081.029-.093.048-.012.017-.093.21zm.799.272q-.482.081-.601.174-.119.093-.119.288 0 .269.267.269.229 0 .453-.265zm-.293-.854zm-.036 1.853zm-20.725 1.271h1.57v.234h-.644v1.823h-.28V89.35h-.646z"/><use xlink:href="#U"/><use xlink:href="#V"/><use xlink:href="#W"/><g fill="#ffd5e5" class="B C"><path d="M79.546 6.98h58.031c1.885 0 3.402 1.517 3.402 3.402v33.902c0 1.885-1.517 3.402-3.402 3.402H79.546c-1.885 0-3.402-1.517-3.402-3.402V10.382c0-1.885 1.517-3.402 3.402-3.402z" paint-order="normal"/><path d="M43.714 6.98H70.03c1.885 0 3.402 1.517 3.402 3.402v12.053c0 1.885-1.517 3.402-3.402 3.402H43.714c-1.885 0-3.402-1.517-3.402-3.402V10.382c0-1.885 1.517-3.402 3.402-3.402z" paint-order="normal" class="E"/></g><path d="M79.088 44.893l-.016-.014v-.09l.016-.014q.126-.002.162-.012.036-.012.064-.045.029-.034.115-.22l.181-.393.469-1.061q.133-.312.264-.624h.112l.736 1.729.098.231q.043.098.098.214.057.115.078.136.022.021.053.033.033.01.143.012l.014.014v.09l-.014.014q-.183-.016-.329-.016-.286.009-.572.016l-.014-.014v-.09l.014-.014q.193-.003.241-.016.048-.014.048-.06 0-.038-.024-.1l-.212-.525h-.997l-.188.441q-.05.119-.05.174 0 .043.046.064.046.021.234.022l.016.014v.09l-.014.014q-.222-.014-.389-.014-.189 0-.382.014zm.785-.966h.872l-.432-1.039zm.522-1.609zm-.04 2.665z"/><use xlink:href="#X"/><use xlink:href="#Y"/><use xlink:href="#C" x="38.195" y="-42.863"/><use xlink:href="#K" x="61.146" y="-42.862"/><use xlink:href="#Z"/><path d="M90.497 44.286l.014-.014h.084l.014.014q.009.22.022.27.016.048.093.103.079.053.208.088.131.034.264.034.183 0 .327-.067.146-.067.227-.196.081-.131.081-.293 0-.114-.04-.198-.038-.084-.109-.134-.069-.052-.158-.076-.09-.026-.267-.055-.172-.028-.27-.05-.097-.022-.193-.069-.097-.047-.162-.117-.064-.072-.103-.176-.038-.105-.038-.224 0-.322.224-.527.224-.207.601-.207.15 0 .326.038.177.036.322.109l.012.021q-.038.158-.046.451l-.016.014h-.09l-.014-.012q-.003-.207-.01-.26-.007-.053-.157-.133-.15-.079-.326-.079-.146 0-.274.059-.127.059-.193.184-.066.126-.066.257 0 .102.04.181.04.078.102.124.064.045.146.067.084.022.307.055.305.043.443.105.14.06.222.193.084.133.084.32 0 .367-.3.612-.298.245-.723.245-.357 0-.625-.127l-.01-.022q.017-.109.026-.506z"/><use xlink:href="#X" x="10.459"/><path d="M94.364 42.328l.033.021q-.019.198-.019.794v.425q.145-.119.269-.236.036-.033.069-.048.033-.016.105-.033.074-.017.152-.017.131 0 .253.053.124.053.186.127.064.072.088.172.024.1.024.246v.303q0 .029.009.429.005.164.036.195.033.031.214.031l.014.014v.074l-.014.014q-.219-.014-.296-.014-.04 0-.251.014l-.021-.019q.022-.224.022-.584v-.226q0-.203-.01-.293-.009-.09-.057-.162-.048-.074-.129-.114-.079-.041-.193-.041-.117 0-.196.033-.078.031-.158.107-.081.076-.098.127-.016.05-.016.195v.307q0 .038.007.245.007.205.014.239.009.034.024.05.016.016.038.021.022.003.186.014l.016.014v.072l-.014.016q-.215-.014-.415-.014-.198 0-.413.014l-.016-.016v-.072l.016-.014q.167-.01.188-.016.022-.005.038-.021.017-.017.022-.05.007-.034.014-.222.009-.189.009-.286v-.892l-.007-.365q-.005-.191-.012-.265-.005-.074-.016-.088-.01-.014-.036-.021-.026-.007-.208-.007l-.016-.016v-.072l.014-.016q.329-.038.555-.127z"/><use xlink:href="#a"/><path d="M98.153 43.237l.033.022q-.01.114-.014.272l.164-.15q.069-.064.091-.081.022-.019.105-.043.083-.024.174-.024.172 0 .301.086.129.084.191.234.233-.22.27-.245.04-.024.124-.048.084-.026.169-.026.136 0 .25.059.114.059.181.153.067.095.077.205.012.11.012.303v.181q0 .029.01.429.003.164.036.195.033.031.212.031l.014.014v.074l-.014.014q-.219-.014-.296-.014-.043 0-.25.014l-.022-.019q.022-.224.022-.584v-.207q0-.274-.026-.382-.026-.11-.121-.179-.095-.071-.226-.071-.093 0-.174.038-.081.036-.146.11-.064.072-.071.136-.007.062-.007.231v.215q0 .076.007.284.007.208.014.243.009.034.024.05.017.014.038.019.022.003.186.014l.016.014v.072l-.014.016q-.215-.014-.415-.014-.184 0-.413.014l-.016-.016v-.072l.016-.014q.167-.01.188-.016.022-.005.038-.021.017-.017.022-.05.007-.034.014-.222.009-.189.009-.286V44q0-.195-.028-.3-.026-.105-.114-.177-.088-.072-.22-.072-.103 0-.189.041-.084.04-.14.1-.053.059-.067.11-.012.052-.012.224v.255q0 .076.007.284.007.208.014.243.009.034.024.05.017.014.038.019.022.003.186.014l.016.014v.072l-.014.016q-.215-.014-.415-.014-.198 0-.413.014l-.016-.016v-.072l.016-.014q.167-.01.188-.016.022-.005.038-.021.017-.017.022-.05.007-.034.014-.222.009-.189.009-.286v-.339q0-.069-.007-.188-.007-.119-.012-.146-.003-.028-.026-.04-.022-.014-.09-.014l-.145-.002-.016-.014v-.074l.014-.014q.329-.04.555-.129z"/><use xlink:href="#E" x="51.155" y="-42.862"/><use xlink:href="#b"/><path d="M43.714 28.829H70.03c1.885 0 3.402 1.517 3.402 3.402v12.053c0 1.885-1.517 3.402-3.402 3.402H43.714c-1.885 0-3.402-1.517-3.402-3.402V32.231c0-1.885 1.517-3.402 3.402-3.402z" fill="#ffd5e5" paint-order="normal" class="B C"/><path d="M43.78 43.718v.35l.002.336q.002.188.01.25.009.06.024.079.017.017.064.031.047.012.229.019l.014.01v.086l-.014.014q-.438-.014-.494-.014-.055 0-.493.014l-.014-.014v-.086l.014-.01q.162-.007.214-.017.053-.01.071-.028.019-.017.029-.069.012-.052.014-.234l.002-.367v-.798l-.003-.336q-.002-.196-.01-.253-.007-.057-.024-.076-.016-.019-.062-.031-.047-.012-.229-.019l-.014-.012v-.086l.014-.012q.73.01.853.01.41 0 .841-.01l.014.012q-.028.086-.036.196-.009.109-.019.308l-.014.014h-.081l-.012-.014q-.003-.012-.016-.133-.009-.095-.028-.174-.179-.06-.494-.06-.141 0-.331.021-.019.134-.019.655v.298q.219.003.298.003.146 0 .251-.01.105-.012.126-.022.021-.01.031-.038.012-.029.022-.126l.01-.093.012-.014h.088l.014.016-.012.377q0 .065.005.189.007.141.007.219l-.016.014h-.086l-.012-.014-.007-.146q-.005-.086-.017-.126-.012-.04-.04-.052-.028-.012-.122-.022-.095-.01-.291-.01-.174 0-.262.005z"/><use xlink:href="#F" x="-6.249" y="-42.862"/><use xlink:href="#c"/><use xlink:href="#a" x="-47.683"/><use xlink:href="#B" x="5.616" y="-42.863"/><use xlink:href="#D" x="4.589" y="-42.862"/><use xlink:href="#b" x="-49.357"/><path d="M45.108 20.22l.016.016q-.016.155-.016.541l-.014.014h-.081L45 20.775l-.019-.158q-.014-.127-.022-.155-.007-.029-.024-.041-.017-.014-.112-.022-.095-.009-.212-.009h-.326q-.014.389-.014.45v1.004l.003.336q.002.195.009.253.009.057.024.076.017.017.064.031.047.012.231.019l.012.01v.086l-.012.014q-.441-.014-.493-.014-.055 0-.491.014l-.014-.014v-.086l.014-.01q.162-.007.214-.017.053-.01.071-.026.019-.017.031-.071.012-.053.012-.238l.003-.363v-1.004q0-.028-.014-.45h-.257q-.158 0-.274.007-.115.007-.134.036-.017.028-.033.184l-.017.158-.016.016h-.079l-.014-.014q-.003-.415-.016-.541l.016-.016q.3.014.997.014.711 0 .999-.014z"/><path d="M45.27 23.589q.059-.145.088-.265h.041q.084.091.183.091.122 0 .212-.122.091-.121.257-.536-.065-.184-.133-.348l-.274-.679q-.043-.105-.127-.3-.084-.196-.102-.215-.016-.021-.041-.038-.026-.017-.14-.033l-.014-.014v-.069l.016-.014q.198.012.407.012.245 0 .377-.012l.014.014v.069l-.012.014q-.019.002-.107.009-.086.005-.109.028-.021.021-.021.048 0 .029.053.191.053.16.103.284l.109.269q.107.265.165.391l.091-.202q.048-.11.138-.334l.143-.365q.055-.141.062-.176.009-.034.009-.05 0-.038-.028-.052-.028-.014-.122-.024l-.072-.01-.012-.014v-.076l.014-.014q.145.012.343.012.181 0 .289-.012l.014.014v.076l-.014.014q-.064.002-.102.017-.038.016-.072.055-.034.04-.124.224-.09.183-.179.379l-.169.37-.398.93q-.052.121-.129.258-.076.138-.188.198-.11.062-.234.062-.109 0-.205-.057zm.922-2.685zm.405 1.853z"/><path d="M47.794 20.992l.033.021q-.017.196-.019.348.234-.214.326-.282.093-.069.319-.069.141 0 .257.04.115.038.214.127.098.088.155.222.057.133.057.308 0 .124-.04.251-.04.127-.105.236-.064.109-.103.145-.038.034-.158.105-.109.065-.215.141-.074.053-.103.069-.029.016-.098.031-.069.016-.146.016-.179 0-.357-.091v.367q0 .038.007.243.007.207.014.241.009.034.024.05.016.016.038.019.022.005.186.016l.016.014v.072l-.014.016q-.215-.014-.413-.014-.198 0-.413.014l-.016-.016v-.072l.016-.014q.165-.01.188-.016.022-.005.038-.022.017-.016.022-.052.007-.036.014-.231.009-.195.009-.293v-1.319q0-.09-.009-.207-.007-.119-.012-.138-.005-.019-.026-.031-.019-.012-.088-.012l-.145-.002-.016-.014v-.074l.014-.014q.329-.04.553-.129zm.014 1.321q.079.081.196.141.117.059.258.059.167 0 .295-.084.129-.084.2-.246.071-.164.071-.362 0-.16-.064-.298-.062-.138-.195-.217-.131-.079-.279-.079-.091 0-.177.033-.086.031-.162.093-.074.062-.107.119-.033.055-.034.093-.002.036-.002.081z"/><use xlink:href="#a" x="-46.553" y="-22.225"/><use xlink:href="#b" x="-51.431" y="-22.225"/><path d="M44.095 11.012q0-.295-.094-.445-.094-.15-.277-.15-.185 0-.28.152-.095.15-.095.444 0 .292.095.444.095.152.28.152.183 0 .277-.15.094-.15.094-.445zm-.746-.576q.061-.113.167-.174.107-.061.248-.061.278 0 .438.215.16.214.16.59 0 .382-.161.599-.16.216-.44.216-.138 0-.244-.059-.105-.061-.168-.175v.194h-.254V9.638h.254zm2.06.787q0 .171.062.258.063.087.186.087h.296v.215h-.321q-.227 0-.353-.146-.124-.146-.124-.413V9.821h-.407v-.198h.66z"/><use xlink:href="#M" x="36.947" y="-79.391"/><use xlink:href="#d"/><use xlink:href="#e"/><use xlink:href="#f"/><use xlink:href="#V" x="-67.313" y="-76.216"/><use xlink:href="#R" x="33.647" y="-33.353"/><use xlink:href="#g"/><use xlink:href="#g" x="1.698"/><path d="M52.948 14.122v.124H51.85v.008q0 .252.131.39.132.138.372.138.121 0 .254-.039.132-.039.282-.117v.252q-.145.059-.28.088-.134.03-.259.03-.36 0-.562-.215-.203-.216-.203-.595 0-.369.198-.59.198-.22.529-.22.295 0 .464.2.171.2.171.546zm-.254-.074q-.005-.223-.106-.339-.099-.117-.287-.117-.183 0-.302.121-.119.121-.141.336z"/><use xlink:href="#V" x="-58.824" y="-76.216"/><path d="M43.096 17.712h.347v.42h-.347zm1.698 0h.347v.42h-.347zm1.698 0h.347v.42h-.347z"/><use xlink:href="#h"/><use xlink:href="#M" x="34.94" y="-57.166"/><use xlink:href="#S" x="31.544" y="-14.303"/><use xlink:href="#i"/><use xlink:href="#j"/><use xlink:href="#i" x="5.093"/><use xlink:href="#k"/><use xlink:href="#l"/><use xlink:href="#h" y="3.704"/><path d="M45.684 35.567v.211h-.288q-.136 0-.19.056-.052.055-.052.197v.136h.531v.197h-.531v1.346H44.9v-1.346h-.412v-.197h.412v-.107q0-.254.116-.373.117-.12.364-.12z"/><use xlink:href="#V" x="-66.021" y="-53.462"/><use xlink:href="#m"/><use xlink:href="#m" x="1.698"/><use xlink:href="#i" x="3.395" y="3.705"/><use xlink:href="#f" x="11.479" y="22.754"/><use xlink:href="#l" x="-1.698" y="3.704"/><path d="M43.096 39.937h.347v.42h-.347zm1.698 0h.347v.42h-.347zm1.698 0h.347v.42h-.347z"/><path d="M46.467 56.722h18.28c1.885 0 3.402 1.517 3.402 3.402v18.231c0 1.885-1.517 3.402-3.402 3.402h-18.28c-1.885 0-3.402-1.517-3.402-3.402V60.124c0-1.885 1.517-3.402 3.402-3.402z" fill="#d5fff6" paint-order="normal" class="B C"/><path d="M45.758 77.559q0-.258.074-.482.074-.224.251-.413.179-.191.431-.295.251-.105.568-.105.587 0 .935.32.348.319.348.872 0 .389-.171.699-.171.31-.489.482-.317.172-.713.172-.281 0-.517-.093-.236-.095-.403-.281-.165-.186-.241-.431-.074-.245-.074-.446zm.358-.114q0 .21.067.453.069.241.203.415.136.172.312.257.177.084.403.084.267 0 .475-.122.208-.122.317-.379.109-.258.109-.579 0-.348-.124-.629-.124-.281-.353-.408-.229-.127-.508-.127-.419 0-.66.262-.241.262-.241.773zm.92-1.261zm.009 2.665z"/><use xlink:href="#L" x="22.172" y="-8.996"/><path d="M50.819 76.334q.079 0 .136.057.057.055.057.138 0 .079-.057.136-.057.057-.136.057-.081 0-.138-.057-.057-.057-.057-.136 0-.081.057-.138.057-.057.138-.057zm-.432.913l.016-.014q.327-.04.555-.129l.031.022q-.019.226-.019.632v.317l.005.549q0 .284-.047.525-.047.241-.208.412-.162.172-.374.172-.012 0-.036-.002l-.017-.098.016-.022q.038.003.06.003.057 0 .112-.033.055-.031.1-.098.045-.067.065-.167.021-.098.028-.31.009-.21.009-.281v-1.003q0-.069-.007-.186-.005-.119-.01-.148-.005-.029-.029-.041-.022-.012-.086-.012l-.146-.002-.016-.014z"/><use xlink:href="#G" x="-7.841" y="-8.996"/><use xlink:href="#n"/><path d="M54.56 77.393v-.045l.012-.017q.162-.06.262-.112 0-.45-.01-.524.177-.062.291-.133l.041.034q-.017.109-.041.63.086.002.186.002.203 0 .291-.01l.012.012-.033.145-.014.016q-.088-.002-.195-.002-.096 0-.248.002l-.01.701q0 .243.01.319.012.074.062.117.052.041.152.041.115 0 .214-.06l.041.062q-.041.029-.198.172-.09.041-.183.041-.388 0-.388-.376 0-.138.007-.234.002-.029.002-.06V77.4h-.071q-.078 0-.177.007z"/><use xlink:href="#b" x="-46.767" y="33.867"/><use xlink:href="#Q" x="34.5" y="13.214"/><path d="M49.362 60.638h.718v.226h-.718z"/><use xlink:href="#N" x="41.29" y="-29.649"/><use xlink:href="#O" x="41.291" y="-29.649"/><use xlink:href="#M" x="46.384" y="-29.649"/><use xlink:href="#d" x="9.437" y="49.741"/><use xlink:href="#e" x="9.436" y="49.741"/><use xlink:href="#N" x="34.596" y="-26.474"/><path d="M49.459 63.813h.718v.226h-.718z"/><use xlink:href="#N" x="41.387" y="-26.474"/><use xlink:href="#O" x="41.387" y="-26.474"/><use xlink:href="#M" x="46.48" y="-26.474"/><use xlink:href="#d" x="9.533" y="52.916"/><use xlink:href="#e" x="9.533" y="52.916"/><use xlink:href="#d" x="-2.448" y="56.091"/><path d="M49.362 66.988h.718v.226h-.718z"/><use xlink:href="#N" x="41.29" y="-23.299"/><use xlink:href="#O" x="41.291" y="-23.299"/><use xlink:href="#M" x="46.384" y="-23.299"/><use xlink:href="#d" x="9.437" y="56.091"/><use xlink:href="#e" x="9.436" y="56.091"/><use xlink:href="#f" x="2.646" y="56.092"/><use xlink:href="#V" x="-64.667" y="-20.124"/><path d="M51.157 70.163h.718v.226h-.718z"/><use xlink:href="#f" x="11.135" y="56.092"/><use xlink:href="#V" x="-56.178" y="-20.124"/><use xlink:href="#R" x="44.782" y="22.738"/><use xlink:href="#g" x="11.134" y="56.091"/><use xlink:href="#g" x="12.832" y="56.091"/><use xlink:href="#I" x="12.834" y="-20.124"/><use xlink:href="#V" x="-47.69" y="-20.124"/><path d="M46.247 73.803h.347v.42h-.347zm1.697 0h.347v.42h-.347zm1.698 0h.347v.42h-.347z"/><path d="M74.513 56.722h22.36c1.885 0 3.402 1.517 3.402 3.402v27.519c0 1.885-1.517 3.402-3.402 3.402h-22.36c-1.885 0-3.402-1.517-3.402-3.402V60.124c0-1.885 1.517-3.402 3.402-3.402z" fill="#d5fff6" paint-order="normal" class="B C"/><path d="M74.472 86.58v.35l.002.336q.002.188.01.25.009.06.024.079.017.017.064.031.046.012.229.019l.014.01v.086l-.014.014q-.438-.014-.494-.014-.055 0-.493.014l-.014-.014v-.086l.014-.01q.162-.007.214-.017.053-.01.071-.028.019-.017.029-.069.012-.052.014-.234l.002-.367v-.798l-.003-.336q-.002-.196-.01-.253-.007-.057-.024-.076-.016-.019-.062-.031-.046-.012-.229-.019l-.014-.012v-.086l.014-.012q.73.01.853.01.41 0 .841-.01l.014.012q-.028.086-.036.196-.009.109-.019.308l-.014.014h-.081l-.012-.014q-.003-.012-.016-.133-.009-.095-.028-.174-.179-.06-.494-.06-.141 0-.331.021-.019.134-.019.655v.298q.219.003.298.003.146 0 .251-.01.105-.012.126-.022.021-.01.031-.038.012-.029.022-.126l.01-.093.012-.014h.088l.014.016-.012.377q0 .066.005.189.007.141.007.219l-.016.014h-.086l-.012-.014-.007-.146q-.005-.086-.017-.126-.012-.04-.04-.052-.028-.012-.122-.022-.095-.01-.291-.01-.174 0-.262.005z"/><use xlink:href="#F" x="24.443"/><use xlink:href="#c" x="30.691" y="42.863"/><use xlink:href="#G" x="19.771"/><use xlink:href="#Z" x="-6.898" y="42.863"/><use xlink:href="#Y" x="-0.737" y="42.862"/><path d="M85.799 87.772q-.026-.076-.215-.579l-.586-1.449q-.1-.248-.126-.281-.026-.034-.207-.046l-.016-.016v-.079l.016-.016q.264.014.448.014.172 0 .456-.014l.014.014v.095l-.014.014q-.208 0-.25.014-.04.012-.04.048 0 .021.055.184.055.162.098.274l.539 1.363.45-1.13q.046-.115.136-.372.09-.257.09-.308 0-.043-.043-.055-.041-.012-.251-.029l-.016-.014v-.083l.016-.014q.301.014.384.014.067 0 .348-.014l.014.014v.083l-.014.014q-.124.005-.15.019-.026.014-.046.053-.019.04-.122.272l-.537 1.323q-.181.443-.257.687z"/><use xlink:href="#E" x="37.402"/><use xlink:href="#F" x="37.403"/><use xlink:href="#c" x="43.652" y="42.863"/><use xlink:href="#G" x="32.731"/><path d="M93.663 87.235h.074l.016.016q.003.145.017.248.053.081.184.133.131.05.258.05.183 0 .291-.098.11-.098.11-.234 0-.074-.04-.127-.04-.055-.121-.09-.079-.036-.286-.084-.177-.041-.248-.064-.071-.024-.136-.079-.066-.055-.1-.134-.034-.081-.034-.177 0-.231.183-.369.184-.14.458-.14.115 0 .251.033.136.031.207.06l.016.024q-.014.069-.017.362l-.016.016h-.069l-.016-.016q-.007-.105-.019-.146-.012-.043-.062-.091-.05-.05-.141-.083-.091-.034-.193-.034-.105 0-.177.031-.071.031-.115.095-.043.062-.043.152 0 .066.026.117.028.052.083.084.055.031.115.045l.188.048q.241.059.345.102.105.043.162.131.057.086.057.21 0 .238-.196.408-.196.171-.505.171-.109 0-.27-.024-.16-.024-.274-.053l-.009-.022.017-.115q.009-.053.01-.107.002-.055.003-.229z"/><use xlink:href="#h" x="30.692" y="27.516"/><use xlink:href="#M" x="65.632" y="-29.649"/><path d="M78.057 60.567v.956h-.255v-.956q0-.208-.073-.306-.073-.098-.229-.098-.178 0-.274.127-.095.125-.095.361v.872h-.254V59.98h.254v.232q.067-.132.183-.2.116-.069.274-.069.236 0 .351.156.117.154.117.469z"/><use xlink:href="#Q" x="69.027" y="13.214"/><use xlink:href="#N" x="72.423" y="-29.649"/><use xlink:href="#l" x="27.296" y="27.516"/><use xlink:href="#o"/><path d="M92.26 61.289h.433v-1.572l-.466.105v-.254l.463-.102h.278v1.823h.427v.234H92.26z"/><use xlink:href="#h" x="30.692" y="30.691"/><use xlink:href="#M" x="65.632" y="-26.474"/><use xlink:href="#p"/><use xlink:href="#Q" x="69.027" y="16.389"/><use xlink:href="#d" x="35.476" y="52.916"/><use xlink:href="#l" x="27.296" y="30.691"/><use xlink:href="#o" y="3.175"/><use xlink:href="#q"/><use xlink:href="#h" x="30.692" y="33.866"/><use xlink:href="#M" x="65.632" y="-23.299"/><path d="M78.057 66.917v.956h-.255v-.956q0-.208-.073-.306-.073-.098-.229-.098-.178 0-.274.127-.095.125-.095.361v.872h-.254V66.33h.254v.232q.067-.132.183-.2.116-.069.274-.069.236 0 .351.156.117.154.117.469z"/><use xlink:href="#N" x="69.027" y="-23.299"/><use xlink:href="#Q" x="72.423" y="19.564"/><use xlink:href="#l" x="27.296" y="33.866"/><use xlink:href="#o" y="6.35"/><use xlink:href="#q" y="3.175"/><use xlink:href="#h" x="30.692" y="37.041"/><use xlink:href="#M" x="65.632" y="-20.124"/><use xlink:href="#p" y="6.35"/><use xlink:href="#N" x="69.027" y="-20.124"/><use xlink:href="#d" x="35.476" y="59.266"/><use xlink:href="#l" x="27.296" y="37.041"/><use xlink:href="#o" y="9.525"/><path d="M92.26 70.814h.433v-1.572l-.466.105v-.254l.463-.102h.278v1.823h.427v.234H92.26z"/><use xlink:href="#h" x="30.692" y="40.216"/><use xlink:href="#M" x="65.632" y="-16.949"/><path d="M78.057 73.267v.956h-.255v-.956q0-.208-.073-.306-.073-.098-.229-.098-.178 0-.274.127-.095.125-.095.361v.872h-.254V72.68h.254v.232q.067-.132.183-.2.116-.069.274-.069.236 0 .351.156.117.154.117.469z"/><use xlink:href="#d" x="32.08" y="62.441"/><use xlink:href="#Q" x="72.423" y="25.914"/><use xlink:href="#l" x="27.296" y="40.216"/><use xlink:href="#o" y="12.7"/><use xlink:href="#r"/><use xlink:href="#h" x="30.692" y="43.391"/><use xlink:href="#M" x="65.632" y="-13.774"/><use xlink:href="#p" y="12.7"/><use xlink:href="#d" x="32.08" y="65.616"/><use xlink:href="#N" x="72.423" y="-13.774"/><use xlink:href="#l" x="27.296" y="43.391"/><use xlink:href="#o" y="15.875"/><use xlink:href="#r" y="3.175"/><use xlink:href="#h" x="30.692" y="46.566"/><path d="M76.376 78.429v.211h-.288q-.136 0-.19.056-.052.055-.052.197v.136h.531v.197h-.531v1.346h-.254v-1.346h-.412v-.197h.412v-.107q0-.254.116-.373.117-.12.364-.12z"/><use xlink:href="#s"/><path d="M79.839 79.739v.124H78.74v.008q0 .252.131.39.132.138.372.138.121 0 .254-.039.132-.039.282-.117v.252q-.145.059-.28.088-.134.03-.259.03-.36 0-.562-.215-.203-.216-.203-.595 0-.369.198-.59.198-.22.529-.22.295 0 .464.2.171.2.171.546zm-.254-.074q-.006-.223-.106-.339-.099-.117-.287-.117-.183 0-.302.121-.119.121-.141.336z"/><use xlink:href="#U" x="-30.236" y="-10.599"/><use xlink:href="#f" x="40.473" y="65.617"/><use xlink:href="#s" x="8.489"/><use xlink:href="#l" x="28.994" y="46.566"/><use xlink:href="#o" x="1.698" y="19.05"/><path d="M93.958 80.339h.433v-1.572l-.466.105v-.254l.463-.102h.278v1.823h.427v.234h-1.135zm-20.071 2.989h.347v.42h-.347zm1.698 0h.347v.42h-.347zm1.697 0h.347v.42h-.347z"/><path d="M82.343 9.626h52.509c1.885 0 3.402 1.517 3.402 3.402v16.359c0 1.885-1.517 3.402-3.402 3.402H82.343c-1.885 0-3.402-1.517-3.402-3.402V13.028c0-1.885 1.517-3.402 3.402-3.402z" fill="#f6d5ff" paint-order="normal" class="B C"/><use xlink:href="#h" x="38.938" y="-19.58"/><path d="M84.498 12.938v.248q-.109-.063-.219-.095-.11-.032-.225-.032-.172 0-.258.056-.084.055-.084.169 0 .103.063.154.063.051.316.099l.102.019q.189.036.285.143.098.107.098.28 0 .229-.163.358-.163.128-.452.128-.114 0-.24-.025-.125-.023-.271-.072v-.262q.142.073.271.11.13.036.245.036.168 0 .26-.068.092-.069.092-.192 0-.176-.338-.244l-.011-.003-.095-.019q-.219-.043-.32-.143-.101-.102-.101-.277 0-.222.15-.342.15-.121.429-.121.124 0 .238.023.114.022.225.068z"/><use xlink:href="#t"/><use xlink:href="#Q" x="75.576" y="-33.882"/><use xlink:href="#d" x="40.327" y="2.645"/><use xlink:href="#e" x="40.326" y="2.646"/><use xlink:href="#u"/><use xlink:href="#f" x="52.115" y="-0.529"/><use xlink:href="#u" x="5.094"/><use xlink:href="#j" x="49.124" y="-19.58"/><use xlink:href="#u" x="10.187"/><use xlink:href="#k" x="49.124" y="-19.579"/><use xlink:href="#l" x="49.124" y="-19.58"/><use xlink:href="#v"/><path d="M83.367 17.727l-.054-.014-.011-.014v-.171q.245-.182.477-.182.158 0 .263.059.105.059.152.149.047.088.047.207l-.007.277v.411q0 .084.011.102.012.018.028.025.015.005.056.01l.079.007.011.012v.055l-.011.011q-.101-.008-.187-.008-.083 0-.198.008L84 18.652l.006-.222-.3.234q-.076.032-.165.032-.11 0-.19-.04-.079-.04-.121-.112-.041-.072-.041-.174 0-.203.127-.316.127-.114.692-.194 0-.204-.091-.287-.091-.084-.244-.084-.08 0-.146.023-.065.023-.074.039-.01.014-.074.168zm.639.218q-.386.065-.481.139-.095.074-.095.23 0 .215.214.215.183 0 .362-.212zm-.234-.684zm-.029 1.483z"/><use xlink:href="#w"/><path d="M85.891 17.727l-.054-.014-.011-.014v-.171q.245-.182.477-.182.158 0 .263.059.105.059.152.149.047.088.047.207l-.007.277v.411q0 .084.011.102.012.018.028.025.015.005.056.01l.079.007.011.012v.055l-.011.011q-.101-.008-.187-.008-.083 0-.198.008l-.021-.019.006-.222-.3.234q-.076.032-.165.032-.11 0-.19-.04-.079-.04-.121-.112-.041-.072-.041-.174 0-.203.127-.316.127-.114.692-.194 0-.204-.091-.287-.091-.084-.244-.084-.08 0-.146.023-.065.023-.074.039-.01.014-.074.168zm.639.218q-.386.065-.481.139-.095.074-.095.23 0 .215.214.215.183 0 .362-.212zm-.234-.684zm-.029 1.483z"/><path d="M87.517 17.348l.026.018q-.008.091-.011.218l.131-.12q.055-.051.073-.065.018-.015.084-.034.066-.019.139-.019.138 0 .241.069.103.068.153.187.186-.176.216-.196.032-.019.099-.039.067-.021.135-.021.109 0 .2.047.091.047.145.123.054.076.062.164.01.088.01.243v.145q0 .023.008.343.003.131.029.156.026.025.169.025l.011.011v.059l-.011.011q-.175-.011-.237-.011-.034 0-.2.011l-.018-.015q.018-.179.018-.467v-.165q0-.219-.021-.306-.021-.088-.097-.143-.076-.056-.181-.056-.074 0-.139.03-.065.029-.117.088-.051.058-.056.109-.006.05-.006.185v.172q0 .061.006.227.006.167.011.194.007.028.019.04.014.011.03.015.018.003.149.011l.012.011v.058l-.011.012q-.172-.011-.332-.011-.147 0-.331.011l-.012-.012v-.058l.012-.011q.134-.008.15-.012.018-.004.03-.017.014-.014.018-.04.006-.028.011-.178.007-.152.007-.229v-.157q0-.156-.022-.24-.021-.084-.091-.142-.07-.058-.176-.058-.083 0-.152.033-.067.032-.112.08-.043.047-.054.088-.01.041-.01.179v.204q0 .061.006.227.006.167.011.194.007.028.019.04.014.011.03.015.018.003.149.011l.012.011v.058l-.011.012q-.172-.011-.332-.011-.158 0-.331.011l-.012-.012v-.058l.012-.011q.134-.008.15-.012.018-.004.03-.017.014-.014.018-.04.006-.028.011-.178.007-.152.007-.229v-.271q0-.055-.006-.15-.006-.095-.01-.117-.003-.022-.021-.032-.018-.011-.072-.011l-.116-.001-.012-.011v-.059l.011-.011q.263-.032.444-.103z"/><use xlink:href="#x"/><use xlink:href="#y"/><use xlink:href="#x" x="2.271"/><use xlink:href="#w" x="8.637"/><path d="M94.376 18.256h.059l.012.012q.003.116.014.198.043.065.147.106.105.04.207.04.146 0 .233-.079.088-.079.088-.187 0-.059-.032-.102-.032-.044-.097-.072-.063-.029-.229-.068-.142-.033-.198-.051-.056-.019-.109-.063-.052-.044-.08-.107-.028-.065-.028-.142 0-.185.146-.295.147-.112.367-.112.092 0 .201.026.109.025.165.048l.012.019q-.011.055-.014.289l-.012.012h-.055l-.012-.012q-.006-.084-.015-.117-.01-.034-.05-.073-.04-.04-.113-.066-.073-.028-.154-.028-.084 0-.142.025-.056.025-.092.076-.034.05-.034.121 0 .052.021.094.022.041.066.068.044.025.092.036l.15.039q.193.047.276.081.084.034.13.105.046.069.046.168 0 .19-.157.327-.157.136-.404.136-.087 0-.216-.019-.128-.019-.219-.043l-.007-.018.014-.092q.007-.043.008-.085.001-.044.003-.183z"/><use xlink:href="#z"/><path d="M81.56 24.132l.011-.01q.473.008.605.008.452 0 .805-.008l.007.01q-.034.132-.051.415l-.008.011h-.067l-.012-.011q.001-.012.001-.022 0-.117-.018-.223-.087-.039-.241-.05-.153-.012-.23-.012-.109 0-.278.015l-.006.22-.004.252-.004.28q.149.008.274.008.127 0 .212-.008.085-.008.099-.017.015-.01.022-.034.008-.026.014-.091l.006-.085.011-.011h.063l.011.011q-.003.15-.007.302l.007.31-.011.011h-.063l-.011-.011-.01-.083q-.012-.096-.018-.114-.006-.019-.026-.033-.019-.014-.102-.022-.083-.008-.227-.008-.08 0-.244.007-.007.116-.007.386 0 .289.007.426h.254q.335 0 .419-.008.084-.008.16-.04.012-.032.04-.146.029-.116.033-.145l.014-.01h.066l.011.01q-.012.059-.025.207-.011.147-.011.252l-.01.011q-.263-.008-.689-.008l-.375-.003q-.131 0-.273.011l-.011-.011v-.045l.011-.014q.081-.041.092-.051.012-.011.019-.241.008-.232.008-.353v-.506l-.001-.313q0-.102-.003-.165-.003-.065-.01-.092-.007-.028-.016-.039-.008-.011-.029-.018-.019-.008-.067-.014l-.105-.008-.011-.01zm.787-.112zm-.006 2.132z"/><path d="M84.377 24.85v-.083q0-.174.021-.248.021-.076.063-.135.043-.059.163-.183.121-.125.178-.149.056-.025.119-.025.056 0 .113.021v.226l-.032.012q-.077-.069-.179-.069-.072 0-.124.03-.052.029-.072.096-.019.066-.019.22v.285h.147q.114 0 .215-.008l.014.015-.025.121-.012.014q-.041-.001-.054-.001l-.181-.001h-.105v.555q0 .044.006.203.007.157.012.185.006.028.018.04.014.012.043.018.03.005.19.01l.011.011v.058l-.011.012q-.043 0-.161-.005-.107-.005-.222-.005-.158 0-.332.011l-.011-.012v-.058l.011-.011q.134-.008.152-.012.018-.004.03-.017.012-.014.016-.04.006-.028.011-.178.007-.152.007-.229v-.535h-.667v.555q0 .044.006.203.007.157.012.185.006.028.018.04.014.012.043.018.03.005.156.01l.011.011v.058l-.011.012q-.052-.003-.143-.007-.091-.004-.205-.004-.149 0-.332.011l-.011-.012v-.058l.011-.011q.134-.008.152-.012.018-.004.03-.017.012-.014.016-.04.006-.028.011-.178.007-.152.007-.229v-.532l-.178.01-.012-.011v-.034l.01-.014.181-.092v-.083q0-.138.012-.208.012-.072.046-.131.034-.061.119-.152.084-.092.147-.15.063-.059.11-.079.047-.021.11-.021.052 0 .113.021l-.001.226-.032.012q-.077-.069-.179-.069-.072 0-.124.03-.052.029-.072.096-.019.066-.019.22v.285z"/><use xlink:href="#x" x="-4.481" y="7.408"/><use xlink:href="#AA"/><use xlink:href="#y" x="-3.23" y="7.409"/><use xlink:href="#z" x="-6.891" y="7.409"/><use xlink:href="#v" y="3.704"/><use xlink:href="#w" x="-1.323" y="3.704"/><use xlink:href="#x" x="-5.226" y="3.704"/><use xlink:href="#AA" x="-0.744" y="-3.704"/><use xlink:href="#AB"/><path d="M88.893 21.052l.026.018q-.008.092-.011.243.11-.091.209-.185.029-.026.054-.039.026-.012.085-.026.059-.014.121-.014.105 0 .203.043.099.043.149.102.051.058.07.138.019.08.019.197v.243q0 .023.007.343.003.131.029.156.026.025.171.025l.011.011v.059l-.011.011q-.175-.011-.237-.011-.036 0-.201.011l-.016-.015q.018-.179.018-.467v-.181q0-.163-.008-.234-.007-.072-.046-.13-.039-.059-.103-.091-.065-.033-.154-.033-.072 0-.123.015-.051.014-.114.059-.063.044-.094.084-.03.039-.037.073-.006.033-.006.143v.24q0 .03.006.196.006.164.011.192.007.028.019.04.012.012.03.017.018.003.149.011l.012.011v.058l-.011.012q-.172-.011-.332-.011-.158 0-.331.011l-.012-.012v-.058l.012-.011q.134-.008.15-.012.018-.004.03-.017.014-.014.018-.04.006-.028.011-.178.007-.152.007-.229v-.271q0-.055-.006-.15-.006-.095-.01-.117-.003-.022-.021-.032-.018-.011-.072-.011l-.116-.001-.012-.011v-.059l.011-.011q.263-.032.444-.103z"/><path d="M90.991 20.497v-.058l.011-.012q.263-.03.444-.102l.026.017q-.015.158-.015.635v.903q0 .139.004.244.006.103.018.123.012.019.04.032.029.012.161.023l.012.011v.052l-.012.012q-.149-.01-.232-.01-.074 0-.212.01l-.015-.015q.004-.135.004-.189 0-.007.001-.052-.076.055-.152.123-.112.099-.146.124-.063.032-.181.032-.19 0-.324-.094-.132-.094-.189-.238-.056-.146-.056-.299 0-.156.058-.299.059-.145.167-.211.109-.066.236-.136.128-.072.254-.072.175 0 .333.087l-.006-.307q-.003-.16-.008-.222-.006-.063-.014-.074-.008-.012-.029-.018-.019-.005-.167-.005zm.236.875q-.085-.096-.19-.147-.103-.051-.208-.051-.116 0-.216.063-.099.062-.143.186-.044.123-.044.267 0 .241.121.387.123.146.307.146.101 0 .178-.045.079-.047.128-.125.051-.079.059-.157.008-.079.008-.288z"/><use xlink:href="#AC"/><use xlink:href="#y" x="1.758" y="3.705"/><use xlink:href="#AC" x="1.742"/><use xlink:href="#AB" x="7.474"/><path d="M96.367 21.052l.026.018q-.008.092-.011.243.11-.091.209-.185.029-.026.054-.039.026-.012.085-.026.059-.014.121-.014.105 0 .203.043.099.043.149.102.051.058.07.138.019.08.019.197v.243q0 .023.007.343.003.131.029.156.026.025.171.025l.011.011v.059l-.011.011q-.175-.011-.237-.011-.036 0-.201.011l-.017-.015q.018-.179.018-.467v-.181q0-.163-.008-.234-.007-.072-.046-.13-.039-.059-.103-.091-.065-.033-.154-.033-.072 0-.123.015-.051.014-.114.059-.063.044-.094.084-.03.039-.037.073-.006.033-.006.143v.24q0 .03.006.196.006.164.011.192.007.028.019.04.012.012.03.017.018.003.149.011l.012.011v.058l-.011.012q-.172-.011-.332-.011-.158 0-.331.011l-.012-.012v-.058l.012-.011q.134-.008.15-.012.018-.004.03-.017.014-.014.018-.04.006-.028.011-.178.007-.152.007-.229v-.271q0-.055-.006-.15-.006-.095-.01-.117-.003-.022-.021-.032-.018-.011-.072-.011l-.116-.001-.012-.011v-.059l.011-.011q.263-.032.444-.103z"/><use xlink:href="#z" x="2.105" y="3.705"/><use xlink:href="#h" x="56.93" y="-15.346"/><use xlink:href="#u" x="7.806" y="4.234"/><use xlink:href="#f" x="59.92" y="3.704"/><use xlink:href="#u" x="12.899" y="4.234"/><use xlink:href="#j" x="56.93" y="-15.346"/><use xlink:href="#u" x="17.992" y="4.234"/><use xlink:href="#k" x="56.929" y="-15.346"/><use xlink:href="#l" x="56.929" y="-15.346"/><use xlink:href="#h" x="56.93" y="-11.642"/><use xlink:href="#Q" x="90.172" y="-25.944"/><use xlink:href="#p" x="26.238" y="-42.333"/><use xlink:href="#AD"/><use xlink:href="#h" x="65.418" y="-11.642"/><use xlink:href="#d" x="61.714" y="10.583"/><use xlink:href="#O" x="98.661" y="-68.807"/><use xlink:href="#U" x="2.794" y="-68.808"/><use xlink:href="#Q" x="103.754" y="-25.944"/><use xlink:href="#V" x="4.491" y="-68.808"/><use xlink:href="#u" x="26.481" y="7.938"/><use xlink:href="#k" x="65.418" y="-11.642"/><use xlink:href="#l" x="65.418" y="-11.642"/><path d="M127.289 21.945h.347v.42h-.347zm1.698 0h.347v.42h-.347zm1.697 0h.347v.42h-.347z"/><use xlink:href="#l" x="73.907" y="-11.642"/><use xlink:href="#h" x="56.93" y="-7.938"/><use xlink:href="#Q" x="90.172" y="-22.24"/><use xlink:href="#p" x="26.238" y="-38.629"/><use xlink:href="#AD" y="3.704"/><use xlink:href="#h" x="65.418" y="-7.938"/><use xlink:href="#M" x="100.359" y="-65.103"/><use xlink:href="#p" x="34.727" y="-38.629"/><use xlink:href="#u" x="21.387" y="11.642"/><use xlink:href="#j" x="65.418" y="-7.938"/><use xlink:href="#u" x="26.481" y="11.642"/><use xlink:href="#k" x="65.418" y="-7.938"/><use xlink:href="#l" x="65.418" y="-7.938"/><path d="M127.289 25.649h.347v.42h-.347zm1.698 0h.347v.42h-.347zm1.697 0h.347v.42h-.347z"/><use xlink:href="#l" x="73.907" y="-7.938"/><path d="M82.358 28.491l-.294 1.053h.587zm-.168-.245h.338l.63 2.057h-.288l-.152-.536h-.721l-.149.536h-.288z"/><use xlink:href="#d" x="35.283" y="18.52"/><use xlink:href="#t" x="0.05" y="15.875"/><use xlink:href="#R" x="73.927" y="-18.008"/><use xlink:href="#M" x="79.021" y="-60.87"/><use xlink:href="#p" x="13.389" y="-34.395"/><path d="M66.407-112.7h.347v.42h-.347zm1.697 0h.347v.42h-.347zm1.698 0h.347v.42h-.347z" transform="matrix(0 1 -1 0 -31.017 -30.777)"/><path d="M109.122 63.751h31.856c1.885 0 3.402 1.517 3.402 3.402v5.707c0 1.885-1.517 3.402-3.402 3.402h-31.856c-1.885 0-3.402-1.517-3.402-3.402v-5.707c0-1.885 1.517-3.402 3.402-3.402z" paint-order="normal" class="B C D E"/><path d="M111.049 69.988l-.065.16q-.382.195-.816.195-.622 0-1.011-.353-.388-.353-.388-.923 0-.393.193-.686.195-.295.512-.439.319-.146.715-.146.229 0 .453.048.224.048.374.115l.012.017q-.04.096-.074.477l-.012.014h-.081l-.014-.014-.017-.293q-.126-.1-.305-.155-.177-.057-.37-.057-.291 0-.522.126-.231.124-.358.362-.127.236-.127.579 0 .345.15.605.15.26.408.4.26.14.606.14.153 0 .295-.029.141-.029.234-.072.095-.043.181-.105z"/><use xlink:href="#K" x="86.797" y="-17.462"/><use xlink:href="#b" x="10.678" y="25.4"/><use xlink:href="#AE"/><path d="M119.844 67.85l.016.014v.084l-.014.012q-.189.005-.236.019-.045.014-.064.047-.019.031-.022.124-.002.093-.009.525v.794q0 .172.005.389.005.217.021.253.017.034.06.052.043.016.245.021l.014.012v.084l-.016.014q-.281-.016-.489-.016-.141 0-.481.016l-.016-.014v-.083l.014-.014q.189-.005.234-.019.047-.014.065-.045.019-.033.022-.127.003-.095.009-.524v-1.264l-.594 1.244q-.224.467-.391.879h-.067q-.096-.222-.158-.355l-.823-1.71v1.204q0 .169.003.389.005.219.022.253.017.034.06.052.043.017.245.021l.014.014v.083l-.016.016-.11-.005q-.171-.009-.293-.009-.055 0-.412.014l-.014-.014v-.083l.014-.016q.189-.003.234-.017.045-.014.064-.046.021-.033.022-.122.003-.09.009-.529v-.789q0-.157-.005-.381-.003-.226-.021-.26-.016-.036-.059-.053-.043-.017-.245-.021l-.014-.014v-.083l.016-.016q.119.009.32.009.189 0 .331-.009.145.334.277.605l.653 1.34.589-1.228q.239-.498.322-.717.165.009.326.009.145 0 .341-.009z"/><use xlink:href="#a" x="24.108" y="25.4"/><use xlink:href="#AE" x="7.055"/><use xlink:href="#T" x="1.943" y="-17.463"/><use xlink:href="#C" x="77.895" y="-17.463"/><use xlink:href="#n" x="72.279" y="-8.466"/><path d="M108.607 71.653h1.57v.234h-.644v1.823h-.28v-1.823h-.646z"/><use xlink:href="#U" y="-17.463"/><use xlink:href="#V" y="-17.463"/><use xlink:href="#W" y="-17.463"/><path d="M88.103-140.217h.347v.42h-.347zm1.697 0h.347v.42H89.8zm1.698 0h.347v.42h-.347z" transform="matrix(0 1 -1 0 -31.017 -30.777)"/><use xlink:href="#h" x="65.648" y="49.212"/><use xlink:href="#Q" x="98.89" y="34.91"/><use xlink:href="#p" x="34.956" y="18.521"/><use xlink:href="#AD" x="8.718" y="60.854"/><use xlink:href="#h" x="74.136" y="49.212"/><use xlink:href="#M" x="109.076" y="-7.953"/><use xlink:href="#p" x="43.445" y="18.521"/><use xlink:href="#d" x="75.525" y="71.437"/><use xlink:href="#Q" x="115.868" y="34.91"/><use xlink:href="#l" x="70.74" y="49.212"/><path d="M132.611 82.799h.347v.42h-.347zm1.698 0h.347v.42h-.347zm1.698 0h.347v.42h-.347z"/><use xlink:href="#l" x="79.229" y="49.212"/><defs ><path id="B" d="M44.81 86.1l.033.022q-.01.115-.014.303.138-.114.262-.231.036-.033.067-.048.033-.016.107-.033.074-.017.152-.017.131 0 .253.053.124.053.186.127.064.072.088.172.024.1.024.246v.303q0 .029.009.429.003.164.036.195.033.031.214.031l.014.014v.074l-.014.014q-.219-.014-.296-.014-.045 0-.251.014l-.021-.019q.022-.224.022-.584v-.226q0-.203-.01-.293-.009-.09-.057-.162-.048-.074-.129-.114-.081-.041-.193-.041-.09 0-.153.019-.064.017-.143.074-.079.055-.117.105-.038.048-.047.091-.007.041-.007.179v.3q0 .038.007.245.007.205.014.239.009.034.024.05.016.016.038.021.022.003.186.014l.016.014v.072l-.014.016q-.215-.014-.415-.014-.198 0-.413.014l-.016-.016v-.072l.016-.014q.167-.01.188-.016.022-.005.038-.021.017-.017.022-.05.007-.034.014-.222.009-.189.009-.286v-.339q0-.069-.007-.188-.007-.119-.012-.146-.003-.028-.026-.04-.022-.014-.09-.014l-.145-.002-.016-.014v-.074l.014-.014q.329-.04.555-.129z"/><path id="C" d="M46.771 85.33q.081 0 .138.057.057.057.057.138 0 .079-.057.136-.057.057-.138.057-.079 0-.138-.055-.057-.057-.057-.138 0-.081.057-.138.059-.057.138-.057zm.146.77l.033.022q-.019.226-.019.574v.389q0 .038.007.245.007.205.014.239.009.034.024.05.016.016.038.021.022.003.186.014l.016.014v.072l-.014.016q-.215-.014-.415-.014-.198 0-.413.014l-.016-.016v-.072l.016-.014q.167-.01.188-.016.022-.005.038-.021.017-.017.022-.05.007-.034.014-.222.009-.189.009-.286v-.339q0-.069-.007-.188-.007-.119-.012-.146-.003-.028-.026-.04-.022-.014-.09-.014l-.145-.002-.016-.014v-.074l.014-.014q.329-.04.555-.129zm-.134 1.745z"/><path id="D" d="M47.38 86.389v-.045l.012-.017q.162-.06.262-.112 0-.45-.01-.524.177-.062.291-.133l.041.034q-.017.109-.041.63.086.002.186.002.203 0 .291-.01l.012.012-.033.145-.014.016q-.088-.002-.195-.002-.096 0-.248.002l-.01.701q0 .243.01.319.012.074.062.117.052.041.152.041.115 0 .214-.06l.041.062q-.041.029-.198.172-.09.041-.183.041-.388 0-.388-.376 0-.138.007-.234.002-.029.002-.06v-.715h-.071q-.078 0-.177.007z"/><path id="E" d="M49.844 86.573l-.067-.017-.014-.017v-.214q.307-.227.596-.227.198 0 .329.074.131.074.189.186.059.11.059.258l-.009.346v.513q0 .105.014.127.016.022.034.031.019.007.071.012l.098.009.014.016v.069l-.014.014q-.126-.01-.234-.01-.103 0-.248.01l-.026-.024.007-.277-.376.293q-.095.04-.207.04-.138 0-.238-.05-.098-.05-.152-.14-.052-.09-.052-.217 0-.253.158-.394.158-.143.865-.243 0-.255-.114-.358-.114-.105-.305-.105-.1 0-.183.029-.081.029-.093.048-.012.017-.093.21zm.799.272q-.482.081-.601.174-.119.093-.119.288 0 .269.267.269.229 0 .453-.265zm-.293-.854zm-.036 1.853z"/><path id="F" d="M51.886 85.19l.033.021q-.019.198-.019.794v1.08q0 .038.007.245.007.205.014.239.009.034.024.05.016.016.038.021.022.003.186.014l.016.014v.072l-.014.016q-.215-.014-.415-.014-.198 0-.413.014l-.016-.016v-.072l.016-.014q.167-.01.188-.016.022-.005.038-.021.017-.017.022-.05.007-.034.014-.222.009-.189.009-.286v-.892l-.007-.365q-.005-.191-.012-.265-.005-.074-.016-.088-.01-.014-.036-.021-.026-.007-.208-.007l-.016-.016v-.072l.014-.016q.329-.038.555-.127z"/><path id="G" d="M60.592 87.488l-.055.124q-.179.115-.32.15-.14.034-.25.034-.207 0-.393-.081-.184-.081-.301-.274-.115-.193-.115-.465 0-.181.045-.326.045-.146.093-.217.05-.071.167-.157.117-.086.248-.138.131-.052.282-.052.207 0 .363.098.158.097.222.248.064.152.064.322 0 .053-.005.103l-.019.019q-.117.026-.315.034-.198.009-.262.009h-.553q.003.357.179.525.176.169.431.169.121 0 .231-.041.112-.041.236-.115zm-1.104-.705q.031.005.238.012.208.007.308.007.239 0 .291-.009.002-.041.002-.064 0-.267-.109-.396-.109-.131-.296-.131-.205 0-.32.146-.114.146-.114.434zm.481-.792zm-.021 1.853z"/><path id="H" d="M45.469 89.191v.438h.576v.197h-.576v.838q0 .171.065.238.065.067.226.067h.285v.203h-.31q-.285 0-.402-.114-.117-.114-.117-.394v-.838h-.412v-.197h.412v-.438z"/><path id="I" d="M51.249 90.338v.124h-1.098v.008q0 .252.131.39.132.138.372.138.121 0 .254-.039.132-.039.282-.117v.252q-.145.059-.28.088-.134.03-.259.03-.36 0-.562-.215-.203-.216-.203-.595 0-.369.198-.59.198-.22.529-.22.295 0 .464.2.171.2.171.546zm-.254-.074q-.005-.223-.106-.339-.099-.117-.287-.117-.183 0-.302.121-.119.121-.141.336z"/><path id="J" d="M6.089 85.307q.434.014.553.014.162 0 .363-.009.214-.007.264-.007.241 0 .398.05.158.05.262.183.103.133.103.32 0 .155-.072.3-.072.145-.202.246-.129.102-.262.146-.133.043-.276.043-.107 0-.238-.024l-.029-.105.016-.017q.129.029.21.029.226 0 .362-.148.138-.15.138-.382 0-.234-.143-.374-.141-.14-.429-.14-.157 0-.345.059-.016.133-.016.641v.798l.002.336q.002.195.01.251.009.057.024.076.017.019.064.033.047.012.229.019l.014.01v.086l-.014.014q-.439-.014-.494-.014-.059 0-.493.014l-.014-.014v-.086l.014-.01q.16-.007.214-.017.053-.01.071-.026.019-.017.029-.071.012-.053.014-.238l.002-.363v-.798l-.003-.336q-.002-.196-.01-.253-.007-.057-.024-.076-.016-.019-.062-.031-.047-.012-.229-.019l-.014-.012v-.086z"/><path id="K" d="M24.467 86.952q0-.205.084-.394.084-.191.293-.329.21-.14.498-.14.362 0 .589.229.227.227.227.586 0 .394-.262.649-.26.255-.629.255-.241 0-.431-.129-.189-.131-.281-.319-.09-.188-.09-.408zm.326-.119q0 .241.062.432.062.189.196.305.134.115.307.115.203 0 .336-.16.133-.162.133-.486 0-.367-.145-.601-.143-.234-.413-.234-.224 0-.35.162-.126.162-.126.467zm.522-.842zm-.026 1.853z"/><path id="L" d="M26.257 85.421l-.016-.016v-.072l.014-.016q.329-.038.555-.127l.033.021q-.019.198-.019.794v.439q.033-.043.122-.131.09-.09.145-.126.057-.036.153-.064.098-.028.205-.028.195 0 .341.097.148.097.219.258.072.16.072.343 0 .174-.06.331-.059.157-.14.258-.048.059-.171.148-.239.174-.338.217-.096.045-.251.045-.121 0-.219-.034-.098-.033-.203-.105l-.14.131-.057-.022q.033-.314.033-.713v-.913l-.007-.331q-.005-.189-.012-.265-.005-.078-.016-.091-.01-.014-.036-.021-.024-.007-.208-.007zm.567 1.23v.646q0 .081.007.107.009.024.069.076.062.05.158.088.096.036.2.036.245 0 .382-.189.14-.189.14-.481 0-.183-.059-.322-.057-.141-.172-.215-.115-.074-.26-.074-.171 0-.301.102-.129.1-.164.227z"/><path id="M" d="M10.128 89.807q-.193 0-.292.15-.099.15-.099.445 0 .294.099.445.099.15.292.15.194 0 .294-.15.099-.152.099-.445 0-.295-.099-.445-.099-.15-.294-.15zm0-.215q.321 0 .491.208.171.208.171.602 0 .395-.169.604-.169.207-.492.207-.321 0-.491-.207-.169-.208-.169-.604 0-.394.169-.602.169-.208.491-.208z"/><path id="N" d="M12.242 90.402q0-.295-.094-.445-.094-.15-.277-.15-.185 0-.28.152-.095.15-.095.444 0 .292.095.444.095.152.28.152.183 0 .277-.15.094-.15.094-.445zm-.746-.576q.061-.113.167-.174.107-.061.248-.061.278 0 .438.215.16.214.16.59 0 .382-.161.599-.16.216-.44.216-.138 0-.244-.059-.105-.061-.168-.175v.194h-.254v-2.144h.254z"/><path id="O" d="M13.555 90.613q0 .171.062.258.063.087.186.087h.296v.215h-.321q-.227 0-.353-.146-.124-.146-.124-.413v-1.401h-.407v-.198h.66z"/><path id="P" d="M17.002 89.786q.047-.099.119-.146.073-.048.175-.048.186 0 .262.145.077.143.077.542v.894h-.232v-.883q0-.327-.037-.405-.036-.08-.132-.08-.11 0-.152.085-.04.084-.04.4v.883h-.232v-.883q0-.331-.04-.408-.039-.077-.141-.077-.101 0-.141.085-.039.084-.039.4v.883h-.23v-1.543h.23v.132q.045-.083.113-.125.069-.044.156-.044.105 0 .174.048.07.048.109.146z"/><path id="Q" d="M11.944 47.534h-.084q-.222 0-.335.079-.112.077-.112.232 0 .139.084.216.084.077.233.077.209 0 .329-.145.12-.146.121-.402v-.056zm.492-.105v.881h-.255v-.229q-.081.138-.205.204-.123.065-.299.065-.236 0-.376-.132-.141-.134-.141-.357 0-.258.172-.391.174-.134.508-.134h.34v-.04q-.001-.185-.094-.267-.092-.084-.295-.084-.13 0-.262.037-.132.037-.258.109v-.254q.141-.054.269-.08.13-.028.251-.028.192 0 .327.056.136.056.22.169.052.069.074.171.022.101.022.303z"/><path id="R" d="M13.028 46.767h.649v1.346h.503v.197h-1.26v-.197h.503v-1.149h-.395zm.395-.601h.254v.321h-.254z"/><path id="S" d="M15.821 47.354v.956h-.255v-.956q0-.208-.073-.306-.073-.098-.229-.098-.178 0-.274.127-.095.125-.095.361v.872h-.254v-1.543h.254v.232q.068-.132.183-.2.116-.069.274-.069.236 0 .351.156.117.154.117.469z"/><path id="T" d="M121.496 86.1l.033.022q-.01.1-.016.355l.129-.164q.064-.081.112-.124.05-.045.115-.069.065-.024.134-.024.076 0 .143.031l.012.024q-.028.229-.031.403h-.077q-.069-.158-.222-.158-.107 0-.186.069-.079.067-.107.171-.026.102-.026.258v.191q0 .052.007.253.007.202.014.233.009.031.024.046.017.014.043.019.028.005.246.017l.016.014v.072l-.016.016q-.229-.014-.479-.014-.198 0-.413.014l-.016-.016v-.072l.016-.014q.167-.01.188-.016.022-.005.038-.021.017-.017.022-.05.007-.034.014-.222.009-.189.009-.286v-.339q0-.069-.007-.188-.007-.119-.012-.146-.003-.028-.026-.04-.022-.014-.09-.014l-.145-.002-.016-.014v-.074l.014-.014q.329-.04.555-.129z"/><path id="U" d="M111.772 90.338v.124h-1.098v.008q0 .252.131.39.132.138.372.138.121 0 .254-.039.132-.039.282-.117v.252q-.145.059-.28.088-.134.03-.259.03-.36 0-.562-.215-.203-.216-.203-.595 0-.369.198-.59.198-.22.529-.22.295 0 .464.2.171.2.171.546zm-.254-.074q-.006-.223-.106-.339-.099-.117-.287-.117-.183 0-.302.121-.119.121-.141.336z"/><path id="V" d="M113.529 89.948q-.081-.063-.165-.092-.084-.029-.185-.029-.237 0-.362.149-.125.149-.125.43v.768h-.255v-1.543h.255v.302q.063-.164.194-.251.132-.088.313-.088.094 0 .175.023.081.023.156.073z"/><path id="W" d="M114.567 89.787q.047-.099.119-.146.073-.048.175-.048.186 0 .262.145.077.143.077.542v.894h-.232v-.883q0-.327-.037-.405-.036-.08-.132-.08-.11 0-.152.085-.04.084-.04.4v.883h-.232v-.883q0-.331-.04-.408-.039-.077-.141-.077-.101 0-.141.085-.039.084-.039.4v.883h-.23v-1.543h.23v.132q.046-.083.113-.125.069-.044.156-.044.105 0 .174.048.07.048.109.146z"/><path id="X" d="M83.25 44.694l-.069.115q-.222.122-.496.122-.379 0-.586-.226-.207-.226-.207-.582 0-.162.034-.288.036-.127.09-.21.055-.083.121-.131.066-.048.22-.134.157-.086.236-.112.079-.028.219-.028.267 0 .438.102-.033.195-.05.434l-.016.014h-.071l-.016-.016q-.007-.145-.019-.195-.012-.05-.138-.107-.124-.057-.265-.057-.141 0-.251.06-.11.059-.167.195-.055.134-.055.322 0 .158.045.31.045.15.117.25.074.098.195.158.121.06.269.06.093 0 .181-.024.09-.024.205-.079z"/><path id="Y" d="M83.398 43.527v-.045l.012-.017q.162-.06.262-.112 0-.45-.01-.524.177-.062.291-.133l.041.034q-.017.109-.041.63.086.002.186.002.203 0 .291-.01l.012.012-.033.145-.014.016q-.088-.002-.195-.002-.097 0-.248.002l-.01.701q0 .243.01.319.012.074.062.117.052.041.152.041.115 0 .214-.06l.041.062q-.041.029-.198.172-.09.041-.183.041-.388 0-.388-.376 0-.138.007-.234.002-.029.002-.06v-.715h-.071q-.078 0-.177.007z"/><path id="Z" d="M88.015 43.237l.033.022q-.01.115-.014.303.138-.114.262-.231.036-.033.067-.048.033-.016.107-.033.074-.017.152-.017.131 0 .253.053.124.053.186.127.064.072.088.172.024.1.024.246v.303q0 .029.009.429.003.164.036.195.033.031.214.031l.014.014v.074l-.014.014q-.219-.014-.296-.014-.045 0-.251.014l-.021-.019q.022-.224.022-.584v-.226q0-.203-.01-.293-.009-.09-.057-.162-.048-.074-.129-.114-.081-.041-.193-.041-.09 0-.153.019-.064.017-.143.074-.079.055-.117.105-.038.048-.046.091-.007.041-.007.179v.3q0 .038.007.245.007.205.014.239.009.034.024.05.016.016.038.021.022.003.186.014l.016.014v.072l-.014.016q-.215-.014-.415-.014-.198 0-.413.014l-.016-.016v-.072l.016-.014q.167-.01.188-.016.022-.005.038-.021.017-.017.022-.05.007-.034.014-.222.009-.189.009-.286v-.339q0-.069-.007-.188-.007-.119-.012-.146-.003-.028-.026-.04-.022-.014-.09-.014l-.145-.002-.016-.014v-.074l.014-.014q.329-.04.555-.129z"/><path id="a" d="M97.354 44.626l-.055.124q-.179.115-.32.15-.14.034-.25.034-.207 0-.393-.081-.184-.081-.301-.274-.115-.193-.115-.465 0-.181.045-.326.045-.146.093-.217.05-.071.167-.157.117-.086.248-.138.131-.052.282-.052.207 0 .363.098.158.096.222.248.064.152.064.322 0 .053-.005.103l-.019.019q-.117.026-.315.034-.198.009-.262.009h-.553q.003.357.179.525.176.169.431.169.121 0 .231-.041.112-.041.236-.115zm-1.104-.705q.031.005.238.012.208.007.308.007.239 0 .291-.009.002-.041.002-.064 0-.267-.109-.396-.109-.131-.296-.131-.205 0-.32.146-.114.146-.114.434zm.481-.792zm-.021 1.853z"/><path id="b" d="M102.572 44.372h.074l.016.016q.003.145.017.248.053.081.184.133.131.05.258.05.183 0 .291-.098.11-.098.11-.234 0-.074-.04-.127-.04-.055-.121-.09-.079-.036-.286-.084-.177-.041-.248-.064-.071-.024-.136-.079-.065-.055-.1-.134-.034-.081-.034-.177 0-.231.183-.369.184-.14.458-.14.115 0 .251.033.136.031.207.06l.016.024q-.014.069-.017.362l-.016.016h-.069l-.016-.016q-.007-.105-.019-.146-.012-.043-.062-.091-.05-.05-.141-.083-.091-.034-.193-.034-.105 0-.177.031-.071.031-.115.095-.043.062-.043.152 0 .065.026.117.028.052.083.084.055.031.115.045l.188.048q.241.059.345.102.105.043.162.131.057.086.057.21 0 .238-.196.408-.196.171-.505.171-.109 0-.27-.024-.16-.024-.274-.053l-.009-.022.017-.115q.009-.053.01-.107.002-.055.003-.229z"/><path id="c" d="M46.616 43.237l.033.022q-.019.226-.019.574v.401q0 .22.033.307.034.086.117.133.083.045.196.045.126 0 .229-.048.103-.05.172-.14.071-.09.081-.121.01-.031.014-.174l.005-.193v-.186q0-.069-.007-.188-.007-.119-.012-.146-.003-.028-.026-.04-.022-.014-.09-.014l-.145-.002-.016-.014v-.074l.014-.014q.329-.04.555-.129l.033.022q-.019.226-.019.574v.303q0 .026.009.422.003.146.017.179.016.031.041.045.026.012.153.012h.048l.016.014v.069l-.014.016q-.243-.014-.326-.014-.105 0-.243.012l-.016-.014q.01-.176.016-.298-.109.084-.248.226-.053.053-.153.09-.1.036-.227.036-.193 0-.301-.06-.107-.062-.152-.169-.045-.109-.045-.372l.002-.136v-.336q0-.069-.007-.188-.007-.119-.012-.146-.003-.028-.026-.04-.022-.014-.09-.014l-.145-.002-.016-.014v-.074l.014-.014q.329-.04.555-.129zm.412-.109zm.017 1.853z"/><path id="d" d="M49.386 11.704q-.102.059-.211.088-.107.03-.22.03-.358 0-.561-.215-.201-.215-.201-.595 0-.38.201-.595.203-.215.561-.215.112 0 .218.029.106.029.214.09v.266q-.101-.09-.203-.13-.101-.04-.229-.04-.238 0-.367.154-.128.154-.128.441 0 .285.128.441.13.154.367.154.132 0 .237-.04.105-.041.194-.127z"/><path id="e" d="M49.947 9.638h.262v1.242l.666-.641h.309l-.608.582.703.962h-.31l-.571-.797-.189.178v.619h-.262z"/><path id="f" d="M44.109 14.173q0-.285-.094-.433-.092-.149-.27-.149-.186 0-.284.149-.098.147-.098.433 0 .285.098.435.099.149.287.149.175 0 .267-.15.094-.15.094-.434zm.254.685q0 .347-.164.526-.164.179-.482.179-.105 0-.219-.019-.114-.019-.229-.056v-.251q.135.063.245.094.11.03.203.03.205 0 .299-.112.094-.112.094-.354v-.011-.172q-.061.13-.165.193-.105.063-.255.063-.27 0-.431-.216-.161-.216-.161-.579 0-.364.161-.58.161-.216.431-.216.149 0 .252.059.103.059.168.183v-.2h.254z"/><path id="g" d="M48.537 14.763v.781h-.255v-2.13h.255v.197q.063-.114.168-.174.106-.061.244-.061.28 0 .438.216.16.216.16.599 0 .376-.16.591-.16.214-.438.214-.141 0-.247-.059-.105-.061-.165-.175zm.744-.576q0-.295-.094-.445-.092-.15-.276-.15-.185 0-.28.152-.095.15-.095.444 0 .292.095.444.095.152.28.152.183 0 .276-.15.094-.15.094-.445z"/><path id="h" d="M43.741 31.866q-.183.314-.274.627-.09.311-.09.628 0 .316.09.628.091.313.274.63h-.22q-.208-.328-.31-.638-.102-.311-.102-.62 0-.307.102-.619.102-.311.31-.637z"/><path id="i" d="M50.255 33.454h-.262v-.212q0-.135.041-.229.043-.095.158-.208l.124-.123q.085-.081.117-.142.033-.061.033-.128 0-.123-.091-.198-.09-.076-.24-.076-.107 0-.23.048-.123.047-.258.141v-.259q.13-.079.26-.117.132-.039.276-.039.256 0 .408.132.153.132.153.354 0 .105-.047.196-.045.09-.175.216l-.121.119q-.095.091-.121.149-.026.058-.026.142v.065zm-.271.203h.28v.35h-.28z"/><path id="j" d="M52.551 32.464l-.553.739.606.805h-.294l-.452-.619-.451.619h-.294l.606-.805-.553-.739h.281l.409.558.407-.558z"/><path id="k" d="M57.286 33.511q-.063.161-.161.424-.136.364-.183.444-.063.107-.158.161-.095.054-.222.054h-.204v-.212h.15q.112 0 .175-.065.063-.065.161-.335l-.597-1.519h.269l.458 1.207.451-1.207h.269z"/><path id="l" d="M58.281 31.866h.22q.208.325.31.637.102.311.102.619 0 .31-.102.621-.102.311-.31.637h-.22q.183-.32.273-.633.091-.313.091-.626 0-.314-.091-.627-.09-.313-.273-.628z"/><path id="m" d="M49.147 36.876V37h-1.098v.008q0 .252.131.39.132.138.372.138.121 0 .254-.039.132-.039.282-.117v.252q-.145.059-.28.088-.134.03-.259.03-.36 0-.562-.215-.203-.216-.203-.595 0-.369.198-.59.198-.22.529-.22.295 0 .464.2.171.2.171.546zm-.254-.074q-.005-.223-.106-.339-.099-.117-.287-.117-.183 0-.302.121-.119.121-.141.336z"/><path id="n" d="M54.412 78.561l-.069.115q-.222.122-.496.122-.379 0-.586-.226-.207-.226-.207-.582 0-.162.034-.288.036-.127.09-.21.055-.083.121-.131.065-.048.22-.134.157-.086.236-.112.079-.028.219-.028.267 0 .438.102-.033.195-.05.434l-.016.014h-.071l-.016-.016q-.007-.145-.019-.195-.012-.05-.138-.107-.124-.057-.265-.057-.141 0-.251.06-.11.059-.167.195-.055.134-.055.322 0 .158.045.31.045.15.117.25.074.098.195.158.121.06.269.06.093 0 .181-.024.09-.024.205-.079z"/><path id="o" d="M88.614 60.802h1.457v.237h-1.457zm0-.559h1.457v.234h-1.457z"/><path id="p" d="M78.057 63.742v.956h-.255v-.956q0-.208-.073-.306-.073-.098-.229-.098-.178 0-.274.127-.095.125-.095.361v.872h-.254v-1.543h.254v.232q.067-.132.183-.2.116-.069.274-.069.236 0 .351.156.117.154.117.469z"/><path id="q" d="M92.554 63.665q0-.076.052-.131.054-.055.128-.055.077 0 .132.055.055.055.055.131 0 .077-.055.131-.054.054-.132.054-.077 0-.13-.052-.051-.052-.051-.132zm.183-.841q-.194 0-.291.209-.095.209-.095.638 0 .427.095.637.097.209.291.209.196 0 .291-.209.097-.209.097-.637 0-.429-.097-.638-.095-.209-.291-.209zm0-.22q.329 0 .497.27.169.27.169.798 0 .526-.169.797-.168.27-.497.27-.329 0-.497-.27-.168-.27-.168-.797 0-.528.168-.798.168-.27.497-.27z"/><path id="r" d="M92.554 73.19q0-.076.052-.131.054-.055.128-.055.077 0 .132.055.055.055.055.131 0 .077-.055.131-.054.054-.132.054-.077 0-.13-.052-.051-.052-.051-.132zm.183-.841q-.194 0-.291.209-.095.209-.095.638 0 .427.095.637.097.209.291.209.196 0 .291-.209.097-.209.097-.637 0-.429-.097-.638-.095-.209-.291-.209zm0-.22q.329 0 .497.27.169.27.169.798 0 .526-.169.796-.168.27-.497.27-.329 0-.497-.27-.168-.27-.168-.796 0-.528.168-.798.168-.27.497-.27z"/><path id="s" d="M78.2 79.349q-.081-.063-.165-.092-.084-.029-.185-.029-.237 0-.362.149-.125.149-.125.43v.768h-.255V79.03h.255v.302q.063-.164.194-.251.132-.088.313-.088.094 0 .175.023.081.023.156.073z"/><path id="t" d="M85.701 12.446v.438h.576v.197h-.576v.838q0 .171.065.238.065.068.226.068h.285v.203h-.31q-.285 0-.402-.114-.117-.114-.117-.394v-.838h-.412v-.197h.412v-.438z"/><path id="u" d="M94.286 13.875h-.262v-.212q0-.135.041-.229.043-.095.158-.208l.124-.123q.085-.081.117-.142.033-.061.033-.128 0-.123-.091-.198-.09-.076-.24-.076-.107 0-.23.048-.123.047-.258.141v-.259q.13-.079.26-.117.132-.039.276-.039.256 0 .408.132.153.132.153.354 0 .105-.047.196-.046.09-.175.216l-.121.119q-.095.091-.121.149-.026.058-.026.142v.065zm-.271.203h.28v.35h-.28z"/><path id="v" d="M81.541 16.714q.347.011.442.011.13 0 .291-.007.171-.005.211-.005.193 0 .318.04.127.04.209.146.083.106.083.256 0 .124-.058.24-.058.116-.161.197-.103.081-.209.117-.106.034-.22.034-.085 0-.19-.019l-.023-.084.012-.014q.103.023.168.023.181 0 .289-.119.11-.12.11-.306 0-.187-.114-.299-.113-.112-.343-.112-.125 0-.276.047-.012.106-.012.513v.638l.001.269q.001.156.008.201.007.045.019.061.014.015.051.026.037.01.183.015l.011.008v.069l-.011.011q-.351-.011-.395-.011-.047 0-.394.011l-.011-.011v-.069l.011-.008q.128-.005.171-.014.043-.008.056-.021.015-.014.023-.056.01-.043.011-.19l.001-.291v-.638l-.003-.269q-.001-.157-.008-.203-.006-.045-.019-.061-.012-.015-.05-.025-.037-.01-.183-.015l-.011-.01v-.069z"/><path id="w" d="M85.015 17.348l.026.018q-.008.08-.012.284l.103-.131q.051-.065.09-.099.04-.036.092-.055.052-.019.107-.019.061 0 .114.025l.01.019q-.022.183-.025.322h-.062q-.055-.127-.178-.127-.085 0-.149.055-.063.054-.085.136-.021.081-.021.207v.153q0 .041.006.203.006.161.011.186.007.025.019.037.014.011.034.015.022.004.197.014l.012.011v.058l-.012.012q-.183-.011-.383-.011-.158 0-.331.011l-.012-.012v-.058l.012-.011q.134-.008.15-.012.018-.004.03-.017.014-.014.018-.04.006-.028.011-.178.007-.152.007-.229v-.271q0-.055-.006-.15-.006-.095-.01-.117-.003-.022-.021-.032-.018-.011-.072-.011l-.116-.001-.012-.011v-.059l.011-.011q.263-.032.444-.103z"/><path id="x" d="M90.72 18.459l-.044.099q-.143.092-.256.12-.112.028-.2.028-.165 0-.314-.065-.147-.065-.241-.219-.092-.154-.092-.372 0-.145.036-.26.036-.117.074-.174.04-.056.134-.125.094-.069.198-.11.105-.041.226-.041.165 0 .291.079.127.077.178.198.051.121.051.258 0 .043-.004.083l-.015.015q-.094.021-.252.028-.158.007-.209.007h-.442q.003.285.143.42.141.135.345.135.097 0 .185-.033.09-.033.189-.092zm-.883-.564q.025.004.19.01.167.005.247.005.192 0 .233-.007.001-.033.001-.051 0-.214-.087-.317-.087-.105-.237-.105-.164 0-.256.117-.091.117-.091.347zm.384-.634zm-.016 1.483z"/><path id="y" d="M90.916 17.579v-.036l.01-.014q.13-.048.209-.09 0-.36-.008-.419.142-.05.233-.106l.033.028q-.014.087-.033.504.069.001.149.001.163 0 .233-.008l.01.01-.026.116-.011.012q-.07-.001-.156-.001-.077 0-.198.001l-.008.561q0 .194.008.255.01.059.05.094.041.033.121.033.092 0 .171-.048l.033.05q-.033.023-.158.138-.072.033-.146.033-.31 0-.31-.3 0-.11.006-.187.001-.023.001-.048v-.572h-.056q-.062 0-.142.005z"/><path id="z" d="M95.786 17.382q.067 0 .116.048.048.048.048.117 0 .068-.048.116-.048.048-.116.048-.069 0-.117-.048-.048-.048-.048-.116 0-.072.048-.119.05-.047.117-.047zm0 .974q.066 0 .114.047.05.047.05.119 0 .068-.048.116-.048.048-.116.048-.069 0-.117-.047-.048-.048-.048-.117 0-.069.048-.117.048-.048.117-.048z"/><path id="AA" d="M87.567 25.922l-.055.092q-.178.098-.397.098-.303 0-.469-.181-.165-.181-.165-.466 0-.13.028-.23.029-.102.072-.168.044-.066.097-.105.052-.039.176-.107.125-.069.189-.09.063-.022.175-.022.214 0 .35.081-.026.156-.04.347l-.012.011h-.056l-.012-.012q-.006-.116-.015-.156-.01-.04-.11-.085-.099-.045-.212-.045-.113 0-.201.048-.088.047-.134.156-.044.107-.044.258 0 .127.036.248.036.12.094.2.059.079.156.127.097.048.215.048.074 0 .145-.019.072-.019.164-.063z"/><path id="AB" d="M86.972 21.734q0-.164.067-.316.067-.153.234-.263.168-.112.398-.112.289 0 .471.183.182.182.182.469 0 .316-.209.52-.208.204-.503.204-.193 0-.345-.103-.152-.105-.225-.255-.072-.15-.072-.327zm.26-.095q0 .193.05.346.05.152.157.244.107.092.245.092.163 0 .269-.128.106-.13.106-.389 0-.294-.116-.481-.114-.187-.331-.187-.179 0-.28.13-.101.13-.101.373zm.418-.674zm-.021 1.483z"/><path id="AC" d="M92.186 20.436q.065 0 .11.045.046.045.046.11 0 .063-.046.109-.046.045-.11.045-.063 0-.11-.044-.046-.045-.046-.11 0-.065.046-.11.047-.045.11-.045zm.117.616l.026.018q-.015.181-.015.459v.311q0 .03.006.196.006.164.011.192.007.028.019.04.012.012.03.017.018.003.149.011l.012.011v.058l-.011.012q-.172-.011-.332-.011-.158 0-.331.011l-.012-.012v-.058l.012-.011q.134-.008.15-.012.018-.004.03-.017.014-.014.018-.04.006-.028.011-.178.007-.152.007-.229v-.271q0-.055-.006-.15-.006-.095-.01-.117-.003-.022-.021-.032-.018-.011-.072-.011l-.116-.001-.012-.011v-.059l.011-.011q.263-.032.444-.103zm-.107 1.396z"/><path id="AD" d="M105.727 21.019v-.798h.254v2.144h-.254v-.194q-.063.114-.169.175-.105.059-.243.059-.28 0-.441-.216-.16-.218-.16-.599 0-.376.161-.59.161-.215.44-.215.139 0 .245.061.106.059.167.174zm-.746.576q0 .295.094.445.094.15.277.15.183 0 .278-.152.096-.152.096-.444 0-.294-.096-.444-.095-.152-.278-.152-.183 0-.277.15-.094.15-.094.445z"/><path id="AE" d="M114.651 68.927v-.045l.012-.017q.162-.06.262-.112 0-.45-.01-.524.177-.062.291-.133l.041.034q-.017.109-.041.63.086.002.186.002.203 0 .291-.01l.012.012-.033.145-.014.016q-.088-.002-.195-.002-.096 0-.248.002l-.01.701q0 .243.01.319.012.074.062.117.052.041.152.041.115 0 .214-.06l.041.062q-.041.029-.198.172-.09.041-.183.041-.388 0-.388-.376 0-.138.007-.234.002-.029.002-.06v-.715h-.071q-.077 0-.177.007z"/></defs></svg>