<svg xmlns="http://www.w3.org/2000/svg" xmlns:xlink="http://www.w3.org/1999/xlink" width="604.724" height="377.953" viewBox="0 0 160 100" xmlns:v="https://vecta.io/nano"><style><![CDATA[.B{stroke:#000}.C{stroke-width:.141pt}.D{fill-rule:evenodd}.E{stroke-width:.353}.F{fill:#d40055}]]></style><g class="B E"><path d="M141.491 55.05h1.798c.642 0 1.159.432 1.159.968v2.579c0 .536-.517.968-1.159.968h-1.798c-.642 0-1.159-.432-1.159-.968v-2.579c0-.536.517-.968 1.159-.968z" fill="#f4d7ee" paint-order="normal"/><path d="M10.743 37.686H21.41c.642 0 1.159.517 1.159 1.159v7.304c0 .642-.517 1.159-1.159 1.159H10.743c-.642 0-1.159-.517-1.159-1.159v-7.304c0-.642.517-1.159 1.159-1.159z" fill="#d5f6ff" paint-order="normal"/></g><path d="M51.139 36.572c0 4.141-3.065 7.632-7.275 9.535s-9.543 2.201-14.004-.029l-.158.314c4.573 2.286 10.007 1.98 14.307.037s7.484-5.542 7.484-9.857z"/><path d="M26.538 29.283h48.96c.642 0 1.159.517 1.159 1.159v5.476c0 .642-.517 1.159-1.159 1.159h-48.96c-.642 0-1.159-.517-1.159-1.159v-5.476c0-.642.517-1.159 1.159-1.159z" fill="#fff6d5" paint-order="normal" class="B E"/><path d="M57.758 68.603c0 3.307.414 5.301 1.109 6.598s1.676 1.875 2.723 2.332 2.159.808 3.213 1.664 2.062 2.222 2.873 4.738l.336-.107c-.826-2.562-1.875-4.001-2.986-4.904s-2.271-1.266-3.293-1.713-1.903-.961-2.555-2.176-1.066-3.154-1.066-6.432z"/><path d="M67.411 82.538l-.888-.455 1.429 2.134-.086-2.567z" class="B C D"/><path d="M57.758 68.603c0 3.26-.463 5.209-1.17 6.451s-1.656 1.798-2.707 2.279-2.203.876-3.23 1.793-1.911 2.35-2.451 4.867l.346.074c.529-2.467 1.374-3.815 2.34-4.678s2.07-1.245 3.143-1.736 2.115-1.104 2.867-2.426 1.217-3.332 1.217-6.625z"/><path d="M48.668 82.651l-.542-.838.172 2.562 1.208-2.267z" class="B C D"/><path d="M57.758 68.603c0 3.907-1.692 6.006-4.322 7.225s-6.214 1.517-9.91 1.689-7.506.222-10.613.988-5.538 2.279-6.359 5.346l.34.092c.785-2.928 3.06-4.345 6.105-5.096s6.838-.806 10.543-.979 7.323-.46 10.043-1.721 4.527-3.534 4.527-7.545z"/><path d="M27.088 82.535l-.499-.864.042 2.568 1.321-2.203z" class="B C D"/><path d="M95.133 15.933l-.336.107c.826 2.562 1.875 4.001 2.986 4.904s2.273 1.266 3.295 1.713 1.901.961 2.553 2.176 1.068 3.154 1.068 6.432h.352c0-3.307-.412-5.301-1.107-6.598s-1.678-1.875-2.725-2.332-2.159-.81-3.213-1.666-2.062-2.22-2.873-4.736z"/><path d="M95.398 17.33l.888.455-1.429-2.134.086 2.567z" class="B C D"/><path d="M114.266 15.8c-.529 2.467-1.375 3.815-2.342 4.678s-2.07 1.245-3.143 1.736-2.113 1.104-2.865 2.426-1.217 3.332-1.217 6.625h.352c0-3.26.465-5.209 1.172-6.451s1.654-1.798 2.705-2.279 2.203-.876 3.23-1.793 1.911-2.35 2.451-4.867z"/><path d="M114.141 17.216l.542.838-.172-2.562-1.208 2.267z" class="B C D"/><path d="M135.916 15.925c-.785 2.928-3.058 4.345-6.104 5.096s-6.84.806-10.545.979-7.321.46-10.041 1.721-4.527 3.534-4.527 7.545h.352c0-3.907 1.694-6.006 4.324-7.225s6.212-1.517 9.908-1.689 7.506-.222 10.613-.988 5.538-2.281 6.359-5.348z"/><g class="B"><path d="M135.721 17.333l.499.864-.042-2.568-1.321 2.203z" class="C D"/><path d="M83.922 8.781h63.476c.642 0 1.159.517 1.159 1.159v5.033c0 .642-.517 1.159-1.159 1.159H83.922c-.642 0-1.159-.517-1.159-1.159V9.94c0-.642.517-1.159 1.159-1.159zM16.907 84.23h61.804c.642 0 1.159.517 1.159 1.159v5.033c0 .642-.517 1.159-1.159 1.159H16.907c-.642 0-1.159-.517-1.159-1.159v-5.033c0-.642.517-1.159 1.159-1.159z" paint-order="normal" fill="#e5ffd5" class="E"/></g><use xlink:href="#B"/><use xlink:href="#C"/><use xlink:href="#D"/><use xlink:href="#E"/><use xlink:href="#F"/><use xlink:href="#G"/><use xlink:href="#E" x="6.791"/><use xlink:href="#H"/><use xlink:href="#I"/><use xlink:href="#B" x="-20.037"/><use xlink:href="#C" x="-20.037"/><use xlink:href="#D" x="-20.037"/><use xlink:href="#E" x="-20.037"/><use xlink:href="#F" x="-20.037"/><use xlink:href="#G" x="-20.037"/><use xlink:href="#E" x="-13.246"/><use xlink:href="#F" x="-11.548"/><use xlink:href="#I" x="-20.037"/><use xlink:href="#B" x="-41.733"/><use xlink:href="#J"/><path d="M21.111 87.146v-.956h.254v.956q0 .208.073.306.074.098.229.098.179 0 .274-.125.095-.127.095-.362v-.872h.255v1.541h-.255v-.232q-.068.134-.185.203-.116.069-.271.069-.237 0-.353-.154-.116-.156-.116-.47z"/><use xlink:href="#D" x="-40.035"/><path d="M24.728 86.844h.718v.226h-.718z"/><use xlink:href="#K"/><use xlink:href="#L"/><use xlink:href="#M"/><use xlink:href="#N"/><use xlink:href="#E" x="-29.849"/><use xlink:href="#I" x="-40.035"/><use xlink:href="#B" x="45.589" y="-73.195"/><use xlink:href="#J" x="87.322" y="-73.195"/><use xlink:href="#O"/><use xlink:href="#P"/><path d="M112.05 13.649h.718v.226h-.718z"/><use xlink:href="#K" x="87.321" y="-73.195"/><use xlink:href="#L" x="87.321" y="-73.195"/><use xlink:href="#M" x="87.321" y="-73.195"/><use xlink:href="#Q"/><use xlink:href="#F" x="55.776" y="-73.195"/><use xlink:href="#I" x="47.287" y="-73.195"/><use xlink:href="#B" x="67.284" y="-73.195"/><use xlink:href="#J" x="109.017" y="-73.195"/><use xlink:href="#O" x="21.696"/><use xlink:href="#P" x="21.696"/><path d="M133.745 13.649h.718v.226h-.718z"/><use xlink:href="#K" x="109.017" y="-73.195"/><use xlink:href="#L" x="109.017" y="-73.195"/><use xlink:href="#M" x="109.017" y="-73.195"/><use xlink:href="#Q" x="21.696"/><use xlink:href="#K" x="117.506" y="-73.195"/><use xlink:href="#I" x="68.983" y="-73.195"/><use xlink:href="#B" x="25.48" y="-73.195"/><path d="M87.698 13.046v.248q-.109-.063-.219-.095-.11-.032-.225-.032-.172 0-.258.056-.084.055-.084.169 0 .103.063.154.063.051.316.099l.102.019q.189.036.285.143.098.107.098.28 0 .229-.163.358-.163.128-.452.128-.114 0-.24-.025-.125-.023-.271-.072v-.262q.142.073.271.11.13.036.245.036.168 0 .26-.068.092-.069.092-.192 0-.176-.338-.244l-.011-.003-.095-.019q-.219-.043-.32-.143-.101-.102-.101-.277 0-.222.15-.342.15-.121.429-.121.124 0 .238.023.114.022.225.068z"/><use xlink:href="#P" x="-21.806"/><use xlink:href="#E" x="25.48" y="-73.195"/><use xlink:href="#F" x="25.481" y="-73.195"/><use xlink:href="#G" x="25.481" y="-73.195"/><use xlink:href="#E" x="32.271" y="-73.195"/><use xlink:href="#H" x="25.48" y="-73.195"/><use xlink:href="#I" x="25.481" y="-73.195"/><use xlink:href="#R" fill="#ffe6d5" stroke-width=".388" paint-order="normal" class="B"/><path d="M55.071 63.585v.282q-.127-.081-.255-.123-.127-.041-.256-.041-.197 0-.311.092-.114.091-.114.247 0 .136.074.208.076.072.281.12l.146.033q.289.067.422.212.132.145.132.394 0 .294-.182.448-.182.154-.529.154-.145 0-.291-.032-.146-.03-.294-.092v-.296q.158.101.299.147.142.047.285.047.211 0 .328-.094.117-.095.117-.265 0-.154-.081-.236-.08-.081-.28-.125l-.149-.034q-.287-.065-.416-.196-.13-.131-.13-.351 0-.276.185-.441.186-.167.493-.167.119 0 .249.028.131.026.276.08z"/><use xlink:href="#D" x="-7.201" y="-22.158"/><use xlink:href="#E" x="-7.201" y="-22.157"/><use xlink:href="#D" x="-3.806" y="-22.158"/><use xlink:href="#S"/><path d="M56.976 61.205q.096-.435.113-.7l.022-.022h.094l.022.022v.444q.248.212.543.212.132 0 .256-.044.124-.044.207-.119.083-.077.132-.201.05-.127.05-.256 0-.088-.036-.171-.033-.083-.116-.132-.08-.052-.325-.097-.248-.044-.35-.072-.102-.03-.198-.102-.096-.072-.154-.187-.055-.116-.055-.251 0-.185.085-.333.088-.152.259-.284.171-.132.353-.22.185-.088.405-.088.325 0 .548.132l.011.03q-.047.16-.061.289l-.033.309-.022.022h-.085l-.025-.022q0-.163-.008-.317-.193-.212-.521-.212-.259 0-.416.152-.157.149-.157.358 0 .171.105.27.105.099.397.143.262.039.372.066.11.028.204.094.094.063.146.168.055.102.055.232 0 .154-.061.303-.058.146-.168.27-.107.124-.309.259-.201.132-.356.182-.154.05-.328.05-.278 0-.584-.146z"/><use xlink:href="#R" x="46.648" y="-20.611" fill="#ffe6d5" paint-order="normal" class="B E"/><path d="M101.718 42.975v.282q-.127-.081-.255-.123-.127-.041-.256-.041-.197 0-.311.092-.114.091-.114.247 0 .136.074.208.076.072.281.12l.146.033q.289.068.422.212.132.145.132.394 0 .294-.182.448-.182.154-.529.154-.145 0-.291-.032-.146-.03-.294-.092v-.296q.158.101.299.147.142.047.285.047.211 0 .328-.094.117-.095.117-.265 0-.154-.081-.236-.08-.081-.28-.125l-.149-.034q-.287-.065-.416-.196-.13-.131-.13-.351 0-.276.185-.441.186-.167.493-.167.119 0 .249.028.131.026.276.08z"/><use xlink:href="#D" x="39.446" y="-42.769"/><use xlink:href="#E" x="39.446" y="-42.768"/><use xlink:href="#D" x="42.842" y="-42.769"/><use xlink:href="#T"/><path d="M103.097 37.966l.025.036q-.063.174-.091.3l-.025.019q-.13-.005-.256-.005-.149.003-.298.005l-.358 1.676q-.179.788-.317 1.089-.135.303-.35.532-.215.229-.43.331-.13.063-.259.063-.091 0-.196-.052.088-.259.13-.452l.069-.017q.116.154.284.154.105 0 .201-.058.097-.058.182-.212.085-.152.196-.642.113-.491.218-1.1l.22-1.312q-.157-.003-.22-.003-.16 0-.207.005l-.022-.022.019-.083.019-.025q.328-.119.469-.212l.11-.537q.052-.248.097-.331.044-.083.171-.204.13-.124.342-.287.215-.163.328-.209.116-.05.232-.05.176 0 .364.074-.116.306-.157.458l-.061.019q-.061-.091-.168-.146-.107-.058-.229-.058-.149 0-.256.083-.105.08-.168.287-.061.204-.198.94.35-.005.435-.019.088-.014.157-.036z"/><path d="M103.94 41.004q-.27-.369-.48-.89-.209-.521-.209-1.136 0-.802.411-1.475.413-.672 1.006-1.171h.033l.088.094v.03q-.606.648-.874 1.304-.265.653-.265 1.499 0 .35.05.637.05.287.132.524.083.234.223.504l-.008.03-.077.055zm.951-.64q.097-.435.113-.7l.022-.022h.094l.022.022v.444q.248.212.543.212.132 0 .256-.044.124-.044.207-.119.083-.077.132-.201.05-.127.05-.256 0-.088-.036-.171-.033-.083-.116-.132-.08-.052-.325-.096-.248-.044-.35-.072-.102-.03-.198-.102-.097-.072-.154-.187-.055-.116-.055-.251 0-.185.085-.333.088-.152.259-.284.171-.132.353-.22.185-.088.405-.088.325 0 .548.132l.011.03q-.047.16-.061.289l-.033.309-.022.022h-.085l-.025-.022q0-.163-.008-.317-.193-.212-.521-.212-.259 0-.416.152-.157.149-.157.358 0 .171.105.27.105.099.397.143.262.039.372.066.11.028.204.094.094.063.146.168.055.102.055.232 0 .154-.061.303-.058.146-.168.27-.107.124-.309.259-.201.132-.356.182-.154.05-.328.05-.278 0-.584-.146zm3.04-4.027q.295.413.491.921.198.507.198 1.102 0 .797-.408 1.472-.408.672-1.011 1.177h-.03l-.088-.094v-.03q.587-.623.863-1.282.276-.659.276-1.521 0-.449-.088-.832-.088-.386-.317-.832l.006-.03.077-.055z"/><g class="D"><path d="M96.397 40.775L64.918 54.683l.143.322 31.479-13.908z"/><path d="M66.279 54.274l.36-.931-1.974 1.643 2.544-.353z" class="B C"/><path d="M97.455 45.537l-31.48 13.908.143.324 31.48-13.91z"/><path d="M96.236 46.268l-.36.931 1.974-1.643-2.544.353z" class="B C"/></g><g class="F"><use xlink:href="#U"/><path d="M86.557 54.58l-.649.923.706 1.006h-.589l-.379-.649-.377.649h-.589l.713-1.006-.656-.923h.589l.32.575.322-.575z"/><use xlink:href="#U" x="4.244"/><path d="M90.657 56.411q-.127.074-.274.11-.146.038-.315.038-.446 0-.698-.269-.251-.269-.251-.744 0-.477.253-.746.253-.27.699-.27.155 0 .298.036.145.036.288.112v.462q-.11-.095-.243-.145-.131-.052-.272-.052-.246 0-.379.157-.133.157-.133.446 0 .289.133.444.133.155.379.155.146 0 .274-.048.127-.05.241-.15zm.57-.575V54.58h.505v1.178q0 .208.059.298.059.09.195.09.136 0 .212-.121.078-.121.078-.338V54.58h.505v1.929h-.505v-.286q-.053.16-.183.248-.127.088-.308.088-.276 0-.417-.183-.14-.183-.14-.541z"/><use xlink:href="#V"/><use xlink:href="#U" x="12.733"/><use xlink:href="#W"/><use xlink:href="#U" x="-15.341" y="-10.584"/><path d="M70.627 44.93q0-.258-.098-.413-.098-.157-.258-.157-.158 0-.257.155-.096.155-.096.415 0 .262.096.417.098.155.257.155.16 0 .258-.155.098-.157.098-.417zm.505.851q0 .463-.21.668-.208.207-.679.207-.158 0-.314-.024-.155-.022-.315-.071v-.463q.143.079.291.117.148.038.305.038.214 0 .315-.102.102-.1.102-.314v-.208q-.074.138-.196.205-.122.067-.298.067-.331 0-.525-.258-.195-.258-.195-.701 0-.458.195-.727.195-.269.522-.269.165 0 .295.078.129.078.203.219v-.246h.505z"/><use xlink:href="#W" x="6.366"/><path d="M75.387 45.831q-.176.072-.358.109-.183.036-.386.036-.484 0-.741-.258-.255-.26-.255-.748 0-.472.246-.746.246-.274.672-.274.429 0 .665.255.238.253.238.715v.205H74.16q.002.227.134.339.133.112.396.112.174 0 .343-.05.169-.05.353-.158zm-.427-1.085q-.003-.2-.103-.301-.098-.103-.291-.103-.174 0-.277.107-.103.105-.122.3z"/><use xlink:href="#X"/><use xlink:href="#X" x="2.122"/></g><path d="M82.66 52.074c-5.846 2.583-9.293 6.334-11.283 11.602s-2.538 12.044-2.65 20.732l.352.004c.112-8.676.667-15.417 2.629-20.611s5.317-8.851 11.096-11.404zm10.779-35.946c-.112 8.676-.667 15.419-2.629 20.613s-5.317 8.849-11.096 11.402l.143.322c5.846-2.583 9.293-6.332 11.283-11.6s2.538-12.044 2.65-20.732z"/><g class="F"><use xlink:href="#Y"/><path d="M37.887 70.984l-.613 1.929h-.622l-.613-1.929h.512l.412 1.505.413-1.505z"/><use xlink:href="#Y" x="4.244"/><use xlink:href="#Z"/><use xlink:href="#a"/><use xlink:href="#Y" x="10.611"/><path d="M47.976 71.954q0-.279-.093-.438-.093-.158-.257-.158-.164 0-.258.158-.095.158-.095.438 0 .279.095.438.095.158.258.158.164 0 .257-.158.093-.158.093-.438zm-.703-.696q.093-.16.215-.239.124-.081.279-.081.343 0 .527.262.186.262.186.751 0 .482-.183.748-.183.265-.513.265-.174 0-.303-.084-.129-.084-.208-.251v.286h-.503v-2.68h.503z"/><use xlink:href="#a" x="6.367"/><use xlink:href="#U" x="-31.706" y="16.404"/><use xlink:href="#W" x="43.849" y="-16.322"/><use xlink:href="#U" x="28.509" y="-26.906"/><use xlink:href="#a" x="70.827" y="-43.31"/><use xlink:href="#U" x="32.754" y="-26.906"/><path d="M119.325 27.674l-.613 1.929h-.622l-.613-1.929h.512l.412 1.506.413-1.506z"/><use xlink:href="#b"/><path d="M123.428 28.351v1.252h-.501v-1.175q0-.21-.06-.3-.059-.091-.193-.091-.136 0-.215.122-.077.122-.077.339v1.104h-.501v-1.929h.501v.289q.053-.16.183-.248.129-.088.312-.088.274 0 .413.183.14.181.14.541z"/><use xlink:href="#V" x="30.632" y="-26.905"/></g><path d="M66.054 88.974h1.177v.176h-.483v1.367h-.21V89.15h-.485z"/><use xlink:href="#c"/><use xlink:href="#d"/><use xlink:href="#e"/><path d="M46.017 88.974h1.177v.176h-.483v1.367h-.21V89.15h-.485z"/><use xlink:href="#c" x="-20.037"/><use xlink:href="#d" x="-20.037"/><use xlink:href="#e" x="-20.037"/><path d="M25.17 88.974h1.177v.176h-.483v1.367h-.21V89.15h-.485z"/><use xlink:href="#c" x="-40.884"/><use xlink:href="#d" x="-40.884"/><use xlink:href="#e" x="-40.884"/><use xlink:href="#f"/><use xlink:href="#c" x="68.133" y="-78.846"/><use xlink:href="#g"/><use xlink:href="#h"/><use xlink:href="#f" x="-21.695"/><use xlink:href="#c" x="46.438" y="-78.846"/><use xlink:href="#g" x="-21.696"/><path d="M116.962 10.632q.035-.074.089-.11.055-.036.131-.036.14 0 .196.109.058.107.058.406v.671h-.174v-.662q0-.245-.028-.304-.027-.06-.099-.06-.083 0-.114.064-.03.063-.03.3v.662h-.174v-.662q0-.248-.03-.306-.029-.058-.105-.058-.075 0-.105.064-.029.063-.029.3v.662h-.173v-1.158h.173v.099q.034-.062.085-.094.052-.033.117-.033.078 0 .13.036.053.036.082.11z"/><use xlink:href="#f" x="-42.653"/><use xlink:href="#c" x="25.48" y="-78.846"/><path d="M95.226 10.753q-.061-.048-.124-.069-.063-.022-.138-.022-.178 0-.272.112-.094.112-.094.322v.576h-.191v-1.158h.191v.226q.047-.123.146-.188.099-.066.235-.066.07 0 .131.018.061.018.117.055z"/><use xlink:href="#h" x="-42.653"/><path d="M31.503 96.807l-.019-.017v-.107l.019-.017q.151-.002.194-.014.043-.014.076-.054.035-.041.138-.265l.217-.471.562-1.273q.159-.374.316-.748h.134l.883 2.075.118.277q.052.118.118.256.068.138.093.163.027.025.064.039.039.012.172.014l.017.017v.107l-.017.017q-.219-.019-.395-.019-.343.01-.686.019l-.017-.017v-.107l.017-.017q.232-.004.289-.019.058-.017.058-.072 0-.046-.029-.12l-.254-.63h-1.197l-.225.529q-.06.143-.06.209 0 .052.056.077.056.025.281.027l.019.017v.107l-.017.017q-.267-.017-.467-.017-.227 0-.459.017zm.943-1.16h1.046l-.519-1.246zm.626-1.931zm-.048 3.198zm2.469-.086l-.128-.325-.153-.353-.424-.986q-.041-.097-.074-.128-.031-.031-.064-.037-.033-.006-.132-.01l-.017-.017v-.089l.019-.019q.289.014.459.014.24 0 .482-.014l.017.017v.091l-.017.017q-.215.006-.25.031-.035.023-.035.06 0 .062.083.267l.252.628.198.469.207-.469.172-.426q.099-.242.128-.343.029-.101.029-.134 0-.039-.045-.056-.045-.019-.229-.027l-.017-.017v-.089l.019-.019q.256.014.384.014.107 0 .368-.014l.019.019v.089l-.017.017q-.122.01-.163.035-.039.025-.079.097-.037.07-.219.442l-.198.424q-.05.107-.358.841z"/><use xlink:href="#i"/><use xlink:href="#j"/><use xlink:href="#k"/><use xlink:href="#i" x="4.58"/><path d="M43.383 94.006l-.019-.019v-.087l.017-.019q.395-.046.666-.153l.039.025q-.023.238-.023.953v.527q.039-.052.147-.157.107-.107.174-.151.068-.043.184-.077.118-.033.246-.033.234 0 .409.116.178.116.263.31.087.192.087.411 0 .209-.072.397-.07.188-.167.31-.058.07-.205.178-.287.209-.405.26-.116.054-.302.054-.145 0-.263-.041-.118-.039-.244-.126l-.167.157-.068-.027q.039-.376.039-.856v-1.096l-.008-.397q-.006-.227-.014-.318-.006-.093-.019-.11-.012-.017-.043-.025-.029-.008-.25-.008zm.68 1.476v.775q0 .097.008.128.01.029.083.091.074.06.19.105.116.043.24.043.294 0 .459-.227.167-.227.167-.577 0-.219-.07-.387-.068-.169-.207-.258-.138-.089-.312-.089-.205 0-.362.122-.155.12-.196.273z"/><use xlink:href="#k" x="5.689"/><path d="M48.809 96.487l-.066.149q-.215.138-.384.18-.167.041-.3.041-.248 0-.471-.097-.221-.097-.362-.329-.138-.232-.138-.558 0-.217.054-.391.054-.176.112-.26.06-.085.201-.188.141-.103.298-.165.157-.062.339-.062.248 0 .436.118.19.116.267.298.076.182.076.387 0 .064-.006.124l-.023.023q-.141.031-.378.041-.238.01-.314.01h-.664q.004.428.215.63.211.203.517.203.145 0 .277-.05.134-.05.283-.138zm-1.325-.845q.037.006.285.014.25.008.37.008.287 0 .349-.01.002-.05.002-.077 0-.32-.13-.475-.13-.157-.356-.157-.246 0-.384.176-.136.176-.136.521zm.577-.951zm-.025 2.224zm1.972-.108l-.019-.017v-.107l.019-.017q.151-.002.194-.014.043-.014.076-.054.035-.041.138-.265l.217-.471.562-1.273q.159-.374.316-.748h.134l.883 2.075.118.277q.052.118.118.256.068.138.093.163.027.025.064.039.039.012.172.014l.017.017v.107l-.017.017q-.219-.019-.395-.019-.343.01-.686.019l-.017-.017v-.107l.017-.017q.232-.004.289-.019.058-.017.058-.072 0-.046-.029-.12l-.254-.63H50.88l-.225.529q-.06.143-.06.209 0 .052.056.077.056.025.281.027l.019.017v.107l-.017.017q-.267-.017-.467-.017-.227 0-.459.017zm.943-1.16h1.046l-.519-1.246zm.626-1.931zm-.048 3.198z"/><use xlink:href="#l"/><use xlink:href="#m"/><use xlink:href="#j" x="17.636"/><use xlink:href="#n"/><path d="M60.719 94.821l.039.027q-.012.138-.017.364.165-.136.314-.277.043-.039.081-.058.039-.019.128-.039.089-.021.182-.021.157 0 .304.064.149.064.223.153.076.087.105.207.029.12.029.296v.364q0 .035.01.515.004.196.043.234.039.037.256.037l.017.017v.089l-.017.017q-.263-.017-.356-.017-.054 0-.302.017l-.025-.023q.027-.269.027-.701v-.271q0-.244-.012-.351-.01-.107-.068-.194-.058-.089-.155-.136-.097-.05-.232-.05-.107 0-.184.023-.076.021-.172.089-.095.066-.141.126-.045.058-.056.11-.008.05-.008.215v.36q0 .046.008.294.008.246.017.287.01.041.029.06.019.019.045.025.027.004.223.017l.019.017v.087l-.017.019q-.258-.017-.498-.017-.238 0-.496.017l-.019-.019v-.087l.019-.017q.201-.012.225-.019.027-.006.045-.025.021-.021.027-.06.008-.041.017-.267.01-.227.01-.343v-.407q0-.083-.008-.225-.008-.143-.014-.176-.004-.033-.031-.048-.027-.017-.107-.017l-.174-.002-.019-.017v-.089l.017-.017q.395-.048.666-.155z"/><path d="M62.685 96.183h.089l.019.019q.004.174.021.298.064.097.221.159.157.06.31.06.219 0 .349-.118.132-.118.132-.281 0-.089-.048-.153-.048-.066-.145-.107-.095-.043-.343-.101-.213-.05-.298-.077-.085-.029-.163-.095-.079-.066-.12-.161-.041-.097-.041-.213 0-.277.219-.442.221-.167.55-.167.138 0 .302.039.163.037.248.072l.019.029q-.017.083-.021.434l-.019.019h-.083l-.019-.019q-.008-.126-.023-.176-.014-.052-.074-.11-.06-.06-.169-.099-.11-.041-.232-.041-.126 0-.213.037-.085.037-.138.114-.052.074-.052.182 0 .078.031.141.033.062.099.101.066.037.138.054l.225.058q.289.07.413.122.126.052.194.157.068.103.068.252 0 .285-.236.49-.236.205-.606.205-.13 0-.325-.029-.192-.029-.329-.064l-.01-.027.021-.138q.01-.064.012-.128.002-.066.004-.275zM99.967 3.09l.017-.014q.378.017.589.017.234 0 .63-.014.147-.004.213-.004.523 0 .709.19.186.19.186.451 0 .174-.091.341-.091.167-.269.287-.178.118-.49.178.058.081.209.279l.294.389q.143.192.306.407.163.213.211.242.048.027.081.033.035.006.11.006l.017.017v.097l-.019.019q-.099-.012-.236-.012-.147 0-.32.012-.143-.174-.449-.602-.356-.496-.728-.92l.021-.064q.107.006.167.006.358 0 .56-.172.203-.172.203-.475 0-.273-.182-.411-.182-.141-.492-.141-.217 0-.409.06-.031.045-.031.775v.957l.002.403q.002.234.012.302.01.068.029.091.021.023.077.039.056.014.275.023l.017.012v.103l-.017.017q-.01 0-.364-.012-.147-.004-.229-.004-.064 0-.591.017l-.017-.017v-.103l.017-.012q.192-.008.256-.021.064-.012.085-.031.023-.021.035-.085.014-.064.017-.285l.002-.436v-.957l-.004-.403q-.002-.236-.012-.304-.008-.068-.029-.091-.019-.023-.074-.037-.056-.014-.275-.023l-.017-.014z"/><use xlink:href="#o"/><path d="M105.507 2.935l.039.025q-.023.238-.023.953v1.296q0 .045.008.294.008.246.017.287.01.041.029.06.019.019.046.025.027.004.223.017l.019.017v.087l-.017.019q-.258-.017-.498-.017-.238 0-.496.017l-.019-.019v-.087l.019-.017q.201-.012.225-.019.027-.006.046-.025.021-.021.027-.06.008-.041.017-.267.01-.227.01-.343V4.107l-.008-.438q-.006-.229-.014-.318-.006-.089-.019-.105-.012-.017-.043-.025-.031-.008-.25-.008l-.019-.019v-.087l.017-.019q.395-.045.666-.153z"/><use xlink:href="#o" x="3.258"/><path d="M109.045 6.034l-.128-.325-.153-.353-.424-.986q-.041-.097-.074-.128-.031-.031-.064-.037-.033-.006-.132-.01l-.017-.017v-.089l.019-.019q.289.014.459.014.24 0 .482-.014l.017.017v.091l-.017.017q-.215.006-.25.031-.035.023-.035.06 0 .062.083.267l.252.628.198.469.207-.469.172-.426q.099-.242.128-.343.029-.101.029-.134 0-.039-.046-.056-.046-.019-.229-.027l-.017-.017v-.089l.019-.019q.256.014.384.014.107 0 .368-.014l.019.019v.089l-.017.017q-.122.01-.163.035-.039.025-.079.097-.037.07-.219.442l-.198.424q-.05.107-.358.841z"/><use xlink:href="#i" x="73.552" y="-90.794"/><use xlink:href="#p"/><use xlink:href="#q"/><path d="M117.227 6.013l-.019-.017v-.107l.019-.017q.151-.002.194-.014.043-.014.077-.054.035-.041.138-.265l.217-.471.562-1.273q.159-.374.316-.748h.134l.883 2.075.118.277q.052.118.118.256.068.138.093.163.027.025.064.039.039.012.172.014l.017.017v.107l-.017.017q-.219-.019-.395-.019-.343.01-.686.019l-.017-.017v-.107l.017-.017q.232-.004.289-.019.058-.017.058-.072 0-.045-.029-.12l-.254-.63h-1.197l-.225.529q-.06.143-.06.209 0 .052.056.076.056.025.281.027l.019.017v.107l-.017.017q-.267-.017-.467-.017-.227 0-.459.017zm.943-1.16h1.046l-.519-1.246zm.626-1.931zm-.048 3.198z"/><path d="M122.221 5.775l-.083.138q-.267.147-.595.147-.455 0-.703-.271-.248-.271-.248-.699 0-.194.041-.345.043-.153.107-.252.066-.099.145-.157.078-.058.265-.161.188-.103.283-.134.095-.033.263-.033.32 0 .525.122-.039.234-.06.521l-.019.017h-.085l-.019-.019q-.008-.174-.023-.234-.014-.06-.165-.128-.149-.068-.318-.068-.169 0-.302.072-.132.07-.201.234-.066.161-.066.387 0 .19.054.372.054.18.141.3.089.118.234.19.145.072.322.072.112 0 .217-.029.107-.029.246-.095z"/><use xlink:href="#q" x="7.458"/><path d="M124.28 3.103q.097 0 .165.068.068.068.068.165 0 .095-.068.163-.068.068-.165.068-.095 0-.165-.066-.068-.068-.068-.165 0-.097.068-.165.07-.068.165-.068zm.176.924l.039.027q-.023.271-.023.688v.467q0 .045.008.294.008.246.017.287.01.041.029.06.019.019.046.025.027.004.223.017l.019.017v.087l-.017.019q-.258-.017-.498-.017-.238 0-.496.017l-.019-.019v-.087l.019-.017q.201-.012.225-.019.027-.006.046-.025.021-.021.027-.06.008-.041.017-.267.01-.227.01-.343v-.407q0-.083-.008-.225-.008-.143-.014-.176-.004-.033-.031-.048-.027-.017-.107-.017l-.174-.002-.019-.017v-.089l.017-.017q.395-.048.666-.155zm-.161 2.094z"/><use xlink:href="#n" x="67.219" y="-90.794"/><use xlink:href="#p" x="14.849"/><path d="M129.904 5.389h.089l.019.019q.004.174.021.298.064.097.221.159.157.06.31.06.219 0 .349-.118.132-.118.132-.281 0-.089-.048-.153-.048-.066-.145-.107-.095-.043-.343-.101-.213-.05-.298-.076-.085-.029-.163-.095-.079-.066-.12-.161-.041-.097-.041-.213 0-.277.219-.442.221-.167.55-.167.138 0 .302.039.163.037.248.072l.019.029q-.017.083-.021.434l-.019.019h-.083l-.019-.019q-.008-.126-.023-.176-.014-.052-.074-.11-.06-.06-.169-.099-.11-.041-.232-.041-.126 0-.213.037-.085.037-.138.114-.052.074-.052.182 0 .079.031.141.033.062.099.101.066.037.138.054l.225.058q.289.07.413.122.126.052.194.157.068.103.068.252 0 .285-.236.49-.236.205-.606.205-.13 0-.325-.029-.192-.029-.329-.064l-.01-.027.021-.138q.01-.064.012-.128.002-.066.004-.275z"/><g class="F"><use xlink:href="#r"/><path d="M17.636 52.329q-.282 0-.394.072-.112.072-.112.248 0 .131.078.208.078.078.21.078.2 0 .31-.15.11-.152.11-.422v-.034zm.703-.195v1.101h-.501v-.215q-.091.127-.234.196-.143.069-.315.069-.329 0-.513-.174-.183-.174-.183-.486 0-.338.219-.498.219-.162.677-.162h.35v-.084q0-.122-.09-.184-.088-.064-.26-.064-.181 0-.351.047-.169.045-.353.145v-.431q.167-.069.339-.102.172-.033.365-.033.47 0 .66.191.191.191.191.684z"/><use xlink:href="#V" x="-74.521" y="-3.274"/><use xlink:href="#Z" x="-19.47" y="-19.679"/><use xlink:href="#r" x="8.488"/><path d="M26.192 51.137v.169h.593v.388h-.593v1.542h-.505v-1.542h-.469v-.388h.469v-.134q0-.348.145-.482.145-.134.537-.134h.415v.388h-.394q-.114 0-.155.041-.04.041-.043.153z"/><use xlink:href="#Z" x="-13.104" y="-19.679"/><use xlink:href="#U" x="-53.299" y="-3.275"/><use xlink:href="#W" x="-33.714" y="7.309"/><use xlink:href="#r" x="19.099"/></g><use xlink:href="#B" x="-32.782" y="-52.25"/><path d="M29.063 34.704h-.084q-.222 0-.335.079-.112.077-.112.232 0 .139.084.216.084.077.233.077.209 0 .329-.145.12-.146.121-.402v-.056zm.492-.105v.881H29.3v-.229q-.081.138-.205.204-.123.065-.299.065-.236 0-.376-.132-.141-.134-.141-.357 0-.258.172-.391.174-.134.508-.134h.34v-.04q-.001-.185-.094-.267-.092-.084-.295-.084-.13 0-.262.037-.132.037-.258.109v-.254q.141-.054.269-.08.13-.028.251-.028.192 0 .327.056.136.056.22.169.052.069.074.171.022.101.022.303z"/><use xlink:href="#N" x="-1.236" y="-52.25"/><use xlink:href="#K" x="5.555" y="-52.25"/><use xlink:href="#B" x="-24.293" y="-52.25"/><path d="M38.032 34.524v.956h-.255v-.956q0-.208-.073-.306-.073-.098-.229-.098-.178 0-.274.127-.095.125-.095.361v.872h-.254v-2.144h.254v.832q.068-.132.183-.2.116-.069.274-.069.236 0 .351.156.117.154.117.469z"/><use xlink:href="#L" x="10.649" y="-52.251"/><path d="M40.86 34.921q0 .171.062.258.063.087.186.087h.296v.215h-.321q-.227 0-.353-.146-.124-.146-.124-.413v-1.401H40.2v-.198h.66z"/><use xlink:href="#K" x="15.742" y="-52.25"/><path d="M43.728 33.937h.649v1.346h.503v.197h-1.26v-.197h.503v-1.149h-.395zm.395-.601h.254v.321h-.254z"/><use xlink:href="#N" x="14.044" y="-52.25"/><use xlink:href="#s"/><use xlink:href="#t"/><use xlink:href="#u"/><use xlink:href="#I" x="-22.595" y="-52.25"/><use xlink:href="#B" x="-2.223" y="-52.25"/><use xlink:href="#F" x="-7.315" y="-52.25"/><path d="M61.233 34.921q0 .171.062.258.063.087.186.087h.296v.215h-.321q-.227 0-.353-.146-.124-.146-.124-.413v-1.401h-.407v-.198h.66z"/><use xlink:href="#S" x="1.583" y="-30.092"/><use xlink:href="#E" x="-0.525" y="-52.25"/><path d="M67.037 34.255q-.081-.063-.165-.092-.084-.029-.185-.029-.237 0-.362.149-.125.149-.125.43v.768h-.255v-1.543h.255v.302q.063-.164.194-.251.132-.088.313-.088.094 0 .175.023.081.023.156.073z"/><use xlink:href="#t" x="18.676"/><use xlink:href="#v"/><use xlink:href="#I" x="-3.92" y="-52.25"/><use xlink:href="#I" x="-2.222" y="-52.25"/><use xlink:href="#f" x="-85.644" y="20.337"/><use xlink:href="#c" x="-17.511" y="-58.509"/><use xlink:href="#g" x="-85.644" y="20.336"/><path d="M53.013 30.968q.035-.074.089-.11.055-.036.131-.036.14 0 .196.109.058.107.058.406v.671h-.174v-.662q0-.245-.028-.304-.027-.06-.099-.06-.083 0-.114.064-.03.063-.03.3v.662h-.174v-.662q0-.248-.03-.306-.029-.058-.105-.058-.075 0-.105.064-.029.063-.029.3v.662h-.173v-1.158h.173v.099q.034-.062.085-.094.052-.033.117-.033.079 0 .13.036.053.036.082.11z"/><use xlink:href="#t" x="-39.398" y="5.655"/><use xlink:href="#u" x="-39.398" y="5.654"/><path d="M15.982 40.412h1.457v.237h-1.457zm0-.559h1.457v.234h-1.457z"/><use xlink:href="#E" x="-45.017" y="-46.596"/><use xlink:href="#t" x="-39.398" y="10.064"/><use xlink:href="#v" x="-58.074" y="10.064"/><path d="M15.982 44.822h1.457v.237h-1.457zm0-.559h1.457v.234h-1.457zm4.539.511q0-.295-.094-.445-.094-.15-.277-.15-.185 0-.28.152-.095.15-.095.444 0 .292.095.444.095.152.28.152.183 0 .277-.15.094-.15.094-.445zm-.746-.576q.061-.113.167-.174.107-.061.248-.061.278 0 .438.215.16.214.16.59 0 .382-.161.599-.16.216-.44.216-.138 0-.244-.059-.105-.061-.168-.175v.194h-.254V43.4h.254z"/><g class="D"><path d="M23.096 42.695l-.158.316 27.502 13.75.158-.314z"/><path d="M24.278 43.484l.947-.316-2.524-.473 1.893 1.735z" class="B C"/></g><g class="F"><use xlink:href="#U" x="45.403" y="-8.587"/><path d="M131.974 45.993l-.613 1.929h-.622l-.613-1.929h.512l.412 1.506.413-1.506z"/><use xlink:href="#b" x="12.65" y="18.319"/><path d="M134.899 47.118V45.63h-.512v-.388h1.016v1.876q0 .227.071.322.071.095.239.095h.403v.388h-.544q-.36 0-.517-.186-.157-.186-.157-.618zm1.731.131v-1.256h.505v1.178q0 .208.059.298.059.09.195.09.136 0 .212-.121.077-.121.077-.338v-1.108h.505v1.929h-.505v-.286q-.053.16-.183.248-.127.088-.308.088-.276 0-.417-.183-.14-.183-.14-.541z"/><use xlink:href="#b" x="19.016" y="18.319"/><use xlink:href="#V" x="47.525" y="-8.586"/><use xlink:href="#U" x="60.258" y="-8.587"/></g><g class="D"><path d="M112.439 42.636l-.158.314 27.502 13.752.158-.316z"/><path d="M138.601 55.914l-.947.316 2.524.473-1.893-1.735z" class="B C"/></g><path d="M125.922 51.4c-2.468.034-4.901.597-7.051 1.568-4.299 1.943-7.484 5.542-7.484 9.857h.354c0-4.141 3.065-7.632 7.275-9.535s9.543-2.201 14.004.029l.158-.314c-2.286-1.143-4.788-1.639-7.256-1.605zM25.906 63.321l-.079.192q-.459.234-.98.234-.746 0-1.213-.424-.465-.424-.465-1.108 0-.471.232-.823.234-.353.614-.527.382-.176.858-.176.275 0 .544.058.269.058.449.138l.014.021q-.048.116-.089.573l-.014.016h-.097l-.017-.016-.021-.351q-.151-.12-.366-.186-.213-.068-.444-.068-.349 0-.626.151-.277.149-.43.434-.153.283-.153.695 0 .413.18.726.18.312.49.48.312.167.728.167.184 0 .353-.035.169-.035.281-.087.114-.052.217-.126zm.833-1.62l.039.027q-.023.271-.023.688v.482q0 .265.039.368.041.103.141.159.099.054.236.054.151 0 .275-.058.124-.06.207-.167.085-.107.097-.145.012-.037.017-.209l.006-.232v-.223q0-.083-.008-.225-.008-.143-.014-.176-.004-.033-.031-.047-.027-.016-.107-.016l-.174-.002-.019-.016v-.089l.017-.016q.395-.047.666-.155l.039.027q-.023.271-.023.688v.364q0 .031.01.506.004.176.021.215.019.037.05.054.031.014.184.014h.058l.019.016v.083l-.017.019q-.291-.016-.391-.016-.126 0-.291.014l-.019-.016q.012-.211.019-.358-.13.101-.298.271-.064.064-.184.107-.12.043-.273.043-.232 0-.362-.072-.128-.074-.182-.203-.054-.13-.054-.446l.002-.163v-.403q0-.083-.008-.225-.008-.143-.014-.176-.004-.033-.031-.047-.027-.016-.107-.016l-.174-.002-.019-.016v-.089l.017-.016q.395-.047.666-.155zm.494-.13zm.021 2.224z"/><use xlink:href="#w"/><use xlink:href="#w" x="1.67"/><use xlink:href="#x"/><path d="M34.652 61.701l.039.027q-.012.138-.017.364.165-.136.314-.277.043-.039.081-.058.039-.019.128-.039.089-.021.182-.021.157 0 .304.064.149.064.223.153.076.087.105.207.029.12.029.296v.364q0 .035.01.515.004.196.043.234.039.037.256.037l.017.016v.089l-.017.016q-.263-.016-.356-.016-.054 0-.302.016l-.025-.023q.027-.269.027-.701v-.271q0-.244-.012-.351-.01-.107-.068-.194-.058-.089-.155-.136-.097-.05-.232-.05-.107 0-.184.023-.076.021-.172.089-.095.066-.141.126-.045.058-.056.11-.008.05-.008.215v.36q0 .046.008.294.008.246.017.287.01.041.029.06.019.019.045.025.027.004.223.016l.019.016v.087l-.017.019q-.258-.016-.498-.016-.238 0-.496.016l-.019-.019v-.087l.019-.016q.201-.012.225-.019.027-.006.045-.025.021-.021.027-.06.008-.041.017-.267.01-.227.01-.343v-.407q0-.083-.008-.225-.008-.143-.014-.176-.004-.033-.031-.047-.027-.016-.107-.016l-.174-.002-.019-.016v-.089l.017-.016q.395-.047.666-.155z"/><use xlink:href="#m" x="-18.675" y="-33.12"/><path d="M39.012 62.959l.017-.016h.101l.017.016q.01.265.027.325.019.058.112.124.095.064.25.105.157.041.316.041.219 0 .393-.081.176-.081.273-.236.097-.157.097-.351 0-.136-.048-.238-.045-.101-.13-.161-.083-.062-.19-.091-.107-.031-.32-.066-.207-.033-.325-.06-.116-.027-.232-.083-.116-.056-.194-.141-.076-.087-.124-.211-.045-.126-.045-.269 0-.387.269-.633.269-.248.721-.248.18 0 .391.046.213.043.387.13l.014.025q-.045.19-.056.542l-.019.016h-.107l-.017-.014q-.004-.248-.012-.312-.008-.064-.188-.159-.18-.095-.391-.095-.176 0-.329.07-.153.07-.232.221-.079.151-.079.308 0 .122.048.217.048.093.122.149.076.054.176.081.101.027.368.066.366.052.531.126.167.072.267.232.101.159.101.384 0 .44-.36.734-.358.294-.868.294-.428 0-.75-.153l-.012-.027q.021-.13.031-.608z"/><use xlink:href="#m" x="-14.012" y="-33.12"/><path d="M42.891 62.269l-.081-.021-.017-.021v-.256q.368-.273.715-.273.238 0 .395.089.157.089.227.223.07.132.07.31l-.01.415v.616q0 .126.017.153.019.027.041.037.023.008.085.014l.118.01.017.019v.083l-.017.016q-.151-.012-.281-.012-.124 0-.298.012l-.031-.029.008-.333-.451.351q-.114.047-.248.047-.165 0-.285-.06-.118-.06-.182-.167-.062-.107-.062-.26 0-.304.19-.473.19-.172 1.038-.291 0-.306-.136-.43-.136-.126-.366-.126-.12 0-.219.035-.097.035-.112.058-.014.021-.112.252zm.959.327q-.579.097-.721.209-.143.112-.143.345 0 .322.32.322.275 0 .544-.318zm-.351-1.025zm-.043 2.224z"/><use xlink:href="#m" x="-10.514" y="-33.12"/><use xlink:href="#x" x="14.031"/><path d="M114.666 38.281l-.019-.019v-.095l.019-.017q.126-.002.201-.014.077-.012.097-.041.023-.029.029-.093.008-.064.014-.289.008-.225.008-.322v-1.67q0-.105-.039-.155-.037-.052-.103-.064-.066-.014-.225-.017l-.017-.017v-.097l.017-.019q.285.01.374.01.209 0 .343-.01l.659.856.969 1.215q.176.221.358.42v-1.6q0-.074-.008-.316-.006-.244-.017-.308-.01-.066-.037-.089-.025-.023-.097-.033-.07-.012-.192-.014l-.017-.017v-.095l.017-.019q.167.01.477.01.283 0 .411-.01l.019.019v.095l-.017.017q-.136.002-.211.017-.074.012-.093.043-.019.031-.027.091-.006.06-.014.285-.006.225-.006.325v.982l.002.568q.004.279.008.56-.103-.035-.358-.087l-.147-.174-.44-.537-1.401-1.751v1.585q0 .095.006.339.008.244.019.296.01.052.027.072.017.019.07.035.056.017.227.019l.017.017v.097l-.017.017q-.107-.014-.347-.014-.308 0-.54.014z"/><use xlink:href="#o" x="15.344" y="32.27"/><path d="M120.169 38.281l-.017-.019v-.083l.019-.017q.077-.002.124-.023.05-.023.118-.091.07-.07.246-.285l.333-.411-.176-.263q-.039-.058-.163-.227-.122-.169-.205-.254-.083-.087-.124-.107-.039-.021-.081-.021-.019 0-.05.002l-.021-.014-.017-.083.017-.021q.211-.025.465-.079.143.118.422.552l.153.242.13-.165q.151-.196.424-.589.097.014.155.014.054 0 .145-.014l.017.017v.083l-.017.017q-.068.006-.099.021-.031.014-.114.095-.083.081-.221.248l-.124.149q-.037.043-.072.089l-.128.165.077.118q.052.074.248.349.198.273.277.366.081.091.114.107.035.014.114.014l.017.017v.085l-.017.017q-.153-.014-.236-.014-.025 0-.265.014-.169-.213-.341-.477l-.211-.318q-.213.242-.571.796-.141-.014-.167-.014-.041 0-.178.014z"/><use xlink:href="#m" x="67.177" y="-58.524"/><path d="M124.863 37.555l.017-.017h.101l.017.017q.01.265.027.325.019.058.112.124.095.064.25.105.157.041.316.041.219 0 .393-.081.176-.081.273-.236.097-.157.097-.351 0-.136-.048-.238-.046-.101-.13-.161-.083-.062-.19-.091-.107-.031-.32-.066-.207-.033-.325-.06-.116-.027-.232-.083-.116-.056-.194-.141-.077-.087-.124-.211-.046-.126-.046-.269 0-.387.269-.633.269-.248.721-.248.18 0 .391.045.213.043.387.13l.014.025q-.046.19-.056.542l-.019.017h-.107l-.017-.014q-.004-.248-.012-.312-.008-.064-.188-.159-.18-.095-.391-.095-.176 0-.329.07-.153.07-.232.221-.079.151-.079.308 0 .122.048.217.048.093.122.149.077.054.176.081.101.027.368.066.366.052.531.126.167.072.267.232.101.159.101.384 0 .44-.36.734-.358.294-.868.294-.428 0-.75-.153l-.012-.027q.021-.13.031-.608z"/><use xlink:href="#m" x="71.84" y="-58.524"/><use xlink:href="#i" x="91.592" y="-58.524"/><use xlink:href="#m" x="75.337" y="-58.524"/><use xlink:href="#o" x="29.094" y="32.27"/><path d="M142.477 56.636l-.649 1.087h.649zm-.046-.254h.322v1.341h.274v.226h-.274v.491h-.277v-.491h-.872v-.263zM35.629 20.599l.017-.014q.513.017.591.017.07 0 .593-.017l.017.014v.103l-.017.014q-.143.004-.221.012-.076.008-.112.031-.035.023-.048.107-.01.083-.01.232l-.004.475v.914q0 .343.004.48l.01.358h.422q.504 0 .628-.012.126-.012.242-.06.023-.052.064-.238.043-.186.045-.215l.019-.017h.101l.014.017q-.017.083-.035.32-.017.238-.017.384l-.017.017q-.393-.012-1.031-.012l-.604-.004q-.207 0-.422.017l-.017-.017v-.068l.017-.021q.128-.066.141-.081.012-.014.025-.267.014-.252.014-.608v-.887l-.004-.403q-.002-.236-.012-.304-.008-.068-.029-.091-.019-.023-.074-.037-.056-.014-.275-.023l-.017-.014z"/><use xlink:href="#n" x="-19.557" y="-73.286"/><path d="M42.736 21.678l.017.037q-.085.13-.105.169h-.384q.058.114.058.238 0 .147-.068.285-.066.138-.186.236-.12.097-.273.155-.151.058-.345.058h-.095q-.122.097-.157.145-.035.048-.035.097 0 .091.083.128.085.037.347.037l.463-.006q.219 0 .335.052.118.052.19.186.072.132.072.281 0 .227-.149.453-.147.227-.426.345-.279.118-.595.118-.18 0-.339-.039-.157-.039-.277-.12-.118-.079-.19-.207-.072-.128-.072-.267 0-.076.023-.161.023-.083.087-.18l.374-.209q-.18-.056-.227-.11-.045-.056-.045-.132 0-.079.052-.186l.333-.24q-.294-.076-.397-.229-.101-.153-.101-.335 0-.167.072-.318.072-.153.217-.244.147-.091.327-.143.182-.054.331-.054.258 0 .492.167.374 0 .597-.008zm-1.681.48q0 .126.05.271.05.145.159.219.112.074.25.074.184 0 .316-.12.134-.12.134-.374 0-.215-.122-.387-.122-.172-.345-.172-.188 0-.316.124-.126.122-.126.364zm.606 1.387q-.333 0-.384.008-.05.008-.143.07-.093.062-.153.167-.058.107-.058.24 0 .234.174.38.174.147.463.147.217 0 .401-.091.184-.091.271-.244.089-.153.089-.294 0-.141-.074-.242-.072-.099-.19-.122-.116-.021-.395-.021z"/><path d="M43.407 20.611q.097 0 .165.068.068.068.068.165 0 .095-.068.163-.068.068-.165.068-.095 0-.165-.066-.068-.068-.068-.165 0-.097.068-.165.07-.068.165-.068zm.176.924l.039.027q-.023.271-.023.688v.467q0 .045.008.294.008.246.017.287.01.041.029.06.019.019.045.025.027.004.223.017l.019.017v.087l-.017.019q-.258-.017-.498-.017-.238 0-.496.017l-.019-.019v-.087l.019-.017q.201-.012.225-.019.027-.006.045-.025.021-.021.027-.06.008-.041.017-.267.01-.227.01-.343v-.407q0-.083-.008-.225-.008-.143-.014-.176-.004-.033-.031-.048-.027-.017-.107-.017l-.174-.002-.019-.017v-.089l.017-.017q.395-.048.666-.155zm-.161 2.094z"/><use xlink:href="#l" x="-9.164" y="-73.286"/><use xlink:href="#i" x="9.208" y="-73.285"/><use xlink:href="#y"/><path d="M51.229 22.112v.42l.002.403q.002.225.012.3.01.072.029.095.021.021.076.037.056.014.275.023l.017.012v.103l-.017.017q-.525-.017-.593-.017-.066 0-.591.017l-.017-.017v-.103l.017-.012q.194-.008.256-.021.064-.012.085-.033.023-.021.035-.083.014-.062.017-.281l.002-.44v-.957l-.004-.403q-.002-.236-.012-.304-.008-.068-.029-.091-.019-.023-.074-.037-.056-.014-.275-.023l-.017-.014v-.103l.017-.014q.876.012 1.023.012.492 0 1.009-.012l.017.014q-.033.103-.043.236-.01.13-.023.37l-.017.017h-.097l-.014-.017q-.004-.014-.019-.159-.01-.114-.033-.209-.215-.072-.593-.072-.169 0-.397.025-.023.161-.023.785v.358q.263.004.358.004.176 0 .302-.012.126-.014.151-.027.025-.012.037-.045.014-.035.027-.151l.012-.112.014-.017h.105l.017.019-.014.453q0 .079.006.227.008.169.008.263l-.019.017h-.103l-.014-.017-.008-.176q-.006-.103-.021-.151-.014-.048-.048-.062-.033-.014-.147-.027-.114-.012-.349-.012-.209 0-.314.006z"/><use xlink:href="#n" x="-5.013" y="-73.286"/><path d="M55.793 21.535l.039.027q-.012.12-.019.426l.155-.196q.076-.097.134-.149.06-.054.138-.083.079-.029.161-.029.091 0 .172.037l.014.029q-.033.275-.037.484h-.093q-.083-.19-.267-.19-.128 0-.223.083-.095.081-.128.205-.031.122-.031.31v.229q0 .062.008.304.008.242.017.279.01.037.029.056.021.017.052.023.033.006.296.021l.019.017v.087l-.019.019q-.275-.017-.575-.017-.238 0-.496.017l-.019-.019v-.087l.019-.017q.201-.012.225-.019.027-.006.045-.025.021-.021.027-.06.008-.041.017-.267.01-.227.01-.343v-.407q0-.083-.008-.225-.008-.143-.014-.176-.004-.033-.031-.048-.027-.017-.107-.017l-.174-.002-.019-.017v-.089l.017-.017q.395-.048.666-.155z"/><path d="M57.43 21.535l.039.027q-.012.136-.017.327l.196-.18q.083-.076.11-.097.027-.023.126-.052.099-.029.209-.029.207 0 .362.103.155.101.229.281.279-.265.325-.294.048-.029.149-.058.101-.031.203-.031.163 0 .3.07.136.07.217.184.081.114.093.246.014.132.014.364v.217q0 .035.012.515.004.196.043.234.039.037.254.037l.017.017v.089l-.017.017q-.263-.017-.356-.017-.052 0-.3.017l-.027-.023q.027-.269.027-.701v-.248q0-.329-.031-.459-.031-.132-.145-.215-.114-.085-.271-.085-.112 0-.209.045-.097.043-.176.132-.076.087-.085.163-.008.074-.008.277v.258q0 .091.008.341.008.25.017.291.01.041.029.06.021.017.045.023.027.004.223.017l.019.017v.087l-.017.019q-.258-.017-.498-.017-.221 0-.496.017l-.019-.019v-.087l.019-.017q.201-.012.225-.019.027-.006.045-.025.021-.021.027-.06.008-.041.017-.267.01-.227.01-.343v-.236q0-.234-.033-.36-.031-.126-.136-.213-.105-.087-.265-.087-.124 0-.227.05-.101.048-.167.12-.064.07-.081.132-.014.062-.014.269v.306q0 .091.008.341.008.25.017.291.01.041.029.06.021.017.045.023.027.004.223.017l.019.017v.087l-.017.019q-.258-.017-.498-.017-.238 0-.496.017l-.019-.019v-.087l.019-.017q.201-.012.225-.019.027-.006.045-.025.021-.021.027-.06.008-.041.017-.267.01-.227.01-.343v-.407q0-.083-.008-.225-.008-.143-.014-.176-.004-.033-.031-.048-.027-.017-.107-.017l-.174-.002-.019-.017v-.089l.017-.017q.395-.048.666-.155z"/><path d="M61.122 21.535l.039.027q-.023.271-.023.688v.482q0 .265.039.368.041.103.141.159.099.054.236.054.151 0 .275-.058.124-.06.207-.167.085-.107.097-.145.012-.037.017-.209l.006-.232v-.223q0-.083-.008-.225-.008-.143-.014-.176-.004-.033-.031-.048-.027-.017-.107-.017l-.174-.002-.019-.017v-.089l.017-.017q.395-.048.666-.155l.039.027q-.023.271-.023.688v.364q0 .031.01.506.004.176.021.215.019.037.05.054.031.014.184.014h.058l.019.017v.083l-.017.019q-.291-.017-.391-.017-.126 0-.291.014l-.019-.017q.012-.211.019-.358-.13.101-.298.271-.064.064-.184.107-.12.043-.273.043-.232 0-.362-.072-.128-.074-.182-.203-.054-.13-.054-.446l.002-.163v-.403q0-.083-.008-.225-.008-.143-.014-.176-.004-.033-.031-.048-.027-.017-.107-.017l-.174-.002-.019-.017v-.089l.017-.017q.395-.048.666-.155zm.494-.13zm.021 2.224z"/><use xlink:href="#y" x="14.924"/><use xlink:href="#i" x="27.481" y="-73.285"/><use xlink:href="#z"/><use xlink:href="#AA"/><use xlink:href="#AB"/><path d="M43.757 27.169q-.062-.065-.062-.096 0-.033.041-.087.043-.055.147-.146-.04.003-.065.003-.164 0-.26-.085-.096-.087-.096-.258 0-.12.047-.238.047-.12.127-.194.081-.076.194-.131.114-.055.248-.055.237 0 .329.154.16-.003.238-.018l.005.007-.022.138q-.037-.003-.072-.003-.048 0-.11.005.005.044.005.08 0 .196-.128.354-.127.157-.343.216-.077.073-.077.124 0 .052.04.099.041.045.247.215.119.096.154.169.037.073.037.139 0 .178-.196.305-.196.127-.491.127-.24 0-.367-.091-.125-.091-.125-.244 0-.09.05-.178.05-.088.185-.174.135-.085.318-.138zm-.095-.722q0 .142.066.223.068.08.194.08.165 0 .245-.15.08-.15.08-.34 0-.094-.028-.157-.028-.063-.085-.099-.056-.036-.139-.036-.16 0-.247.142-.087.142-.087.338zm.139.772q-.117.029-.222.095-.105.066-.15.145-.044.079-.044.164 0 .138.107.215.109.079.281.079.119 0 .215-.033.098-.033.153-.098.055-.063.055-.139 0-.048-.023-.098-.023-.05-.059-.084-.036-.033-.12-.096z"/><use xlink:href="#AB" x="2.116"/><path d="M46.089 27.993l-.017-.017.041-.189q.04-.181.121-.62l.105-.577q.022-.138.036-.254l.018-.163q.005-.047.005-.063 0-.047-.037-.047-.018 0-.058.021-.039.019-.175.107l-.018-.005-.012-.03.004-.021q.134-.109.263-.183.131-.074.196-.074.063 0 .063.065 0 .076-.076.455.156-.258.347-.387.192-.131.328-.131.062 0 .092.034.032.033.052.112.021.077.021.169 0 .127-.045.291-.044.163-.103.28-.059.116-.138.198-.079.081-.189.149-.109.066-.189.102-.08.036-.131.036-.037 0-.07-.008-.033-.007-.113-.032l-.116.737q-.15.021-.207.045zm.35-.938q.117.066.236.066.102 0 .178-.047.076-.047.157-.211.083-.164.125-.333.043-.171.043-.299 0-.113-.022-.153-.022-.04-.074-.04-.069 0-.154.043-.085.043-.185.153-.098.109-.169.263-.047.102-.083.265z"/><path d="M47.661 27.251l-.025-.019q.096-.316.161-.659.065-.345.065-.442 0-.062-.033-.062-.041 0-.229.124l-.017-.004-.014-.03.004-.021q.123-.098.258-.179.136-.081.2-.081.055 0 .055.069 0 .08-.101.533.128-.225.251-.379.123-.156.176-.19.055-.036.109-.036.025 0 .05.011l.005.015q-.021.076-.047.294l-.039.008q-.04-.055-.092-.055-.039 0-.094.032-.054.032-.134.128-.08.096-.139.219-.058.121-.094.266-.036.145-.091.411-.139.032-.187.048z"/><use xlink:href="#AA" x="7.133"/><path d="M50.692 26.912l.015.039-.004.017q-.167.139-.307.215-.139.074-.267.074-.169 0-.256-.105-.087-.106-.087-.313 0-.127.03-.269.03-.143.081-.249.051-.106.106-.168.056-.062.168-.132.15-.094.233-.123.083-.029.158-.029.135 0 .233.068l.004.018q-.04.164-.061.332l-.011.011h-.043l-.011-.011v-.092q.001-.028.001-.047 0-.045-.017-.07-.017-.025-.077-.045-.061-.021-.136-.021-.145 0-.232.076-.085.074-.154.3-.068.225-.068.397 0 .172.068.251.068.077.174.077.087 0 .182-.04.095-.04.263-.164z"/><use xlink:href="#AC"/><use xlink:href="#AD"/><path d="M54.994 25.182l.034.026q-.065.273-.147.668l-.163.777q-.039.198-.048.281-.003.026-.003.054 0 .066.039.066.052 0 .219-.132l.015.004.014.032-.004.018q-.128.112-.252.192-.124.079-.176.079-.029 0-.048-.032-.018-.03-.018-.092 0-.051.019-.153.021-.103.074-.328l-.007-.001q-.149.251-.356.429-.205.178-.321.178-.041 0-.07-.029-.029-.029-.047-.106-.018-.077-.018-.163 0-.117.039-.299.039-.182.098-.314.059-.134.117-.201.059-.068.157-.134.098-.066.168-.095.072-.029.146-.029.08 0 .232.034l.072-.418q.011-.052.011-.088 0-.03-.022-.043-.021-.012-.076-.012l-.116-.001-.011-.011.004-.034.011-.012q.258-.041.434-.109zm-.333.887q-.13-.068-.267-.068-.085 0-.139.019-.052.018-.08.045-.026.028-.07.12-.043.091-.084.225-.041.132-.065.262-.022.128-.022.248 0 .074.015.103.015.029.047.029.052 0 .149-.061.146-.094.262-.251.116-.157.174-.335.026-.081.081-.338z"/><use xlink:href="#AE"/><path d="M56.609 26.903l.015.032-.004.017q-.054.047-.187.143-.132.095-.192.127-.058.033-.101.033-.04 0-.065-.037-.023-.037-.023-.106 0-.081.047-.291.054-.243.138-.69l-.225.005-.01-.011.004-.023.011-.011q.147-.052.237-.101.026-.121.072-.475.147-.062.216-.099l.033.025-.054.211q-.01.04-.073.356.062.004.101.004.136 0 .193-.019l.014.011-.032.135q-.051 0-.3-.007-.153.734-.153.865 0 .063.052.063.026 0 .069-.022.044-.023.152-.102l.048-.037z"/><use xlink:href="#AE" x="1.726"/><use xlink:href="#AC" x="6.741"/><use xlink:href="#AD" x="6.741"/><use xlink:href="#AF"/><path d="M88.999 62.62h43.48c.642 0 1.159.517 1.159 1.159v5.476c0 .642-.517 1.159-1.159 1.159h-43.48c-.642 0-1.159-.517-1.159-1.159v-5.476c0-.642.517-1.159 1.159-1.159z" fill="#fff6d5" paint-order="normal" class="B E"/><use xlink:href="#B" x="30.346" y="-21.731"/><path d="M92.188 64.386v.612h.613v.234h-.613v.612h-.232v-.612h-.612v-.234h.612v-.612z"/><use xlink:href="#B" x="35.439" y="-21.731"/><use xlink:href="#AG"/><use xlink:href="#T" x="-9.1" y="21.038"/><path d="M100.065 64.456h.649v1.346h.503V66h-1.26v-.197h.503v-1.149h-.395zm.395-.601h.254v.321h-.254z"/><use xlink:href="#s" x="54.639" y="30.52"/><use xlink:href="#AG" x="6.791"/><use xlink:href="#AH"/><path d="M109.168 65.224h-.084q-.222 0-.335.079-.112.077-.112.232 0 .139.084.216.084.077.233.077.209 0 .329-.145.12-.146.121-.402v-.056zm.492-.105V66h-.255v-.229q-.081.138-.205.204-.123.065-.299.065-.236 0-.376-.132-.141-.134-.141-.357 0-.258.172-.391.174-.134.508-.134h.34v-.04q-.001-.185-.094-.267-.092-.084-.295-.084-.13 0-.262.037-.132.037-.258.109v-.254q.141-.054.269-.08.13-.028.251-.028.192 0 .327.056.136.056.22.169.052.069.074.171.022.101.022.303z"/><use xlink:href="#I" x="33.742" y="-21.731"/><use xlink:href="#B" x="54.114" y="-21.731"/><use xlink:href="#AG" x="18.675"/><use xlink:href="#T" x="9.575" y="21.038"/><path d="M118.74 64.456h.649v1.346h.503V66h-1.26v-.197h.503v-1.149h-.395zm.395-.601h.254v.321h-.254z"/><use xlink:href="#s" x="73.314" y="30.52"/><use xlink:href="#AG" x="25.466"/><use xlink:href="#AH" x="18.675"/><path d="M128.141 65.229q0-.295-.094-.445-.094-.15-.277-.15-.185 0-.28.152-.095.15-.095.444 0 .292.095.444.095.152.28.152.183 0 .277-.15.094-.15.094-.445zm-.746-.576q.061-.113.167-.174.107-.061.248-.061.278 0 .438.215.16.214.16.59 0 .382-.161.599-.16.216-.44.216-.138 0-.244-.059-.105-.061-.168-.175V66h-.254v-2.144h.254z"/><use xlink:href="#I" x="52.417" y="-21.731"/><use xlink:href="#I" x="54.115" y="-21.731"/><use xlink:href="#f" x="-24.796" y="57.761"/><use xlink:href="#c" x="43.337" y="-21.086"/><path d="M113.083 68.513q-.061-.047-.124-.069-.063-.022-.138-.022-.178 0-.272.112-.094.112-.094.322v.576h-.191v-1.158h.191v.226q.048-.123.146-.188.099-.066.235-.066.07 0 .131.018.061.018.117.055z"/><use xlink:href="#h" x="-24.796" y="57.76"/><path d="M93.294 74.766v.062l-.008.025-.101.06q-.037.023-.043.035-.006.012-.016.124-.008.11-.008.269 0 .18.023.391l-.012.021q-.566.217-1.164.217-.459 0-.829-.174-.37-.174-.587-.515-.217-.341-.217-.81 0-.715.488-1.137.49-.422 1.277-.422.579 0 1.04.196l.014.023q-.037.138-.087.581l-.016.014h-.095l-.016-.016-.01-.219q-.006-.107-.014-.126-.006-.019-.043-.047-.037-.031-.192-.095-.153-.066-.308-.095-.155-.031-.333-.031-.378 0-.67.157-.291.157-.44.459-.147.3-.147.668 0 .38.159.709.159.327.457.511.298.184.692.184.172 0 .349-.033.18-.035.296-.097.019-.066.019-.267v-.229q0-.163-.021-.203-.021-.041-.103-.058-.081-.016-.351-.021l-.019-.019v-.091l.019-.019.126.004q.325.01.529.01.118 0 .345-.012z"/><path d="M94.224 73.923l.039.027q-.012.12-.019.426l.155-.196q.076-.097.134-.149.06-.054.138-.083.079-.029.161-.029.091 0 .172.037l.014.029q-.033.275-.037.484h-.093q-.083-.19-.267-.19-.128 0-.223.083-.095.081-.128.205-.031.122-.031.31v.229q0 .062.008.304.008.242.016.279.01.037.029.056.021.016.052.023.033.006.296.021l.019.016v.087l-.019.019q-.275-.016-.575-.016-.238 0-.496.016l-.019-.019v-.087l.019-.016q.201-.012.225-.019.027-.006.046-.025.021-.021.027-.06.008-.041.016-.267.01-.227.01-.343v-.407q0-.083-.008-.225-.008-.143-.014-.176-.004-.033-.031-.047-.027-.016-.107-.016l-.174-.002-.019-.016v-.089l.016-.016q.395-.047.666-.155z"/><use xlink:href="#n" x="37.403" y="-20.898"/><path d="M98.131 73.923l.039.027q-.023.271-.023.688v.482q0 .265.039.368.041.103.141.159.099.054.236.054.151 0 .275-.058.124-.06.207-.167.085-.107.097-.145.012-.037.017-.209l.006-.232v-.223q0-.083-.008-.225-.008-.143-.014-.176-.004-.033-.031-.047-.027-.016-.107-.016l-.174-.002-.019-.016v-.089l.016-.016q.395-.047.666-.155l.039.027q-.023.271-.023.688v.364q0 .031.01.506.004.176.021.215.019.037.05.054.031.014.184.014h.058l.019.016v.083l-.017.019q-.291-.016-.391-.016-.126 0-.291.014l-.019-.016q.012-.211.019-.358-.13.101-.298.271-.064.064-.184.107-.12.043-.273.043-.232 0-.362-.072-.128-.074-.182-.203-.054-.13-.054-.446l.002-.163v-.403q0-.083-.008-.225-.008-.143-.014-.176-.004-.033-.031-.047-.027-.016-.107-.016l-.174-.002-.019-.016v-.089l.016-.016q.395-.047.666-.155zm.494-.13zm.021 2.224z"/><use xlink:href="#AI"/><use xlink:href="#AJ"/><use xlink:href="#o" x="2.314" y="69.896"/><use xlink:href="#AJ" x="4.614"/><path d="M110.845 72.986l.017-.014q.709.012.907.012.678 0 1.207-.012l.01.014q-.052.198-.077.622l-.012.016h-.101l-.019-.016q.002-.019.002-.033 0-.176-.027-.335-.13-.058-.362-.074-.229-.019-.345-.019-.163 0-.418.023l-.008.331-.006.378-.006.42q.223.012.411.012.19 0 .318-.012.128-.012.149-.025.023-.014.033-.052.012-.039.021-.136l.008-.128.017-.016h.095l.017.016q-.004.225-.01.453l.01.465-.017.016h-.095l-.017-.016-.014-.124q-.019-.145-.027-.172-.008-.029-.039-.05-.029-.021-.153-.033-.124-.012-.341-.012-.12 0-.366.01-.01.174-.01.579 0 .434.01.639h.38q.502 0 .628-.012.126-.012.24-.06.019-.047.06-.219.043-.174.05-.217l.021-.014h.099l.017.014q-.019.089-.037.31-.017.221-.017.378l-.014.016q-.395-.012-1.034-.012l-.562-.004q-.196 0-.409.016l-.017-.016v-.068l.017-.021q.122-.062.138-.076.019-.016.029-.362.012-.347.012-.529v-.759l-.002-.469q0-.153-.004-.248-.004-.097-.014-.138-.01-.041-.025-.058-.012-.016-.043-.027-.029-.012-.101-.021l-.157-.012-.017-.014zm1.18-.167zm-.008 3.198z"/><path d="M113.373 75.907l-.017-.019v-.083l.019-.016q.077-.002.124-.023.05-.023.118-.091.07-.07.246-.285l.333-.411-.176-.263q-.039-.058-.163-.227-.122-.169-.205-.254-.083-.087-.124-.107-.039-.021-.081-.021-.019 0-.05.002l-.021-.014-.017-.083.017-.021q.211-.025.465-.079.143.118.422.552l.153.242.13-.165q.151-.196.424-.589.097.014.155.014.054 0 .145-.014l.017.016v.083l-.017.016q-.068.006-.099.021-.031.014-.114.095-.083.081-.221.248l-.124.149q-.037.043-.072.089l-.128.165.077.118q.052.074.248.349.198.273.277.366.081.091.114.107.035.014.114.014l.017.016v.085l-.017.016q-.153-.014-.236-.014-.025 0-.265.014-.169-.213-.341-.477l-.211-.318q-.213.242-.571.796-.141-.014-.167-.014-.041 0-.178.014z"/><path d="M116.23 73.898l.039.025q-.021.236-.023.418.281-.256.391-.339.112-.083.382-.083.169 0 .308.047.138.046.256.153.118.105.186.267.068.159.068.37 0 .149-.048.302-.048.153-.126.283-.077.13-.124.174-.046.041-.19.126-.13.079-.258.169-.089.064-.124.083-.035.019-.118.037-.083.019-.176.019-.215 0-.428-.11v.44q0 .046.008.291.008.248.017.289.01.041.029.06.019.019.046.023.027.006.223.019l.019.016v.087l-.017.019q-.258-.016-.496-.016-.238 0-.496.016l-.019-.019v-.087l.019-.016q.198-.012.225-.019.027-.006.046-.027.021-.019.027-.062.008-.043.017-.277.01-.234.01-.351v-1.583q0-.107-.01-.248-.008-.143-.014-.165-.006-.023-.031-.037-.023-.014-.105-.014l-.174-.002-.019-.016v-.089l.017-.016q.395-.047.664-.155zm.017 1.585q.095.097.236.169.141.07.31.07.201 0 .353-.101.155-.101.24-.296.085-.196.085-.434 0-.192-.077-.358-.074-.165-.234-.26-.157-.095-.335-.095-.11 0-.213.039-.103.037-.194.112-.089.074-.128.143-.039.066-.041.112-.002.043-.002.097z"/><path d="M118.805 73.923l.039.027q-.012.12-.019.426l.155-.196q.077-.097.134-.149.06-.054.138-.083.079-.029.161-.029.091 0 .172.037l.014.029q-.033.275-.037.484h-.093q-.083-.19-.267-.19-.128 0-.223.083-.095.081-.128.205-.031.122-.031.31v.229q0 .062.008.304.008.242.017.279.01.037.029.056.021.016.052.023.033.006.296.021l.019.016v.087l-.019.019q-.275-.016-.575-.016-.238 0-.496.016l-.019-.019v-.087l.019-.016q.201-.012.225-.019.027-.006.046-.025.021-.021.027-.06.008-.041.017-.267.01-.227.01-.343v-.407q0-.083-.008-.225-.008-.143-.014-.176-.004-.033-.031-.047-.027-.016-.107-.016l-.174-.002-.019-.016v-.089l.017-.016q.395-.047.666-.155z"/><use xlink:href="#o" x="16.974" y="69.896"/><use xlink:href="#AK"/><use xlink:href="#AK" x="1.794"/><path d="M125.891 72.999q.097 0 .165.068.068.068.068.165 0 .095-.068.163-.068.068-.165.068-.095 0-.165-.066-.068-.068-.068-.165 0-.097.068-.165.07-.068.165-.068zm.176.924l.039.027q-.023.271-.023.688v.467q0 .046.008.294.008.246.017.287.01.041.029.06.019.019.046.025.027.004.223.016l.019.016v.087l-.017.019q-.258-.016-.498-.016-.238 0-.496.016l-.019-.019v-.087l.019-.016q.201-.012.225-.019.027-.006.046-.025.021-.021.027-.06.008-.041.017-.267.01-.227.01-.343v-.407q0-.083-.008-.225-.008-.143-.014-.176-.004-.033-.031-.047-.027-.016-.107-.016l-.174-.002-.019-.016v-.089l.017-.016q.395-.047.666-.155zm-.161 2.094z"/><use xlink:href="#n" x="68.83" y="-20.898"/><use xlink:href="#AI" x="28.873"/><use xlink:href="#z" x="60.757" y="52.388"/><use xlink:href="#AA" x="60.757" y="52.388"/><use xlink:href="#AL"/><path d="M104.514 79.557q-.062-.065-.062-.097 0-.033.041-.087.043-.055.147-.146-.04.003-.065.003-.164 0-.26-.085-.096-.087-.096-.258 0-.12.047-.238.047-.12.127-.194.081-.076.194-.131.114-.055.248-.055.237 0 .329.154.16-.003.238-.018l.006.007-.022.138q-.037-.003-.072-.003-.048 0-.11.006.006.044.006.08 0 .196-.128.354-.127.157-.343.216-.077.073-.077.124 0 .052.04.099.041.046.247.215.119.097.154.169.037.073.037.139 0 .178-.196.305-.196.127-.491.127-.24 0-.367-.091-.125-.091-.125-.244 0-.09.05-.178.05-.088.185-.174.135-.085.318-.138zm-.095-.722q0 .142.066.223.067.08.194.08.165 0 .245-.15.08-.15.08-.34 0-.094-.028-.157-.028-.063-.085-.099-.056-.036-.139-.036-.16 0-.247.142-.087.142-.087.338zm.139.772q-.117.029-.222.095-.105.066-.15.145-.044.079-.044.164 0 .138.107.215.109.079.281.079.119 0 .215-.033.098-.033.153-.098.055-.063.055-.139 0-.048-.023-.098-.023-.05-.059-.084-.036-.033-.12-.097z"/><use xlink:href="#AL" x="2.117"/><use xlink:href="#AM"/><path d="M108.043 79.212q0-.263.09-.48.09-.216.273-.343.185-.128.36-.128.16 0 .269.098.109.097.109.332 0 .232-.103.469-.102.237-.281.358-.179.121-.351.121-.114 0-.2-.052-.085-.054-.125-.145-.039-.092-.039-.23zm.22-.019q0 .119.023.189.023.069.083.112.059.041.146.041.091 0 .16-.048.069-.048.131-.179.062-.131.09-.292.029-.163.029-.299 0-.125-.029-.201-.029-.076-.085-.114-.056-.039-.136-.039-.212 0-.311.255-.099.254-.099.576zm.438-1.014zm-.255 1.568z"/><path d="M109.274 79.565q.048-.218.056-.35l.011-.011h.047l.011.011v.222q.124.106.271.106.066 0 .128-.022.062-.022.103-.059.041-.039.066-.101.025-.063.025-.128 0-.044-.018-.085-.017-.041-.058-.066-.04-.026-.163-.048-.124-.022-.175-.036-.051-.015-.099-.051-.048-.036-.077-.094-.028-.058-.028-.125 0-.092.043-.167.044-.076.13-.142.085-.066.176-.11.092-.044.203-.044.163 0 .274.066l.006.015q-.023.08-.03.145l-.017.154-.011.011h-.043l-.012-.011q0-.081-.004-.158-.096-.106-.26-.106-.13 0-.208.076-.079.074-.079.179 0 .085.052.135.052.05.198.072.131.019.186.033.055.014.102.047.047.032.073.084.028.051.028.116 0 .077-.03.152-.029.073-.084.135-.054.062-.154.13-.101.066-.178.091-.077.025-.164.025-.139 0-.292-.073z"/><use xlink:href="#AN"/><path d="M112.133 79.624l-.021-.023.08-.287q.041-.152.079-.331.039-.181.054-.296.017-.117.017-.158 0-.072-.04-.072-.019 0-.058.019-.037.019-.142.087l-.017-.006-.014-.03.004-.021q.327-.238.433-.238.061 0 .061.069 0 .026-.008.077-.007.05-.085.418.19-.27.391-.415.201-.146.328-.146.067 0 .067.062 0 .058-.014.136-.014.079-.081.367.197-.274.42-.42.225-.146.349-.146.067 0 .067.069 0 .094-.136.599-.105.384-.105.466 0 .056.04.056.022 0 .059-.018.039-.018.16-.105l.014.006.015.034-.004.018q-.062.05-.171.124-.107.073-.163.097-.055.025-.091.025-.04 0-.063-.03-.023-.029-.023-.076 0-.04.006-.072.007-.033.04-.153.05-.176.114-.455.066-.278.066-.357 0-.025-.014-.036-.014-.012-.03-.012-.036 0-.119.044-.081.044-.189.15-.107.106-.176.214-.067.107-.114.269-.047.161-.099.463-.063.01-.192.039l-.021-.016q.109-.391.168-.69.059-.3.059-.408 0-.059-.04-.059-.04 0-.119.044-.079.043-.193.165-.113.123-.183.267-.069.145-.113.349-.044.204-.063.307-.107.016-.19.037z"/><use xlink:href="#AA" x="72.718" y="52.388"/><use xlink:href="#AN" x="4.939"/><path d="M116.383 79.638l-.025-.019q.096-.316.161-.659.065-.345.065-.442 0-.062-.033-.062-.041 0-.229.124l-.017-.004-.014-.03.004-.021q.123-.098.258-.179.136-.081.2-.081.055 0 .055.069 0 .08-.101.533.128-.225.251-.379.123-.156.176-.19.055-.036.109-.036.025 0 .05.011l.006.015q-.021.076-.047.294l-.039.008q-.04-.055-.092-.055-.039 0-.094.032-.054.032-.134.128-.08.097-.139.219-.058.121-.094.266-.036.145-.091.411-.139.032-.187.048z"/><path d="M117.794 77.801q0-.073.046-.128.047-.056.113-.056.047 0 .076.029.029.029.029.083 0 .074-.043.134-.043.058-.107.058-.048 0-.081-.033-.032-.033-.032-.085zm-.36.769l-.014-.032.004-.018q.187-.135.288-.189.102-.055.16-.055.056 0 .056.081 0 .037-.015.106-.014.067-.069.274-.15.557-.15.659 0 .055.039.055.059 0 .215-.117l.014.004.015.036-.003.016q-.096.074-.198.143-.102.069-.146.087-.043.019-.072.019-.041 0-.065-.036-.023-.036-.023-.084 0-.062.017-.132.018-.072.043-.158.09-.32.127-.499.039-.179.039-.219 0-.047-.032-.047-.021 0-.04.011-.019.01-.174.099zm.146 1.177z"/><use xlink:href="#AM" x="11.256"/><use xlink:href="#AF" x="58.843" y="52.388"/><defs ><path id="B" d="M60.399 85.589q-.183.314-.274.627-.09.311-.09.628 0 .316.09.628.091.313.274.63h-.22q-.208-.328-.31-.638-.102-.311-.102-.62 0-.307.102-.619.102-.311.31-.637z"/><path id="C" d="M62.218 86.241v.248q-.109-.063-.219-.095-.11-.032-.225-.032-.172 0-.258.056-.084.055-.084.169 0 .103.063.154.063.051.316.099l.102.019q.189.036.285.143.098.107.098.28 0 .229-.163.358-.163.128-.452.128-.114 0-.24-.025-.125-.023-.271-.072v-.262q.142.073.271.11.13.036.245.036.168 0 .26-.067.092-.069.092-.192 0-.176-.338-.244l-.011-.003-.095-.019q-.219-.043-.32-.143-.101-.102-.101-.277 0-.222.15-.342.15-.121.429-.121.124 0 .238.023.114.022.225.067z"/><path id="D" d="M63.421 85.749v.438h.576v.197h-.576v.838q0 .171.065.238.065.067.226.067h.285v.203h-.31q-.285 0-.402-.114-.117-.114-.117-.394v-.838h-.412v-.197h.412v-.438z"/><path id="E" d="M65.24 86.954h-.084q-.222 0-.335.079-.112.077-.112.232 0 .139.084.216.084.077.233.077.209 0 .329-.145.12-.146.121-.402v-.056zm.492-.105v.881h-.255v-.229q-.081.138-.205.204-.123.065-.299.065-.236 0-.376-.132-.141-.134-.141-.357 0-.258.172-.391.174-.134.508-.134h.34v-.04q-.001-.185-.094-.267-.092-.084-.295-.084-.13 0-.262.037-.132.037-.258.109v-.254q.141-.054.269-.08.13-.028.251-.028.192 0 .327.056.136.056.22.169.052.069.074.171.022.101.022.303z"/><path id="F" d="M67.432 87.652q-.102.059-.211.088-.107.03-.22.03-.358 0-.561-.215-.201-.215-.201-.595 0-.38.201-.595.203-.215.561-.215.112 0 .218.029.106.029.214.09v.266q-.101-.09-.203-.13-.101-.04-.229-.04-.238 0-.367.154-.128.154-.128.441 0 .285.128.441.13.154.367.154.132 0 .237-.04.105-.041.194-.127z"/><path id="G" d="M67.993 85.586h.262v1.242l.666-.641h.309l-.608.582.703.962h-.31l-.571-.797-.189.178v.619h-.262z"/><path id="H" d="M75.724 86.96q0-.295-.094-.445-.094-.15-.277-.15-.185 0-.28.152-.095.15-.095.444 0 .292.095.444.095.152.28.152.183 0 .277-.15.094-.15.094-.445zm-.746-.576q.061-.113.167-.174.107-.061.248-.061.278 0 .438.215.16.214.16.59 0 .382-.161.599-.16.216-.44.216-.138 0-.244-.059-.105-.061-.168-.175v.194h-.254v-2.144h.254z"/><path id="I" d="M76.636 85.589h.22q.208.325.31.637.102.311.102.619 0 .31-.102.621-.102.311-.31.637h-.22q.183-.32.273-.633.091-.313.091-.626 0-.314-.091-.627-.09-.313-.273-.628z"/><path id="J" d="M19.661 87.536v.781h-.255v-2.13h.255v.197q.063-.114.168-.174.106-.061.244-.061.28 0 .438.216.16.216.16.599 0 .376-.16.591-.16.214-.438.214-.141 0-.247-.059-.105-.061-.165-.175zm.744-.576q0-.295-.094-.445-.092-.15-.276-.15-.185 0-.28.152-.095.15-.095.444 0 .292.095.444.095.152.28.152.183 0 .276-.15.094-.15.094-.445z"/><path id="K" d="M27.118 86.384v-.798h.254v2.144h-.254v-.194q-.063.114-.169.175-.105.059-.243.059-.28 0-.441-.216-.16-.218-.16-.599 0-.376.161-.59.161-.215.44-.215.139 0 .245.061.106.059.167.174zm-.746.576q0 .295.094.445.094.15.277.15.183 0 .278-.152.096-.152.096-.444 0-.294-.096-.444-.095-.152-.278-.152-.183 0-.277.15-.094.15-.094.445z"/><path id="L" d="M28.482 86.365q-.193 0-.292.15-.099.15-.099.445 0 .294.099.445.099.15.292.15.194 0 .294-.15.099-.152.099-.445 0-.295-.099-.445-.099-.15-.294-.15zm0-.215q.321 0 .491.208.171.208.171.602 0 .395-.169.604-.169.207-.492.207-.321 0-.491-.207-.169-.208-.169-.604 0-.394.169-.602.169-.208.491-.208z"/><path id="M" d="M29.331 86.187h.251l.269 1.247.22-.797h.216l.223.797.269-1.247h.251l-.361 1.543h-.243l-.247-.846-.245.846h-.243z"/><path id="N" d="M32.477 86.774v.956h-.255v-.956q0-.208-.073-.306-.073-.098-.229-.098-.178 0-.274.127-.095.125-.095.361v.872h-.254v-1.543h.254v.232q.068-.132.183-.2.116-.069.274-.069.236 0 .351.156.117.154.117.469z"/><path id="O" d="M108.432 13.951v-.956h.254v.956q0 .208.073.306.074.098.229.098.179 0 .274-.125.095-.127.095-.362v-.872h.255v1.541h-.255v-.232q-.067.134-.185.203-.116.069-.271.069-.237 0-.353-.154-.116-.156-.116-.47z"/><path id="P" d="M110.707 12.554v.438h.576v.197h-.576v.838q0 .171.065.238.065.068.226.068h.285v.203h-.31q-.285 0-.402-.114-.117-.114-.117-.394v-.838h-.412v-.197h.412v-.438z"/><path id="Q" d="M119.798 13.579v.956h-.255v-.956q0-.208-.073-.306-.073-.098-.229-.098-.178 0-.274.127-.095.125-.095.361v.872h-.254v-1.543h.254v.232q.067-.132.183-.2.116-.069.274-.069.236 0 .351.156.117.154.117.469z"/><path id="R" d="M66.224 60.312c0 4.579-3.712 8.291-8.291 8.291s-8.291-3.712-8.291-8.291 3.712-8.291 8.291-8.291 8.291 3.712 8.291 8.291z"/><path id="S" d="M61.999 64.737v.124h-1.098v.008q0 .252.131.39.132.138.372.138.121 0 .254-.039.132-.039.282-.117v.252q-.145.059-.28.088-.134.03-.259.03-.36 0-.562-.215-.203-.216-.203-.595 0-.369.198-.59.198-.22.529-.22.295 0 .464.2.171.2.171.546zm-.254-.074q-.005-.223-.106-.339-.099-.117-.287-.117-.183 0-.302.121-.119.121-.141.336z"/><path id="T" d="M108.647 44.127v.124h-1.098v.008q0 .252.131.39.132.138.372.138.121 0 .254-.039.132-.039.282-.117v.252q-.145.059-.28.088-.134.03-.259.03-.36 0-.562-.215-.203-.216-.203-.595 0-.369.198-.59.198-.22.529-.22.295 0 .464.2.171.2.171.546zm-.254-.074q-.006-.223-.106-.339-.099-.117-.287-.117-.183 0-.302.121-.119.121-.141.336z"/><path id="U" d="M84.361 56.415q-.176.072-.358.109-.183.036-.386.036-.484 0-.741-.258-.255-.26-.255-.748 0-.472.246-.746.246-.274.672-.274.429 0 .665.255.238.253.238.715v.205h-1.307q.002.227.134.339.133.112.396.112.174 0 .343-.05.169-.05.353-.158zm-.427-1.085q-.003-.2-.103-.301-.098-.103-.291-.103-.174 0-.277.107-.103.105-.122.3z"/><path id="V" d="M94.262 54.032v.548h.66v.388h-.66v.913q0 .129.062.186.064.055.21.055h.388v.388h-.424q-.434 0-.587-.138-.153-.14-.153-.515v-.889h-.493v-.388h.493v-.548z"/><path id="W" d="M66.983 44.529q-.083-.076-.195-.114-.11-.038-.243-.038-.16 0-.281.057-.119.055-.184.162-.041.065-.059.158-.016.093-.016.282v.889h-.505v-1.929h.505v.3q.074-.165.227-.255.153-.091.358-.091.103 0 .202.026.1.024.189.072z"/><path id="X" d="M77.318 44.057v.441q-.14-.09-.291-.134-.15-.047-.301-.047-.169 0-.255.05-.086.048-.086.145 0 .138.369.224l.019.005.145.034q.276.065.403.212.129.145.129.393 0 .298-.196.448-.195.148-.587.148-.174 0-.357-.031-.183-.029-.37-.09v-.441q.167.095.339.145.174.05.336.05.177 0 .269-.052.091-.052.091-.15 0-.096-.066-.148-.064-.052-.307-.11l-.14-.031q-.289-.065-.422-.205-.133-.14-.133-.374 0-.279.202-.434.202-.155.567-.155.164 0 .326.028.164.026.317.079z"/><path id="Y" d="M34.985 72.008q-.282 0-.394.072-.112.072-.112.248 0 .131.078.208.078.078.21.078.2 0 .31-.15.11-.152.11-.422v-.034zm.703-.195v1.101h-.501v-.215q-.091.127-.234.196-.143.069-.315.069-.329 0-.513-.174-.183-.174-.183-.486 0-.338.219-.498.219-.162.677-.162h.35v-.084q0-.122-.09-.184-.088-.064-.26-.064-.181 0-.351.046-.169.045-.353.145v-.431q.167-.069.339-.102.172-.033.365-.033.47 0 .66.191.191.191.191.684z"/><path id="Z" d="M40.526 70.984h.999v1.542h.627v.388h-1.76v-.388h.629v-1.154h-.494zm.494-.939h.505v.589h-.505z"/><path id="a" d="M42.934 72.109v-1.488h-.512v-.388h1.016v1.876q0 .227.071.322.071.095.239.095h.403v.388h-.544q-.36 0-.517-.186-.157-.186-.157-.618z"/><path id="b" d="M120.666 28.698q-.282 0-.394.072-.112.072-.112.248 0 .131.077.208.077.078.21.078.2 0 .31-.15.11-.152.11-.422v-.034zm.703-.195v1.101h-.501v-.215q-.091.127-.234.196-.143.069-.315.069-.329 0-.513-.174-.183-.174-.183-.486 0-.338.219-.498.219-.162.677-.162h.35v-.084q0-.122-.09-.184-.088-.064-.26-.064-.181 0-.351.047-.169.045-.353.145v-.431q.167-.069.339-.102.172-.033.365-.033.47 0 .66.191.191.191.191.684z"/><path id="c" d="M68.428 89.891v.093h-.824v.006q0 .189.098.292.099.103.279.103.091 0 .19-.029.099-.029.212-.088v.189q-.109.044-.21.066-.1.023-.194.023-.27 0-.422-.161-.152-.162-.152-.446 0-.277.149-.442.149-.165.397-.165.221 0 .348.15.128.15.128.409zm-.19-.056q-.004-.167-.08-.254-.074-.088-.215-.088-.137 0-.226.091-.089.091-.105.252z"/><path id="d" d="M69.746 89.599q-.061-.048-.124-.069-.063-.022-.138-.022-.178 0-.272.112-.094.112-.094.322v.576h-.191V89.36h.191v.226q.048-.123.146-.188.099-.066.235-.066.07 0 .131.018.061.018.117.055z"/><path id="e" d="M70.524 89.478q.035-.074.089-.11.055-.036.131-.036.14 0 .196.109.058.107.058.406v.671h-.174v-.662q0-.245-.028-.304-.027-.06-.099-.06-.083 0-.114.064-.03.063-.03.3v.662h-.174v-.662q0-.248-.03-.306-.029-.058-.105-.058-.075 0-.105.064-.029.063-.029.3v.662h-.173V89.36h.173v.099q.034-.062.085-.094.052-.033.117-.033.079 0 .13.036.053.036.082.11z"/><path id="f" d="M134.187 10.128h1.177v.176h-.483v1.367h-.21v-1.367h-.485z"/><path id="g" d="M137.879 10.753q-.061-.048-.124-.069-.063-.022-.138-.022-.178 0-.272.112-.094.112-.094.322v.576h-.191v-1.158h.191v.226q.048-.123.146-.188.099-.066.235-.066.07 0 .131.018.061.018.117.055z"/><path id="h" d="M138.657 10.632q.035-.074.089-.11.055-.036.131-.036.14 0 .196.109.058.107.058.406v.671h-.174v-.662q0-.245-.028-.304-.027-.06-.099-.06-.083 0-.114.064-.03.063-.03.3v.662h-.174v-.662q0-.248-.03-.306-.029-.058-.105-.058-.076 0-.105.064-.029.063-.029.3v.662h-.173v-1.158h.173v.099q.034-.062.085-.094.052-.033.117-.033.079 0 .13.036.053.036.082.11z"/><path id="i" d="M37.151 95.389l-.081-.021-.017-.021v-.256q.368-.273.715-.273.238 0 .395.089.157.089.227.223.07.132.07.31l-.01.415v.616q0 .126.017.153.019.027.041.037.023.008.085.014l.118.01.017.019v.083l-.017.017q-.151-.012-.281-.012-.124 0-.298.012l-.031-.029.008-.333-.451.351q-.114.048-.248.048-.165 0-.285-.06-.118-.06-.182-.167-.062-.107-.062-.26 0-.304.19-.473.19-.172 1.038-.291 0-.306-.136-.43-.136-.126-.366-.126-.12 0-.219.035-.097.035-.112.058-.014.021-.112.252zm.959.327q-.579.097-.721.209-.143.112-.143.345 0 .322.32.322.275 0 .544-.318zm-.351-1.025zm-.043 2.224z"/><path id="j" d="M39.424 93.897q.097 0 .165.068.068.068.068.165 0 .095-.068.163-.068.068-.165.068-.095 0-.165-.066-.068-.068-.068-.165 0-.097.068-.165.07-.068.165-.068zm.176.924l.039.027q-.023.271-.023.688v.467q0 .046.008.294.008.246.017.287.01.041.029.06.019.019.045.025.027.004.223.017l.019.017v.087l-.017.019q-.258-.017-.498-.017-.238 0-.496.017l-.019-.019v-.087l.019-.017q.201-.012.225-.019.027-.006.045-.025.021-.021.027-.06.008-.041.017-.267.01-.227.01-.343v-.407q0-.083-.008-.225-.008-.143-.014-.176-.004-.033-.031-.048-.027-.017-.107-.017l-.174-.002-.019-.017v-.089l.017-.017q.395-.048.666-.155zm-.161 2.094z"/><path id="k" d="M40.834 93.73l.039.025q-.023.238-.023.953v1.296q0 .046.008.294.008.246.017.287.01.041.029.06.019.019.045.025.027.004.223.017l.019.017v.087l-.017.019q-.258-.017-.498-.017-.238 0-.496.017l-.019-.019v-.087l.019-.017q.201-.012.225-.019.027-.006.045-.025.021-.021.027-.06.008-.041.017-.267.01-.227.01-.343v-1.071l-.008-.438q-.006-.229-.014-.318-.006-.089-.019-.105-.012-.017-.043-.025-.031-.008-.25-.008l-.019-.019v-.087l.017-.019q.395-.046.666-.153z"/><path id="l" d="M55.002 96.57l-.083.138q-.267.147-.595.147-.455 0-.703-.271-.248-.271-.248-.699 0-.194.041-.345.043-.153.107-.252.066-.099.145-.157.079-.058.265-.161.188-.103.283-.134.095-.033.263-.033.32 0 .525.122-.039.234-.06.521l-.019.017h-.085l-.019-.019q-.008-.174-.023-.234-.014-.06-.165-.128-.149-.068-.318-.068-.169 0-.302.072-.132.07-.201.234-.066.161-.066.387 0 .19.054.372.054.18.141.3.089.118.234.19.145.072.322.072.112 0 .217-.029.107-.029.246-.095z"/><path id="m" d="M55.179 95.168v-.054l.014-.021q.194-.072.314-.134 0-.54-.012-.628.213-.074.349-.159l.05.041q-.021.13-.05.757.103.002.223.002.244 0 .349-.012l.014.014-.039.174-.017.019q-.105-.002-.234-.002-.116 0-.298.002l-.012.841q0 .291.012.382.014.089.074.141.062.05.182.05.138 0 .256-.072l.05.074q-.05.035-.238.207-.107.05-.219.05-.465 0-.465-.451 0-.165.008-.281.002-.035.002-.072v-.858h-.085q-.093 0-.213.008z"/><path id="n" d="M57.838 95.844q0-.246.101-.473.101-.229.351-.395.252-.167.597-.167.434 0 .707.275.273.273.273.703 0 .473-.314.779-.312.306-.754.306-.289 0-.517-.155-.227-.157-.337-.382-.107-.225-.107-.49zm.391-.143q0 .289.074.519.074.227.236.366.161.138.368.138.244 0 .403-.192.159-.194.159-.583 0-.44-.174-.721-.172-.281-.496-.281-.269 0-.42.194-.151.194-.151.56zm.626-1.011zm-.031 2.224z"/><path id="o" d="M104.535 5.693l-.066.149q-.215.138-.384.18-.167.041-.3.041-.248 0-.471-.097-.221-.097-.362-.329-.138-.232-.138-.558 0-.217.054-.391.054-.176.112-.26.06-.085.201-.188.141-.103.298-.165.157-.062.339-.062.248 0 .436.118.19.116.267.298.077.182.077.387 0 .064-.006.124l-.023.023q-.141.031-.378.041-.238.01-.314.01h-.664q.004.428.215.63.211.203.517.203.145 0 .277-.05.134-.05.283-.138zm-1.325-.845q.037.006.285.014.25.008.37.008.287 0 .349-.01.002-.05.002-.076 0-.32-.13-.475-.13-.157-.356-.157-.246 0-.384.176-.136.176-.136.521zm.577-.951zm-.025 2.224z"/><path id="p" d="M113.089 4.027l.039.027q-.012.138-.017.364.165-.136.314-.277.043-.039.081-.058.039-.019.128-.039.089-.021.182-.021.157 0 .304.064.149.064.223.153.077.087.105.207.029.12.029.296v.364q0 .035.01.515.004.196.043.234.039.037.256.037l.017.017v.089l-.017.017q-.263-.017-.356-.017-.054 0-.302.017l-.025-.023q.027-.269.027-.701v-.271q0-.244-.012-.351-.01-.107-.068-.194-.058-.089-.155-.136-.097-.05-.232-.05-.107 0-.184.023-.077.021-.172.089-.095.066-.141.126-.046.058-.056.11-.008.05-.008.215v.36q0 .045.008.294.008.246.017.287.01.041.029.06.019.019.046.025.027.004.223.017l.019.017v.087l-.017.019q-.258-.017-.498-.017-.238 0-.496.017l-.019-.019v-.087l.019-.017q.201-.012.225-.019.027-.006.046-.025.021-.021.027-.06.008-.041.017-.267.01-.227.01-.343v-.407q0-.083-.008-.225-.008-.143-.014-.176-.004-.033-.031-.048-.027-.017-.107-.017l-.174-.002-.019-.017v-.089l.017-.017q.395-.048.666-.155z"/><path id="q" d="M114.941 4.374V4.32l.014-.021q.194-.072.314-.134 0-.54-.012-.628.213-.074.349-.159l.05.041q-.021.13-.05.757.103.002.223.002.244 0 .349-.012l.014.014-.039.174-.017.019q-.105-.002-.234-.002-.116 0-.298.002l-.012.841q0 .291.012.382.014.089.074.141.062.05.182.05.138 0 .256-.072l.05.074q-.05.035-.238.207-.107.05-.219.05-.465 0-.465-.451 0-.165.008-.281.002-.035.002-.072v-.858h-.085q-.093 0-.213.008z"/><path id="r" d="M16.016 51.366v.441q-.14-.09-.291-.134-.15-.047-.301-.047-.169 0-.255.05-.086.048-.086.145 0 .138.369.224l.019.005.145.034q.276.065.403.212.129.145.129.393 0 .298-.196.448-.195.148-.587.148-.174 0-.357-.031-.183-.029-.37-.09v-.441q.167.095.339.145.174.05.336.05.177 0 .269-.052.091-.052.091-.15 0-.096-.065-.148-.064-.052-.307-.11l-.14-.031q-.289-.065-.422-.205-.133-.14-.133-.374 0-.279.202-.434.202-.155.567-.155.164 0 .326.028.164.026.317.079z"/><path id="s" d="M47.953 34.696q0-.285-.094-.433-.092-.149-.27-.149-.186 0-.284.149-.098.147-.098.433 0 .285.098.435.099.149.287.149.175 0 .267-.15.094-.15.094-.434zm.254.685q0 .347-.164.526-.164.179-.482.179-.105 0-.219-.019-.114-.019-.229-.056v-.251q.135.063.245.094.11.03.203.03.205 0 .299-.112.094-.112.094-.354v-.011-.172q-.061.13-.165.193-.105.063-.255.063-.27 0-.431-.216-.161-.216-.161-.579 0-.364.161-.58.161-.216.431-.216.149 0 .252.059.103.059.168.183v-.2h.254z"/><path id="t" d="M51.108 34.927h-.262v-.212q0-.135.041-.229.043-.095.158-.208l.124-.123q.085-.081.117-.142.033-.061.033-.128 0-.123-.091-.198-.09-.076-.24-.076-.107 0-.23.048-.123.047-.258.141v-.259q.13-.079.26-.117.132-.039.276-.039.256 0 .408.132.153.132.153.354 0 .105-.047.196-.045.09-.175.216l-.121.119q-.095.091-.121.149-.026.058-.026.142v.065zm-.271.203h.28v.35h-.28z"/><path id="u" d="M53.404 33.937l-.553.739.606.805h-.294l-.452-.619-.451.619h-.294l.606-.805-.553-.739h.281l.409.558.407-.558z"/><path id="v" d="M71.721 34.984q-.063.161-.161.424-.136.364-.183.444-.063.107-.158.161-.095.054-.222.054h-.204v-.212h.15q.112 0 .175-.065.063-.065.161-.335l-.597-1.519h.269l.458 1.207.451-1.207h.269z"/><path id="w" d="M29.373 61.701l.039.027q-.012.12-.019.426l.155-.196q.076-.097.134-.149.06-.054.138-.083.079-.029.161-.029.091 0 .172.037l.014.029q-.033.275-.037.484h-.093q-.083-.19-.267-.19-.128 0-.223.083-.095.081-.128.205-.031.122-.031.31v.229q0 .062.008.304.008.242.017.279.01.037.029.056.021.016.052.023.033.006.296.021l.019.016v.087l-.019.019q-.275-.016-.575-.016-.238 0-.496.016l-.019-.019v-.087l.019-.016q.201-.012.225-.019.027-.006.045-.025.021-.021.027-.06.008-.041.017-.267.01-.227.01-.343v-.407q0-.083-.008-.225-.008-.143-.014-.176-.004-.033-.031-.047-.027-.016-.107-.016l-.174-.002-.019-.016v-.089l.017-.016q.395-.047.666-.155z"/><path id="x" d="M33.747 63.367l-.066.149q-.215.138-.384.18-.167.041-.3.041-.248 0-.471-.097-.221-.097-.362-.329-.138-.232-.138-.558 0-.217.054-.391.054-.176.112-.26.06-.085.201-.188.141-.103.298-.165.157-.062.339-.062.248 0 .436.118.19.116.267.298.076.182.076.387 0 .064-.006.124l-.023.023q-.141.031-.378.041-.238.01-.314.01h-.664q.004.428.215.63.211.203.517.203.145 0 .277-.05.134-.05.283-.138zm-1.325-.845q.037.006.285.014.25.008.37.008.287 0 .349-.01.002-.05.002-.076 0-.32-.13-.475-.13-.157-.356-.157-.246 0-.384.176-.136.176-.136.521zm.577-.951zm-.025 2.224z"/><path id="y" d="M48.811 20.444l.039.025q-.023.238-.023.953v1.296q0 .045.008.294.008.246.017.287.01.041.029.06.019.019.045.025.027.004.223.017l.019.017v.087l-.017.019q-.258-.017-.498-.017-.238 0-.496.017l-.019-.019v-.087l.019-.017q.201-.012.225-.019.027-.006.045-.025.021-.021.027-.06.008-.041.017-.267.01-.227.01-.343v-1.071l-.008-.438q-.006-.229-.014-.318-.006-.089-.019-.105-.012-.017-.043-.025-.031-.008-.25-.008l-.019-.019v-.087l.017-.019q.395-.045.666-.153z"/><path id="z" d="M41.019 27.497q-.135-.185-.24-.445-.105-.26-.105-.568 0-.401.205-.737.207-.336.503-.586h.017l.044.047v.015q-.303.324-.437.652-.132.327-.132.75 0 .175.025.318.025.143.066.262.041.117.112.252l-.004.015-.039.028z"/><path id="AA" d="M42.39 26.914l.015.034-.003.018q-.339.287-.575.287-.077 0-.157-.043-.08-.041-.12-.12-.039-.079-.039-.201 0-.172.056-.367.058-.196.114-.288.058-.094.172-.175.114-.083.216-.132.103-.051.2-.051.105 0 .171.055.066.055.066.153 0 .112-.063.207-.063.094-.232.178-.168.084-.402.138l-.065.015q-.028.132-.028.22 0 .124.055.197.055.073.154.073.186 0 .446-.204zm-.634-.36q.145-.026.274-.081.131-.056.2-.149.07-.094.07-.19 0-.074-.037-.11-.037-.036-.09-.036-.058 0-.136.033-.077.033-.138.121-.059.088-.143.412zm.376-.763zm-.255 1.568z"/><path id="AB" d="M42.705 27.085q0-.076.048-.131.048-.055.116-.055.063 0 .095.037.033.036.033.096 0 .08-.045.141-.045.061-.12.061-.059 0-.094-.041-.033-.041-.033-.107z"/><path id="AC" d="M50.892 26.825q0-.263.09-.48.09-.216.273-.343.185-.128.36-.128.16 0 .269.098.109.096.109.332 0 .232-.103.469-.102.237-.281.358-.179.121-.351.121-.114 0-.2-.052-.085-.054-.125-.145-.039-.092-.039-.23zm.22-.019q0 .119.023.189.023.069.083.112.059.041.146.041.091 0 .16-.048.069-.048.131-.179.062-.131.09-.292.029-.163.029-.299 0-.125-.029-.201-.029-.076-.085-.114-.056-.039-.136-.039-.212 0-.311.255-.099.254-.099.576zm.438-1.014zm-.255 1.568z"/><path id="AD" d="M52.252 27.244l-.018-.023q.09-.274.158-.633.07-.358.07-.455 0-.054-.037-.054-.051 0-.212.109l-.017-.004-.012-.03.004-.021q.055-.041.131-.094.077-.052.152-.092.074-.041.102-.05.029-.01.051-.01.039 0 .052.028.015.026.015.055 0 .062-.045.245-.014.051-.074.302l.01.003q.102-.167.251-.32.149-.153.307-.233.158-.08.233-.08.041 0 .062.026.021.025.021.065 0 .095-.095.463-.128.491-.128.577 0 .051.037.051.045 0 .232-.132l.015.004.015.036-.004.017q-.085.069-.196.142-.11.072-.16.094-.05.022-.083.022-.043 0-.063-.03-.019-.029-.019-.073 0-.048.022-.15.022-.103.092-.378.101-.387.101-.475 0-.073-.052-.073-.037 0-.087.023-.088.041-.19.135-.102.092-.187.218-.084.124-.132.248-.047.123-.083.278-.005.019-.043.225-.095.015-.194.044z"/><path id="AE" d="M55.549 25.414q0-.073.045-.128.047-.056.113-.056.047 0 .076.029.029.029.029.083 0 .074-.043.134-.043.058-.107.058-.048 0-.081-.033-.032-.033-.032-.085zm-.36.769l-.014-.032.004-.018q.187-.135.288-.189.102-.055.16-.055.056 0 .056.081 0 .037-.015.106-.014.068-.069.274-.15.557-.15.659 0 .055.039.055.059 0 .215-.117l.014.004.015.036-.003.017q-.096.074-.198.143-.102.069-.146.087-.043.019-.072.019-.041 0-.065-.036-.023-.036-.023-.084 0-.062.017-.132.018-.072.043-.158.09-.32.127-.499.039-.179.039-.219 0-.047-.032-.047-.021 0-.04.011-.019.01-.174.099zm.146 1.177z"/><path id="AF" d="M60.858 25.164q.147.207.245.46.099.254.099.551 0 .398-.204.736-.204.336-.506.588h-.015l-.044-.047v-.015q.294-.311.431-.641.138-.329.138-.761 0-.225-.044-.416-.044-.193-.158-.416l.003-.015.039-.028z"/><path id="AG" d="M97.765 65.043V66h-.255v-.956q0-.208-.073-.306-.073-.098-.229-.098-.178 0-.274.127-.095.125-.095.361V66h-.254v-2.144h.254v.832q.067-.132.183-.2.116-.069.274-.069.236 0 .351.156.117.154.117.469z"/><path id="AH" d="M105.651 64.018v.438h.576v.197h-.576v.838q0 .171.065.238.065.067.226.067h.285V66h-.31q-.285 0-.402-.114-.117-.114-.117-.394v-.838h-.412v-.197h.412v-.438z"/><path id="AI" d="M100.677 73.923l.039.027q-.012.138-.017.364.165-.136.314-.277.043-.039.081-.058.039-.019.128-.039.089-.021.182-.021.157 0 .304.064.149.064.223.153.077.087.105.207.029.12.029.296v.364q0 .035.01.515.004.196.043.234.039.037.256.037l.017.016v.089l-.017.016q-.263-.016-.356-.016-.054 0-.302.016l-.025-.023q.027-.269.027-.701v-.271q0-.244-.012-.351-.01-.107-.068-.194-.058-.089-.155-.136-.097-.05-.232-.05-.107 0-.184.023-.077.021-.172.089-.095.066-.141.126-.046.058-.056.11-.008.05-.008.215v.36q0 .046.008.294.008.246.017.287.01.041.029.06.019.019.046.025.027.004.223.016l.019.016v.087l-.017.019q-.258-.016-.498-.016-.238 0-.496.016l-.019-.019v-.087l.019-.016q.201-.012.225-.019.027-.006.046-.025.021-.021.027-.06.008-.041.017-.267.01-.227.01-.343v-.407q0-.083-.008-.225-.008-.143-.014-.176-.004-.033-.031-.047-.027-.016-.107-.016l-.174-.002-.019-.016v-.089l.017-.016q.395-.047.666-.155z"/><path id="AJ" d="M103.825 73.09v-.087l.017-.019q.395-.046.666-.153l.039.025q-.023.238-.023.953v1.354q0 .209.006.366.008.155.027.184.019.029.06.047.043.019.242.035l.019.016v.079l-.019.019q-.223-.014-.347-.014-.112 0-.318.014l-.023-.023q.006-.203.006-.283 0-.01.002-.079-.114.083-.227.184-.167.149-.219.186-.095.047-.271.047-.285 0-.486-.141-.198-.141-.283-.358-.085-.219-.085-.449 0-.234.087-.449.089-.217.25-.316.163-.099.353-.205.192-.107.38-.107.263 0 .5.13l-.008-.461q-.004-.24-.012-.333-.008-.095-.021-.112-.012-.019-.043-.027-.029-.008-.25-.008zm.353 1.313q-.128-.145-.285-.221-.155-.076-.312-.076-.174 0-.325.095-.149.093-.215.279-.066.184-.066.401 0 .362.182.581.184.219.461.219.151 0 .267-.068.118-.07.192-.188.077-.118.089-.236.012-.118.012-.432z"/><path id="AK" d="M121.916 75.285h.089l.019.019q.004.174.021.298.064.097.221.159.157.06.31.06.219 0 .349-.118.132-.118.132-.281 0-.089-.048-.153-.048-.066-.145-.107-.095-.043-.343-.101-.213-.05-.298-.076-.085-.029-.163-.095-.078-.066-.12-.161-.041-.097-.041-.213 0-.277.219-.442.221-.167.55-.167.138 0 .302.039.163.037.248.072l.019.029q-.017.083-.021.434l-.019.019h-.083l-.019-.019q-.008-.126-.023-.176-.014-.052-.074-.11-.06-.06-.169-.099-.11-.041-.232-.041-.126 0-.213.037-.085.037-.138.114-.052.074-.052.182 0 .079.031.141.033.062.099.101.066.037.138.054l.225.058q.289.07.413.122.126.052.194.157.068.103.068.252 0 .285-.236.49-.236.205-.606.205-.13 0-.325-.029-.192-.029-.329-.064l-.01-.027.021-.138q.01-.064.012-.128.002-.066.004-.275z"/><path id="AL" d="M103.461 79.473q0-.076.048-.131.048-.055.116-.055.063 0 .095.037.033.036.033.097 0 .08-.046.141-.046.061-.12.061-.059 0-.094-.041-.033-.041-.033-.107z"/><path id="AM" d="M107.843 79.299l.015.039-.004.016q-.167.139-.307.215-.139.074-.267.074-.169 0-.256-.105-.087-.106-.087-.313 0-.127.03-.269.03-.143.081-.249.051-.106.106-.168.056-.062.168-.132.15-.094.233-.123.083-.029.158-.029.135 0 .233.067l.004.018q-.04.164-.061.332l-.011.011h-.043l-.011-.011v-.092q.001-.028.001-.047 0-.046-.017-.07-.017-.025-.077-.046-.061-.021-.136-.021-.145 0-.232.076-.085.074-.154.3-.067.225-.067.397 0 .172.067.251.067.077.174.077.087 0 .182-.04.095-.04.263-.164z"/><path id="AN" d="M111.093 79.291l.015.032-.004.016q-.054.047-.187.143-.132.095-.192.127-.058.033-.101.033-.04 0-.065-.037-.023-.037-.023-.106 0-.081.047-.291.054-.243.138-.69l-.225.006-.01-.011.004-.023.011-.011q.147-.052.237-.101.026-.121.072-.475.147-.062.216-.099l.033.025-.054.211q-.01.04-.073.356.062.004.101.004.136 0 .193-.019l.014.011-.032.135q-.051 0-.3-.007-.153.734-.153.865 0 .063.052.063.026 0 .069-.022.044-.023.152-.102l.048-.037z"/></defs></svg>